G04 #@! TF.GenerationSoftware,KiCad,Pcbnew,(6.0.4)*
G04 #@! TF.CreationDate,2022-05-25T10:20:10+08:00*
G04 #@! TF.ProjectId,3key-v2,336b6579-2d76-4322-9e6b-696361645f70,rev?*
G04 #@! TF.SameCoordinates,Original*
G04 #@! TF.FileFunction,Copper,L1,Top*
G04 #@! TF.FilePolarity,Positive*
%FSLAX46Y46*%
G04 Gerber Fmt 4.6, Leading zero omitted, Abs format (unit mm)*
G04 Created by KiCad (PCBNEW (6.0.4)) date 2022-05-25 10:20:10*
%MOMM*%
%LPD*%
G01*
G04 APERTURE LIST*
G04 #@! TA.AperFunction,ComponentPad*
%ADD10C,3.600000*%
G04 #@! TD*
G04 #@! TA.AperFunction,ComponentPad*
%ADD11R,1.700000X1.700000*%
G04 #@! TD*
G04 #@! TA.AperFunction,ComponentPad*
%ADD12O,1.700000X1.700000*%
G04 #@! TD*
G04 #@! TA.AperFunction,Conductor*
%ADD13C,0.250000*%
G04 #@! TD*
G04 APERTURE END LIST*
D10*
X121540000Y-92320000D03*
X115190000Y-94860000D03*
X102540000Y-92320000D03*
X96190000Y-94860000D03*
X134190000Y-94860000D03*
X140540000Y-92320000D03*
D11*
X105000000Y-86000000D03*
D12*
X107540000Y-86000000D03*
X110080000Y-86000000D03*
X112620000Y-86000000D03*
X115160000Y-86000000D03*
X117700000Y-86000000D03*
X120240000Y-86000000D03*
X122780000Y-86000000D03*
D11*
X105000000Y-108800000D03*
D12*
X107540000Y-108800000D03*
X110080000Y-108800000D03*
X112620000Y-108800000D03*
X115160000Y-108800000D03*
X117700000Y-108800000D03*
X120240000Y-108800000D03*
X122780000Y-108800000D03*
D13*
X122000000Y-99500000D02*
X122000000Y-92780000D01*
X122000000Y-92780000D02*
X121540000Y-92320000D01*
X115160000Y-106340000D02*
X122000000Y-99500000D01*
X115160000Y-108800000D02*
X115160000Y-106340000D01*
X146500000Y-98500000D02*
X146500000Y-95500000D01*
X142000000Y-103000000D02*
X146500000Y-98500000D01*
X143320000Y-92320000D02*
X140540000Y-92320000D01*
X123500000Y-103000000D02*
X142000000Y-103000000D01*
X146500000Y-95500000D02*
X143320000Y-92320000D01*
X117700000Y-108800000D02*
X123500000Y-103000000D01*
X124260000Y-88260000D02*
X130860000Y-94860000D01*
X120240000Y-88260000D02*
X115190000Y-93310000D01*
X120240000Y-86000000D02*
X120240000Y-88260000D01*
X115190000Y-93310000D02*
X115190000Y-94860000D01*
X130860000Y-94860000D02*
X134190000Y-94860000D01*
X120240000Y-88260000D02*
X124260000Y-88260000D01*
G04 #@! TA.AperFunction,NonConductor*
G36*
X106687867Y-84728502D02*
G01*
X106734360Y-84782158D01*
X106744464Y-84852432D01*
X106714970Y-84917012D01*
X106695399Y-84935260D01*
X106643207Y-84974447D01*
X106634965Y-84980635D01*
X106578537Y-85039684D01*
X106554283Y-85065064D01*
X106492759Y-85100494D01*
X106421846Y-85097037D01*
X106364060Y-85055791D01*
X106345207Y-85022243D01*
X106303764Y-84911696D01*
X106300615Y-84903295D01*
X106295234Y-84896116D01*
X106294628Y-84895008D01*
X106279459Y-84825651D01*
X106304196Y-84759103D01*
X106360984Y-84716493D01*
X106405148Y-84708500D01*
X106619746Y-84708500D01*
X106687867Y-84728502D01*
G37*
G04 #@! TD.AperFunction*
G04 #@! TA.AperFunction,NonConductor*
G36*
X119387867Y-84728502D02*
G01*
X119434360Y-84782158D01*
X119444464Y-84852432D01*
X119414970Y-84917012D01*
X119395399Y-84935260D01*
X119343207Y-84974447D01*
X119334965Y-84980635D01*
X119331393Y-84984373D01*
X119223729Y-85097037D01*
X119180629Y-85142138D01*
X119073201Y-85299621D01*
X119018293Y-85344621D01*
X118947768Y-85352792D01*
X118884021Y-85321538D01*
X118863324Y-85297054D01*
X118782822Y-85172617D01*
X118782820Y-85172614D01*
X118780014Y-85168277D01*
X118629670Y-85003051D01*
X118625619Y-84999852D01*
X118625615Y-84999848D01*
X118541454Y-84933382D01*
X118500391Y-84875465D01*
X118497159Y-84804542D01*
X118532784Y-84743130D01*
X118595956Y-84710728D01*
X118619546Y-84708500D01*
X119319746Y-84708500D01*
X119387867Y-84728502D01*
G37*
G04 #@! TD.AperFunction*
G04 #@! TA.AperFunction,NonConductor*
G36*
X114307867Y-84728502D02*
G01*
X114354360Y-84782158D01*
X114364464Y-84852432D01*
X114334970Y-84917012D01*
X114315399Y-84935260D01*
X114263207Y-84974447D01*
X114254965Y-84980635D01*
X114251393Y-84984373D01*
X114143729Y-85097037D01*
X114100629Y-85142138D01*
X113993201Y-85299621D01*
X113938293Y-85344621D01*
X113867768Y-85352792D01*
X113804021Y-85321538D01*
X113783324Y-85297054D01*
X113702822Y-85172617D01*
X113702820Y-85172614D01*
X113700014Y-85168277D01*
X113549670Y-85003051D01*
X113545619Y-84999852D01*
X113545615Y-84999848D01*
X113461454Y-84933382D01*
X113420391Y-84875465D01*
X113417159Y-84804542D01*
X113452784Y-84743130D01*
X113515956Y-84710728D01*
X113539546Y-84708500D01*
X114239746Y-84708500D01*
X114307867Y-84728502D01*
G37*
G04 #@! TD.AperFunction*
G04 #@! TA.AperFunction,NonConductor*
G36*
X109227867Y-84728502D02*
G01*
X109274360Y-84782158D01*
X109284464Y-84852432D01*
X109254970Y-84917012D01*
X109235399Y-84935260D01*
X109183207Y-84974447D01*
X109174965Y-84980635D01*
X109171393Y-84984373D01*
X109063729Y-85097037D01*
X109020629Y-85142138D01*
X108913201Y-85299621D01*
X108858293Y-85344621D01*
X108787768Y-85352792D01*
X108724021Y-85321538D01*
X108703324Y-85297054D01*
X108622822Y-85172617D01*
X108622820Y-85172614D01*
X108620014Y-85168277D01*
X108469670Y-85003051D01*
X108465619Y-84999852D01*
X108465615Y-84999848D01*
X108381454Y-84933382D01*
X108340391Y-84875465D01*
X108337159Y-84804542D01*
X108372784Y-84743130D01*
X108435956Y-84710728D01*
X108459546Y-84708500D01*
X109159746Y-84708500D01*
X109227867Y-84728502D01*
G37*
G04 #@! TD.AperFunction*
G04 #@! TA.AperFunction,NonConductor*
G36*
X116847867Y-84728502D02*
G01*
X116894360Y-84782158D01*
X116904464Y-84852432D01*
X116874970Y-84917012D01*
X116855399Y-84935260D01*
X116803207Y-84974447D01*
X116794965Y-84980635D01*
X116791393Y-84984373D01*
X116683729Y-85097037D01*
X116640629Y-85142138D01*
X116533201Y-85299621D01*
X116478293Y-85344621D01*
X116407768Y-85352792D01*
X116344021Y-85321538D01*
X116323324Y-85297054D01*
X116242822Y-85172617D01*
X116242820Y-85172614D01*
X116240014Y-85168277D01*
X116089670Y-85003051D01*
X116085619Y-84999852D01*
X116085615Y-84999848D01*
X116001454Y-84933382D01*
X115960391Y-84875465D01*
X115957159Y-84804542D01*
X115992784Y-84743130D01*
X116055956Y-84710728D01*
X116079546Y-84708500D01*
X116779746Y-84708500D01*
X116847867Y-84728502D01*
G37*
G04 #@! TD.AperFunction*
G04 #@! TA.AperFunction,NonConductor*
G36*
X121927867Y-84728502D02*
G01*
X121974360Y-84782158D01*
X121984464Y-84852432D01*
X121954970Y-84917012D01*
X121935399Y-84935260D01*
X121883207Y-84974447D01*
X121874965Y-84980635D01*
X121871393Y-84984373D01*
X121763729Y-85097037D01*
X121720629Y-85142138D01*
X121613201Y-85299621D01*
X121558293Y-85344621D01*
X121487768Y-85352792D01*
X121424021Y-85321538D01*
X121403324Y-85297054D01*
X121322822Y-85172617D01*
X121322820Y-85172614D01*
X121320014Y-85168277D01*
X121169670Y-85003051D01*
X121165619Y-84999852D01*
X121165615Y-84999848D01*
X121081454Y-84933382D01*
X121040391Y-84875465D01*
X121037159Y-84804542D01*
X121072784Y-84743130D01*
X121135956Y-84710728D01*
X121159546Y-84708500D01*
X121859746Y-84708500D01*
X121927867Y-84728502D01*
G37*
G04 #@! TD.AperFunction*
G04 #@! TA.AperFunction,NonConductor*
G36*
X111767867Y-84728502D02*
G01*
X111814360Y-84782158D01*
X111824464Y-84852432D01*
X111794970Y-84917012D01*
X111775399Y-84935260D01*
X111723207Y-84974447D01*
X111714965Y-84980635D01*
X111711393Y-84984373D01*
X111603729Y-85097037D01*
X111560629Y-85142138D01*
X111453201Y-85299621D01*
X111398293Y-85344621D01*
X111327768Y-85352792D01*
X111264021Y-85321538D01*
X111243324Y-85297054D01*
X111162822Y-85172617D01*
X111162820Y-85172614D01*
X111160014Y-85168277D01*
X111009670Y-85003051D01*
X111005619Y-84999852D01*
X111005615Y-84999848D01*
X110921454Y-84933382D01*
X110880391Y-84875465D01*
X110877159Y-84804542D01*
X110912784Y-84743130D01*
X110975956Y-84710728D01*
X110999546Y-84708500D01*
X111699746Y-84708500D01*
X111767867Y-84728502D01*
G37*
G04 #@! TD.AperFunction*
G04 #@! TA.AperFunction,NonConductor*
G36*
X124520018Y-84710000D02*
G01*
X124534851Y-84712310D01*
X124534855Y-84712310D01*
X124543724Y-84713691D01*
X124562436Y-84711244D01*
X124585366Y-84710353D01*
X124861327Y-84724816D01*
X124874437Y-84726194D01*
X125082220Y-84759103D01*
X125175841Y-84773931D01*
X125188741Y-84776673D01*
X125483501Y-84855654D01*
X125496044Y-84859730D01*
X125780920Y-84969083D01*
X125792969Y-84974447D01*
X126064867Y-85112987D01*
X126076288Y-85119581D01*
X126332216Y-85285782D01*
X126342886Y-85293535D01*
X126580030Y-85485570D01*
X126589831Y-85494395D01*
X126805605Y-85710169D01*
X126814430Y-85719970D01*
X127006465Y-85957114D01*
X127014218Y-85967784D01*
X127180419Y-86223712D01*
X127187013Y-86235133D01*
X127325553Y-86507031D01*
X127330917Y-86519080D01*
X127439016Y-86800688D01*
X127440270Y-86803956D01*
X127444346Y-86816498D01*
X127466162Y-86897918D01*
X127523327Y-87111259D01*
X127526069Y-87124159D01*
X127562434Y-87353757D01*
X127573806Y-87425560D01*
X127575184Y-87438677D01*
X127589262Y-87707299D01*
X127587935Y-87733276D01*
X127587691Y-87734846D01*
X127587691Y-87734850D01*
X127586309Y-87743724D01*
X127587473Y-87752626D01*
X127587473Y-87752628D01*
X127590436Y-87775283D01*
X127591500Y-87791621D01*
X127591500Y-87866377D01*
X127591498Y-87867147D01*
X127591024Y-87944721D01*
X127593491Y-87953352D01*
X127599150Y-87973153D01*
X127602728Y-87989915D01*
X127606920Y-88019187D01*
X127610634Y-88027355D01*
X127610634Y-88027356D01*
X127617548Y-88042562D01*
X127623996Y-88060086D01*
X127631051Y-88084771D01*
X127635843Y-88092365D01*
X127635844Y-88092368D01*
X127646830Y-88109780D01*
X127654969Y-88124863D01*
X127667208Y-88151782D01*
X127673069Y-88158584D01*
X127683970Y-88171235D01*
X127695073Y-88186239D01*
X127708776Y-88207958D01*
X127715501Y-88213897D01*
X127715504Y-88213901D01*
X127730938Y-88227532D01*
X127742982Y-88239724D01*
X127756427Y-88255327D01*
X127756430Y-88255329D01*
X127762287Y-88262127D01*
X127769816Y-88267007D01*
X127769817Y-88267008D01*
X127783835Y-88276094D01*
X127798709Y-88287385D01*
X127811217Y-88298431D01*
X127817951Y-88304378D01*
X127844711Y-88316942D01*
X127859691Y-88325263D01*
X127876983Y-88336471D01*
X127876988Y-88336473D01*
X127884515Y-88341352D01*
X127893108Y-88343922D01*
X127893113Y-88343924D01*
X127909120Y-88348711D01*
X127926564Y-88355372D01*
X127941676Y-88362467D01*
X127941678Y-88362468D01*
X127949800Y-88366281D01*
X127958667Y-88367662D01*
X127958668Y-88367662D01*
X127961353Y-88368080D01*
X127979017Y-88370830D01*
X127995732Y-88374613D01*
X128015466Y-88380515D01*
X128015472Y-88380516D01*
X128024066Y-88383086D01*
X128033037Y-88383141D01*
X128033038Y-88383141D01*
X128043097Y-88383202D01*
X128058506Y-88383296D01*
X128059289Y-88383329D01*
X128060386Y-88383500D01*
X128091377Y-88383500D01*
X128092147Y-88383502D01*
X128165785Y-88383952D01*
X128165786Y-88383952D01*
X128169721Y-88383976D01*
X128171065Y-88383592D01*
X128172410Y-88383500D01*
X145225633Y-88383500D01*
X145245018Y-88385000D01*
X145259851Y-88387310D01*
X145259855Y-88387310D01*
X145268724Y-88388691D01*
X145283981Y-88386696D01*
X145309301Y-88385953D01*
X145476120Y-88397884D01*
X145513850Y-88400583D01*
X145531644Y-88403141D01*
X145756832Y-88452128D01*
X145774080Y-88457192D01*
X145990004Y-88537728D01*
X146006356Y-88545196D01*
X146208618Y-88655639D01*
X146223742Y-88665359D01*
X146408229Y-88803464D01*
X146421815Y-88815237D01*
X146584763Y-88978185D01*
X146596536Y-88991771D01*
X146734641Y-89176258D01*
X146744361Y-89191382D01*
X146854804Y-89393644D01*
X146862272Y-89409996D01*
X146942808Y-89625920D01*
X146947872Y-89643168D01*
X146957015Y-89685194D01*
X146996859Y-89868356D01*
X146999417Y-89886150D01*
X147013539Y-90083601D01*
X147012793Y-90101561D01*
X147012692Y-90109846D01*
X147011309Y-90118724D01*
X147012474Y-90127630D01*
X147015436Y-90150283D01*
X147016500Y-90166621D01*
X147016500Y-94816406D01*
X146996498Y-94884527D01*
X146942842Y-94931020D01*
X146872568Y-94941124D01*
X146807988Y-94911630D01*
X146801405Y-94905501D01*
X145368927Y-93473022D01*
X143823652Y-91927747D01*
X143816112Y-91919461D01*
X143812000Y-91912982D01*
X143762348Y-91866356D01*
X143759507Y-91863602D01*
X143739770Y-91843865D01*
X143736573Y-91841385D01*
X143727551Y-91833680D01*
X143701100Y-91808841D01*
X143695321Y-91803414D01*
X143688375Y-91799595D01*
X143688372Y-91799593D01*
X143677566Y-91793652D01*
X143661047Y-91782801D01*
X143660583Y-91782441D01*
X143645041Y-91770386D01*
X143637772Y-91767241D01*
X143637768Y-91767238D01*
X143604463Y-91752826D01*
X143593813Y-91747609D01*
X143555060Y-91726305D01*
X143535437Y-91721267D01*
X143516734Y-91714863D01*
X143505420Y-91709967D01*
X143505419Y-91709967D01*
X143498145Y-91706819D01*
X143490322Y-91705580D01*
X143490312Y-91705577D01*
X143454476Y-91699901D01*
X143442856Y-91697495D01*
X143407711Y-91688472D01*
X143407710Y-91688472D01*
X143400030Y-91686500D01*
X143379776Y-91686500D01*
X143360065Y-91684949D01*
X143347886Y-91683020D01*
X143340057Y-91681780D01*
X143332165Y-91682526D01*
X143296039Y-91685941D01*
X143284181Y-91686500D01*
X142853123Y-91686500D01*
X142785002Y-91666498D01*
X142738509Y-91612842D01*
X142733810Y-91601001D01*
X142678678Y-91438586D01*
X142678677Y-91438585D01*
X142677352Y-91434680D01*
X142550159Y-91176759D01*
X142545336Y-91166978D01*
X142545333Y-91166973D01*
X142543509Y-91163274D01*
X142375386Y-90911659D01*
X142372672Y-90908565D01*
X142372668Y-90908559D01*
X142178567Y-90687231D01*
X142175858Y-90684142D01*
X142150294Y-90661723D01*
X141951441Y-90487332D01*
X141951435Y-90487328D01*
X141948341Y-90484614D01*
X141944911Y-90482322D01*
X141944910Y-90482321D01*
X141700160Y-90318785D01*
X141696727Y-90316491D01*
X141693028Y-90314667D01*
X141693023Y-90314664D01*
X141510883Y-90224843D01*
X141425320Y-90182648D01*
X141421414Y-90181322D01*
X141142673Y-90086702D01*
X141142670Y-90086701D01*
X141138766Y-90085376D01*
X141134727Y-90084573D01*
X141134721Y-90084571D01*
X140846009Y-90027143D01*
X140846006Y-90027143D01*
X140841966Y-90026339D01*
X140837855Y-90026070D01*
X140837851Y-90026069D01*
X140544119Y-90006817D01*
X140540000Y-90006547D01*
X140535881Y-90006817D01*
X140242149Y-90026069D01*
X140242145Y-90026070D01*
X140238034Y-90026339D01*
X140233994Y-90027143D01*
X140233991Y-90027143D01*
X139945279Y-90084571D01*
X139945273Y-90084573D01*
X139941234Y-90085376D01*
X139937330Y-90086701D01*
X139937327Y-90086702D01*
X139658586Y-90181322D01*
X139654680Y-90182648D01*
X139569117Y-90224843D01*
X139386978Y-90314664D01*
X139386973Y-90314667D01*
X139383274Y-90316491D01*
X139131659Y-90484614D01*
X139128565Y-90487328D01*
X139128559Y-90487332D01*
X138929706Y-90661723D01*
X138904142Y-90684142D01*
X138901433Y-90687231D01*
X138707332Y-90908559D01*
X138707328Y-90908565D01*
X138704614Y-90911659D01*
X138536491Y-91163274D01*
X138534667Y-91166973D01*
X138534664Y-91166978D01*
X138529841Y-91176759D01*
X138402648Y-91434680D01*
X138401323Y-91438585D01*
X138401322Y-91438586D01*
X138307539Y-91714863D01*
X138305376Y-91721234D01*
X138304573Y-91725273D01*
X138304571Y-91725279D01*
X138277057Y-91863602D01*
X138246339Y-92018034D01*
X138226547Y-92320000D01*
X138226817Y-92324119D01*
X138242746Y-92567143D01*
X138246339Y-92621966D01*
X138247143Y-92626006D01*
X138247143Y-92626009D01*
X138300459Y-92894045D01*
X138305376Y-92918766D01*
X138306701Y-92922670D01*
X138306702Y-92922673D01*
X138401322Y-93201414D01*
X138402648Y-93205320D01*
X138465888Y-93333558D01*
X138522601Y-93448559D01*
X138536491Y-93476726D01*
X138704614Y-93728341D01*
X138707328Y-93731435D01*
X138707332Y-93731441D01*
X138901433Y-93952769D01*
X138904142Y-93955858D01*
X138907231Y-93958567D01*
X139128559Y-94152668D01*
X139128565Y-94152672D01*
X139131659Y-94155386D01*
X139135085Y-94157675D01*
X139135090Y-94157679D01*
X139323371Y-94283484D01*
X139383273Y-94323509D01*
X139386972Y-94325333D01*
X139386977Y-94325336D01*
X139526308Y-94394046D01*
X139654680Y-94457352D01*
X139658585Y-94458677D01*
X139658586Y-94458678D01*
X139937327Y-94553298D01*
X139937330Y-94553299D01*
X139941234Y-94554624D01*
X139945273Y-94555427D01*
X139945279Y-94555429D01*
X140233991Y-94612857D01*
X140233994Y-94612857D01*
X140238034Y-94613661D01*
X140242145Y-94613930D01*
X140242149Y-94613931D01*
X140535881Y-94633183D01*
X140540000Y-94633453D01*
X140544119Y-94633183D01*
X140837851Y-94613931D01*
X140837855Y-94613930D01*
X140841966Y-94613661D01*
X140846006Y-94612857D01*
X140846009Y-94612857D01*
X141134721Y-94555429D01*
X141134727Y-94555427D01*
X141138766Y-94554624D01*
X141142670Y-94553299D01*
X141142673Y-94553298D01*
X141421414Y-94458678D01*
X141421415Y-94458677D01*
X141425320Y-94457352D01*
X141553692Y-94394046D01*
X141693023Y-94325336D01*
X141693028Y-94325333D01*
X141696727Y-94323509D01*
X141756629Y-94283484D01*
X141944910Y-94157679D01*
X141944915Y-94157675D01*
X141948341Y-94155386D01*
X141951435Y-94152672D01*
X141951441Y-94152668D01*
X142172769Y-93958567D01*
X142175858Y-93955858D01*
X142178567Y-93952769D01*
X142372668Y-93731441D01*
X142372672Y-93731435D01*
X142375386Y-93728341D01*
X142543509Y-93476726D01*
X142557400Y-93448559D01*
X142614112Y-93333558D01*
X142677352Y-93205320D01*
X142733810Y-93038999D01*
X142774647Y-92980923D01*
X142840400Y-92954144D01*
X142853123Y-92953500D01*
X143005406Y-92953500D01*
X143073527Y-92973502D01*
X143094501Y-92990405D01*
X145829595Y-95725500D01*
X145863621Y-95787812D01*
X145866500Y-95814595D01*
X145866500Y-98185406D01*
X145846498Y-98253527D01*
X145829595Y-98274501D01*
X141774500Y-102329595D01*
X141712188Y-102363621D01*
X141685405Y-102366500D01*
X123578768Y-102366500D01*
X123567585Y-102365973D01*
X123560092Y-102364298D01*
X123552166Y-102364547D01*
X123552165Y-102364547D01*
X123492002Y-102366438D01*
X123488044Y-102366500D01*
X123460144Y-102366500D01*
X123456154Y-102367004D01*
X123444320Y-102367936D01*
X123400111Y-102369326D01*
X123392495Y-102371539D01*
X123392493Y-102371539D01*
X123380652Y-102374979D01*
X123361293Y-102378988D01*
X123359983Y-102379154D01*
X123341203Y-102381526D01*
X123333837Y-102384442D01*
X123333831Y-102384444D01*
X123300098Y-102397800D01*
X123288868Y-102401645D01*
X123254017Y-102411770D01*
X123246407Y-102413981D01*
X123239584Y-102418016D01*
X123228966Y-102424295D01*
X123211213Y-102432992D01*
X123203568Y-102436019D01*
X123192383Y-102440448D01*
X123185968Y-102445109D01*
X123156612Y-102466437D01*
X123146695Y-102472951D01*
X123108638Y-102495458D01*
X123094317Y-102509779D01*
X123079284Y-102522619D01*
X123062893Y-102534528D01*
X123057842Y-102540634D01*
X123034702Y-102568605D01*
X123026712Y-102577384D01*
X118157345Y-107446750D01*
X118095033Y-107480776D01*
X118046154Y-107481702D01*
X117833373Y-107443800D01*
X117833367Y-107443799D01*
X117828284Y-107442894D01*
X117754452Y-107441992D01*
X117610081Y-107440228D01*
X117610079Y-107440228D01*
X117604911Y-107440165D01*
X117384091Y-107473955D01*
X117171756Y-107543357D01*
X117141443Y-107559137D01*
X116997975Y-107633822D01*
X116973607Y-107646507D01*
X116969474Y-107649610D01*
X116969471Y-107649612D01*
X116840370Y-107746544D01*
X116794965Y-107780635D01*
X116791393Y-107784373D01*
X116683729Y-107897037D01*
X116640629Y-107942138D01*
X116533201Y-108099621D01*
X116478293Y-108144621D01*
X116407768Y-108152792D01*
X116344021Y-108121538D01*
X116323324Y-108097054D01*
X116242822Y-107972617D01*
X116242820Y-107972614D01*
X116240014Y-107968277D01*
X116089670Y-107803051D01*
X116085619Y-107799852D01*
X116085615Y-107799848D01*
X115918414Y-107667800D01*
X115918410Y-107667798D01*
X115914359Y-107664598D01*
X115909835Y-107662101D01*
X115909831Y-107662098D01*
X115858608Y-107633822D01*
X115808636Y-107583390D01*
X115793500Y-107523513D01*
X115793500Y-106654594D01*
X115813502Y-106586473D01*
X115830405Y-106565499D01*
X122392253Y-100003652D01*
X122400539Y-99996112D01*
X122407018Y-99992000D01*
X122453644Y-99942348D01*
X122456398Y-99939507D01*
X122476135Y-99919770D01*
X122478615Y-99916573D01*
X122486320Y-99907551D01*
X122516586Y-99875321D01*
X122520405Y-99868375D01*
X122520407Y-99868372D01*
X122526348Y-99857566D01*
X122537199Y-99841047D01*
X122542281Y-99834495D01*
X122549614Y-99825041D01*
X122552759Y-99817772D01*
X122552762Y-99817768D01*
X122567174Y-99784463D01*
X122572391Y-99773813D01*
X122593695Y-99735060D01*
X122598733Y-99715437D01*
X122605137Y-99696734D01*
X122610033Y-99685420D01*
X122610033Y-99685419D01*
X122613181Y-99678145D01*
X122614420Y-99670322D01*
X122614423Y-99670312D01*
X122620099Y-99634476D01*
X122622505Y-99622856D01*
X122631528Y-99587711D01*
X122631528Y-99587710D01*
X122633500Y-99580030D01*
X122633500Y-99559776D01*
X122635051Y-99540065D01*
X122636980Y-99527886D01*
X122638220Y-99520057D01*
X122634059Y-99476038D01*
X122633500Y-99464181D01*
X122633500Y-98133693D01*
X122653502Y-98065572D01*
X122707158Y-98019079D01*
X122777432Y-98008975D01*
X122842012Y-98038469D01*
X122867219Y-98068327D01*
X122938265Y-98185406D01*
X122958104Y-98218100D01*
X123111985Y-98395432D01*
X123116117Y-98398820D01*
X123289416Y-98540917D01*
X123289422Y-98540921D01*
X123293544Y-98544301D01*
X123298180Y-98546940D01*
X123298183Y-98546942D01*
X123409408Y-98610255D01*
X123497590Y-98660451D01*
X123718289Y-98740561D01*
X123723538Y-98741510D01*
X123723541Y-98741511D01*
X123770382Y-98749981D01*
X123949330Y-98782340D01*
X123953469Y-98782535D01*
X123953476Y-98782536D01*
X123972440Y-98783430D01*
X123972449Y-98783430D01*
X123973929Y-98783500D01*
X124138950Y-98783500D01*
X124220299Y-98776597D01*
X124308637Y-98769102D01*
X124308641Y-98769101D01*
X124313948Y-98768651D01*
X124319103Y-98767313D01*
X124319109Y-98767312D01*
X124536035Y-98711009D01*
X124536034Y-98711009D01*
X124541206Y-98709667D01*
X124546072Y-98707475D01*
X124546075Y-98707474D01*
X124750417Y-98615424D01*
X124750420Y-98615423D01*
X124755278Y-98613234D01*
X124950041Y-98482112D01*
X124966402Y-98466505D01*
X125116070Y-98323728D01*
X125119927Y-98320049D01*
X125260078Y-98131679D01*
X125307469Y-98038469D01*
X125364069Y-97927144D01*
X125364069Y-97927143D01*
X125366487Y-97922388D01*
X125436111Y-97698160D01*
X125453202Y-97569216D01*
X125466261Y-97470690D01*
X125466261Y-97470687D01*
X125466961Y-97465407D01*
X125458152Y-97230784D01*
X125440358Y-97145978D01*
X125411035Y-97006226D01*
X125411034Y-97006223D01*
X125409938Y-97000999D01*
X125323698Y-96782623D01*
X125282045Y-96713981D01*
X125204664Y-96586461D01*
X125204662Y-96586458D01*
X125201896Y-96581900D01*
X125048015Y-96404568D01*
X125037938Y-96396306D01*
X124870584Y-96259083D01*
X124870578Y-96259079D01*
X124866456Y-96255699D01*
X124861820Y-96253060D01*
X124861817Y-96253058D01*
X124667053Y-96142192D01*
X124662410Y-96139549D01*
X124441711Y-96059439D01*
X124436462Y-96058490D01*
X124436459Y-96058489D01*
X124355385Y-96043829D01*
X124210670Y-96017660D01*
X124206531Y-96017465D01*
X124206524Y-96017464D01*
X124187560Y-96016570D01*
X124187551Y-96016570D01*
X124186071Y-96016500D01*
X124021050Y-96016500D01*
X123939701Y-96023403D01*
X123851363Y-96030898D01*
X123851359Y-96030899D01*
X123846052Y-96031349D01*
X123840897Y-96032687D01*
X123840891Y-96032688D01*
X123677812Y-96075015D01*
X123618794Y-96090333D01*
X123613928Y-96092525D01*
X123613925Y-96092526D01*
X123409583Y-96184576D01*
X123409580Y-96184577D01*
X123404722Y-96186766D01*
X123209959Y-96317888D01*
X123206102Y-96321567D01*
X123206100Y-96321569D01*
X123135845Y-96388590D01*
X123040073Y-96479951D01*
X122899922Y-96668321D01*
X122897506Y-96673072D01*
X122897504Y-96673076D01*
X122871817Y-96723599D01*
X122823113Y-96775257D01*
X122754213Y-96792383D01*
X122686992Y-96769540D01*
X122642791Y-96713981D01*
X122633500Y-96666494D01*
X122633500Y-94432448D01*
X122653502Y-94364327D01*
X122695862Y-94323936D01*
X122696727Y-94323509D01*
X122757984Y-94282578D01*
X122944910Y-94157679D01*
X122944915Y-94157675D01*
X122948341Y-94155386D01*
X122951435Y-94152672D01*
X122951441Y-94152668D01*
X123172769Y-93958567D01*
X123175858Y-93955858D01*
X123178567Y-93952769D01*
X123372668Y-93731441D01*
X123372672Y-93731435D01*
X123375386Y-93728341D01*
X123543509Y-93476726D01*
X123557400Y-93448559D01*
X123614112Y-93333558D01*
X123677352Y-93205320D01*
X123678678Y-93201414D01*
X123773298Y-92922673D01*
X123773299Y-92922670D01*
X123774624Y-92918766D01*
X123779542Y-92894045D01*
X123832857Y-92626009D01*
X123832857Y-92626006D01*
X123833661Y-92621966D01*
X123837255Y-92567143D01*
X123853183Y-92324119D01*
X123853453Y-92320000D01*
X123833661Y-92018034D01*
X123802943Y-91863602D01*
X123775429Y-91725279D01*
X123775427Y-91725273D01*
X123774624Y-91721234D01*
X123772462Y-91714863D01*
X123678678Y-91438586D01*
X123678677Y-91438585D01*
X123677352Y-91434680D01*
X123550159Y-91176759D01*
X123545336Y-91166978D01*
X123545333Y-91166973D01*
X123543509Y-91163274D01*
X123375386Y-90911659D01*
X123372672Y-90908565D01*
X123372668Y-90908559D01*
X123178567Y-90687231D01*
X123175858Y-90684142D01*
X123150294Y-90661723D01*
X122951441Y-90487332D01*
X122951435Y-90487328D01*
X122948341Y-90484614D01*
X122944911Y-90482322D01*
X122944910Y-90482321D01*
X122700160Y-90318785D01*
X122696727Y-90316491D01*
X122693028Y-90314667D01*
X122693023Y-90314664D01*
X122510883Y-90224843D01*
X122425320Y-90182648D01*
X122421414Y-90181322D01*
X122142673Y-90086702D01*
X122142670Y-90086701D01*
X122138766Y-90085376D01*
X122134727Y-90084573D01*
X122134721Y-90084571D01*
X121846009Y-90027143D01*
X121846006Y-90027143D01*
X121841966Y-90026339D01*
X121837855Y-90026070D01*
X121837851Y-90026069D01*
X121544119Y-90006817D01*
X121540000Y-90006547D01*
X121535881Y-90006817D01*
X121242149Y-90026069D01*
X121242145Y-90026070D01*
X121238034Y-90026339D01*
X121233994Y-90027143D01*
X121233991Y-90027143D01*
X120945279Y-90084571D01*
X120945273Y-90084573D01*
X120941234Y-90085376D01*
X120937330Y-90086701D01*
X120937327Y-90086702D01*
X120658586Y-90181322D01*
X120654680Y-90182648D01*
X120569117Y-90224843D01*
X120386978Y-90314664D01*
X120386973Y-90314667D01*
X120383274Y-90316491D01*
X120131659Y-90484614D01*
X120128565Y-90487328D01*
X120128559Y-90487332D01*
X119929706Y-90661723D01*
X119904142Y-90684142D01*
X119901433Y-90687231D01*
X119707332Y-90908559D01*
X119707328Y-90908565D01*
X119704614Y-90911659D01*
X119536491Y-91163274D01*
X119534667Y-91166973D01*
X119534664Y-91166978D01*
X119529841Y-91176759D01*
X119402648Y-91434680D01*
X119401323Y-91438585D01*
X119401322Y-91438586D01*
X119307539Y-91714863D01*
X119305376Y-91721234D01*
X119304573Y-91725273D01*
X119304571Y-91725279D01*
X119277057Y-91863602D01*
X119246339Y-92018034D01*
X119226547Y-92320000D01*
X119226817Y-92324119D01*
X119242746Y-92567143D01*
X119246339Y-92621966D01*
X119247143Y-92626006D01*
X119247143Y-92626009D01*
X119300459Y-92894045D01*
X119305376Y-92918766D01*
X119306701Y-92922670D01*
X119306702Y-92922673D01*
X119401322Y-93201414D01*
X119402648Y-93205320D01*
X119465888Y-93333558D01*
X119522601Y-93448559D01*
X119536491Y-93476726D01*
X119704614Y-93728341D01*
X119707328Y-93731435D01*
X119707332Y-93731441D01*
X119901433Y-93952769D01*
X119904142Y-93955858D01*
X119907231Y-93958567D01*
X120128559Y-94152668D01*
X120128565Y-94152672D01*
X120131659Y-94155386D01*
X120135085Y-94157675D01*
X120135090Y-94157679D01*
X120323371Y-94283484D01*
X120383273Y-94323509D01*
X120386972Y-94325333D01*
X120386977Y-94325336D01*
X120526308Y-94394046D01*
X120654680Y-94457352D01*
X120658585Y-94458677D01*
X120658586Y-94458678D01*
X120937327Y-94553298D01*
X120937330Y-94553299D01*
X120941234Y-94554624D01*
X120945273Y-94555427D01*
X120945279Y-94555429D01*
X121233991Y-94612857D01*
X121233994Y-94612857D01*
X121238034Y-94613661D01*
X121242143Y-94613930D01*
X121242148Y-94613931D01*
X121248743Y-94614363D01*
X121315410Y-94638779D01*
X121358293Y-94695361D01*
X121366500Y-94740093D01*
X121366500Y-96006894D01*
X121346498Y-96075015D01*
X121292842Y-96121508D01*
X121222568Y-96131612D01*
X121157988Y-96102118D01*
X121130087Y-96067597D01*
X121122184Y-96053221D01*
X120936654Y-95797860D01*
X120720582Y-95567767D01*
X120477375Y-95366568D01*
X120210869Y-95197438D01*
X120207290Y-95195754D01*
X120207283Y-95195750D01*
X119928856Y-95064733D01*
X119928852Y-95064731D01*
X119925266Y-95063044D01*
X119625072Y-94965505D01*
X119315020Y-94906359D01*
X119078838Y-94891500D01*
X118921162Y-94891500D01*
X118684980Y-94906359D01*
X118374928Y-94965505D01*
X118074734Y-95063044D01*
X118071148Y-95064731D01*
X118071144Y-95064733D01*
X117792717Y-95195750D01*
X117792710Y-95195754D01*
X117789131Y-95197438D01*
X117677445Y-95268316D01*
X117609215Y-95287928D01*
X117541209Y-95267537D01*
X117495024Y-95213617D01*
X117484204Y-95153689D01*
X117503183Y-94864119D01*
X117503453Y-94860000D01*
X117492662Y-94695361D01*
X117483931Y-94562149D01*
X117483930Y-94562145D01*
X117483661Y-94558034D01*
X117463634Y-94457352D01*
X117425429Y-94265279D01*
X117425427Y-94265273D01*
X117424624Y-94261234D01*
X117412834Y-94226500D01*
X117328678Y-93978586D01*
X117328677Y-93978585D01*
X117327352Y-93974680D01*
X117264112Y-93846442D01*
X117195336Y-93706978D01*
X117195333Y-93706973D01*
X117193509Y-93703274D01*
X117025386Y-93451659D01*
X117022672Y-93448565D01*
X117022668Y-93448559D01*
X116828567Y-93227231D01*
X116825858Y-93224142D01*
X116822769Y-93221433D01*
X116601441Y-93027332D01*
X116601435Y-93027328D01*
X116598341Y-93024614D01*
X116589888Y-93018966D01*
X116544361Y-92964488D01*
X116535515Y-92894045D01*
X116570797Y-92825107D01*
X120465499Y-88930405D01*
X120527811Y-88896379D01*
X120554594Y-88893500D01*
X123945406Y-88893500D01*
X124013527Y-88913502D01*
X124034501Y-88930405D01*
X130356343Y-95252247D01*
X130363887Y-95260537D01*
X130368000Y-95267018D01*
X130373777Y-95272443D01*
X130417667Y-95313658D01*
X130420509Y-95316413D01*
X130440231Y-95336135D01*
X130443355Y-95338558D01*
X130443359Y-95338562D01*
X130443424Y-95338612D01*
X130452445Y-95346317D01*
X130484679Y-95376586D01*
X130491627Y-95380405D01*
X130491629Y-95380407D01*
X130502432Y-95386346D01*
X130518959Y-95397202D01*
X130528698Y-95404757D01*
X130528700Y-95404758D01*
X130534960Y-95409614D01*
X130575540Y-95427174D01*
X130586188Y-95432391D01*
X130624940Y-95453695D01*
X130632616Y-95455666D01*
X130632619Y-95455667D01*
X130644562Y-95458733D01*
X130663267Y-95465137D01*
X130681855Y-95473181D01*
X130689678Y-95474420D01*
X130689688Y-95474423D01*
X130725524Y-95480099D01*
X130737144Y-95482505D01*
X130772289Y-95491528D01*
X130779970Y-95493500D01*
X130800224Y-95493500D01*
X130819934Y-95495051D01*
X130839943Y-95498220D01*
X130847835Y-95497474D01*
X130883961Y-95494059D01*
X130895819Y-95493500D01*
X131876877Y-95493500D01*
X131944998Y-95513502D01*
X131991491Y-95567158D01*
X131996189Y-95578997D01*
X132052648Y-95745320D01*
X132186491Y-96016726D01*
X132208737Y-96050019D01*
X132213166Y-96056648D01*
X132234380Y-96124401D01*
X132215597Y-96192868D01*
X132178767Y-96231169D01*
X132142332Y-96255699D01*
X132049959Y-96317888D01*
X132046102Y-96321567D01*
X132046100Y-96321569D01*
X131975845Y-96388590D01*
X131880073Y-96479951D01*
X131739922Y-96668321D01*
X131737506Y-96673072D01*
X131737504Y-96673076D01*
X131640683Y-96863509D01*
X131633513Y-96877612D01*
X131563889Y-97101840D01*
X131563188Y-97107129D01*
X131546092Y-97236116D01*
X131533039Y-97334593D01*
X131541848Y-97569216D01*
X131542943Y-97574434D01*
X131567794Y-97692871D01*
X131590062Y-97799001D01*
X131676302Y-98017377D01*
X131679071Y-98021940D01*
X131778265Y-98185406D01*
X131798104Y-98218100D01*
X131951985Y-98395432D01*
X131956117Y-98398820D01*
X132129416Y-98540917D01*
X132129422Y-98540921D01*
X132133544Y-98544301D01*
X132138180Y-98546940D01*
X132138183Y-98546942D01*
X132249408Y-98610255D01*
X132337590Y-98660451D01*
X132558289Y-98740561D01*
X132563538Y-98741510D01*
X132563541Y-98741511D01*
X132610382Y-98749981D01*
X132789330Y-98782340D01*
X132793469Y-98782535D01*
X132793476Y-98782536D01*
X132812440Y-98783430D01*
X132812449Y-98783430D01*
X132813929Y-98783500D01*
X132978950Y-98783500D01*
X133060299Y-98776597D01*
X133148637Y-98769102D01*
X133148641Y-98769101D01*
X133153948Y-98768651D01*
X133159103Y-98767313D01*
X133159109Y-98767312D01*
X133376035Y-98711009D01*
X133376034Y-98711009D01*
X133381206Y-98709667D01*
X133386072Y-98707475D01*
X133386075Y-98707474D01*
X133590417Y-98615424D01*
X133590420Y-98615423D01*
X133595278Y-98613234D01*
X133790041Y-98482112D01*
X133806402Y-98466505D01*
X133956070Y-98323728D01*
X133959927Y-98320049D01*
X134100078Y-98131679D01*
X134147469Y-98038469D01*
X134204069Y-97927144D01*
X134204069Y-97927143D01*
X134206487Y-97922388D01*
X134276111Y-97698160D01*
X134293202Y-97569216D01*
X134306261Y-97470690D01*
X134306261Y-97470687D01*
X134306961Y-97465407D01*
X134300336Y-97288965D01*
X134317768Y-97220143D01*
X134369641Y-97171670D01*
X134418006Y-97158509D01*
X134487851Y-97153931D01*
X134487855Y-97153930D01*
X134491966Y-97153661D01*
X134496006Y-97152857D01*
X134496009Y-97152857D01*
X134784721Y-97095429D01*
X134784727Y-97095427D01*
X134788766Y-97094624D01*
X134792670Y-97093299D01*
X134792673Y-97093298D01*
X135071414Y-96998678D01*
X135071415Y-96998677D01*
X135075320Y-96997352D01*
X135172981Y-96949191D01*
X135342040Y-96865821D01*
X135411982Y-96853631D01*
X135477412Y-96881190D01*
X135517555Y-96939749D01*
X135522774Y-96994617D01*
X135491500Y-97242179D01*
X135491500Y-97557821D01*
X135531060Y-97870975D01*
X135609557Y-98176702D01*
X135611010Y-98180371D01*
X135611010Y-98180372D01*
X135696159Y-98395432D01*
X135725753Y-98470179D01*
X135727659Y-98473647D01*
X135727660Y-98473648D01*
X135874398Y-98740561D01*
X135877816Y-98746779D01*
X136063346Y-99002140D01*
X136279418Y-99232233D01*
X136522625Y-99433432D01*
X136789131Y-99602562D01*
X136792710Y-99604246D01*
X136792717Y-99604250D01*
X137071144Y-99735267D01*
X137071148Y-99735269D01*
X137074734Y-99736956D01*
X137374928Y-99834495D01*
X137684980Y-99893641D01*
X137921162Y-99908500D01*
X138078838Y-99908500D01*
X138315020Y-99893641D01*
X138625072Y-99834495D01*
X138925266Y-99736956D01*
X138928852Y-99735269D01*
X138928856Y-99735267D01*
X139207283Y-99604250D01*
X139207290Y-99604246D01*
X139210869Y-99602562D01*
X139477375Y-99433432D01*
X139720582Y-99232233D01*
X139936654Y-99002140D01*
X140122184Y-98746779D01*
X140125603Y-98740561D01*
X140272340Y-98473648D01*
X140272341Y-98473647D01*
X140274247Y-98470179D01*
X140303842Y-98395432D01*
X140388990Y-98180372D01*
X140388990Y-98180371D01*
X140390443Y-98176702D01*
X140468940Y-97870975D01*
X140508500Y-97557821D01*
X140508500Y-97334593D01*
X141693039Y-97334593D01*
X141701848Y-97569216D01*
X141702943Y-97574434D01*
X141727794Y-97692871D01*
X141750062Y-97799001D01*
X141836302Y-98017377D01*
X141839071Y-98021940D01*
X141938265Y-98185406D01*
X141958104Y-98218100D01*
X142111985Y-98395432D01*
X142116117Y-98398820D01*
X142289416Y-98540917D01*
X142289422Y-98540921D01*
X142293544Y-98544301D01*
X142298180Y-98546940D01*
X142298183Y-98546942D01*
X142409408Y-98610255D01*
X142497590Y-98660451D01*
X142718289Y-98740561D01*
X142723538Y-98741510D01*
X142723541Y-98741511D01*
X142770382Y-98749981D01*
X142949330Y-98782340D01*
X142953469Y-98782535D01*
X142953476Y-98782536D01*
X142972440Y-98783430D01*
X142972449Y-98783430D01*
X142973929Y-98783500D01*
X143138950Y-98783500D01*
X143220299Y-98776597D01*
X143308637Y-98769102D01*
X143308641Y-98769101D01*
X143313948Y-98768651D01*
X143319103Y-98767313D01*
X143319109Y-98767312D01*
X143536035Y-98711009D01*
X143536034Y-98711009D01*
X143541206Y-98709667D01*
X143546072Y-98707475D01*
X143546075Y-98707474D01*
X143750417Y-98615424D01*
X143750420Y-98615423D01*
X143755278Y-98613234D01*
X143950041Y-98482112D01*
X143966402Y-98466505D01*
X144116070Y-98323728D01*
X144119927Y-98320049D01*
X144260078Y-98131679D01*
X144307469Y-98038469D01*
X144364069Y-97927144D01*
X144364069Y-97927143D01*
X144366487Y-97922388D01*
X144436111Y-97698160D01*
X144453202Y-97569216D01*
X144466261Y-97470690D01*
X144466261Y-97470687D01*
X144466961Y-97465407D01*
X144458152Y-97230784D01*
X144440358Y-97145978D01*
X144411035Y-97006226D01*
X144411034Y-97006223D01*
X144409938Y-97000999D01*
X144323698Y-96782623D01*
X144282045Y-96713981D01*
X144204664Y-96586461D01*
X144204662Y-96586458D01*
X144201896Y-96581900D01*
X144048015Y-96404568D01*
X144037938Y-96396306D01*
X143870584Y-96259083D01*
X143870578Y-96259079D01*
X143866456Y-96255699D01*
X143861820Y-96253060D01*
X143861817Y-96253058D01*
X143667053Y-96142192D01*
X143662410Y-96139549D01*
X143441711Y-96059439D01*
X143436462Y-96058490D01*
X143436459Y-96058489D01*
X143355385Y-96043829D01*
X143210670Y-96017660D01*
X143206531Y-96017465D01*
X143206524Y-96017464D01*
X143187560Y-96016570D01*
X143187551Y-96016570D01*
X143186071Y-96016500D01*
X143021050Y-96016500D01*
X142939701Y-96023403D01*
X142851363Y-96030898D01*
X142851359Y-96030899D01*
X142846052Y-96031349D01*
X142840897Y-96032687D01*
X142840891Y-96032688D01*
X142677812Y-96075015D01*
X142618794Y-96090333D01*
X142613928Y-96092525D01*
X142613925Y-96092526D01*
X142409583Y-96184576D01*
X142409580Y-96184577D01*
X142404722Y-96186766D01*
X142209959Y-96317888D01*
X142206102Y-96321567D01*
X142206100Y-96321569D01*
X142135845Y-96388590D01*
X142040073Y-96479951D01*
X141899922Y-96668321D01*
X141897506Y-96673072D01*
X141897504Y-96673076D01*
X141800683Y-96863509D01*
X141793513Y-96877612D01*
X141723889Y-97101840D01*
X141723188Y-97107129D01*
X141706092Y-97236116D01*
X141693039Y-97334593D01*
X140508500Y-97334593D01*
X140508500Y-97242179D01*
X140468940Y-96929025D01*
X140390443Y-96623298D01*
X140332231Y-96476272D01*
X140275702Y-96333495D01*
X140275700Y-96333490D01*
X140274247Y-96329821D01*
X140272340Y-96326352D01*
X140124093Y-96056693D01*
X140124089Y-96056687D01*
X140122184Y-96053221D01*
X139936654Y-95797860D01*
X139720582Y-95567767D01*
X139477375Y-95366568D01*
X139210869Y-95197438D01*
X139207290Y-95195754D01*
X139207283Y-95195750D01*
X138928856Y-95064733D01*
X138928852Y-95064731D01*
X138925266Y-95063044D01*
X138625072Y-94965505D01*
X138315020Y-94906359D01*
X138078838Y-94891500D01*
X137921162Y-94891500D01*
X137684980Y-94906359D01*
X137374928Y-94965505D01*
X137074734Y-95063044D01*
X137071148Y-95064731D01*
X137071144Y-95064733D01*
X136792717Y-95195750D01*
X136792710Y-95195754D01*
X136789131Y-95197438D01*
X136677445Y-95268316D01*
X136609215Y-95287928D01*
X136541209Y-95267537D01*
X136495024Y-95213617D01*
X136484204Y-95153689D01*
X136503183Y-94864119D01*
X136503453Y-94860000D01*
X136492662Y-94695361D01*
X136483931Y-94562149D01*
X136483930Y-94562145D01*
X136483661Y-94558034D01*
X136463634Y-94457352D01*
X136425429Y-94265279D01*
X136425427Y-94265273D01*
X136424624Y-94261234D01*
X136412834Y-94226500D01*
X136328678Y-93978586D01*
X136328677Y-93978585D01*
X136327352Y-93974680D01*
X136264112Y-93846442D01*
X136195336Y-93706978D01*
X136195333Y-93706973D01*
X136193509Y-93703274D01*
X136025386Y-93451659D01*
X136022672Y-93448565D01*
X136022668Y-93448559D01*
X135828567Y-93227231D01*
X135825858Y-93224142D01*
X135822769Y-93221433D01*
X135601441Y-93027332D01*
X135601435Y-93027328D01*
X135598341Y-93024614D01*
X135594915Y-93022325D01*
X135594910Y-93022321D01*
X135350160Y-92858785D01*
X135346727Y-92856491D01*
X135343028Y-92854667D01*
X135343023Y-92854664D01*
X135203692Y-92785954D01*
X135075320Y-92722648D01*
X135071414Y-92721322D01*
X134792673Y-92626702D01*
X134792670Y-92626701D01*
X134788766Y-92625376D01*
X134784727Y-92624573D01*
X134784721Y-92624571D01*
X134496009Y-92567143D01*
X134496006Y-92567143D01*
X134491966Y-92566339D01*
X134487855Y-92566070D01*
X134487851Y-92566069D01*
X134194119Y-92546817D01*
X134190000Y-92546547D01*
X134185881Y-92546817D01*
X133892149Y-92566069D01*
X133892145Y-92566070D01*
X133888034Y-92566339D01*
X133883994Y-92567143D01*
X133883991Y-92567143D01*
X133595279Y-92624571D01*
X133595273Y-92624573D01*
X133591234Y-92625376D01*
X133587330Y-92626701D01*
X133587327Y-92626702D01*
X133308586Y-92721322D01*
X133304680Y-92722648D01*
X133176442Y-92785888D01*
X133036978Y-92854664D01*
X133036973Y-92854667D01*
X133033274Y-92856491D01*
X132781659Y-93024614D01*
X132778565Y-93027328D01*
X132778559Y-93027332D01*
X132557231Y-93221433D01*
X132554142Y-93224142D01*
X132551433Y-93227231D01*
X132357332Y-93448559D01*
X132357328Y-93448565D01*
X132354614Y-93451659D01*
X132186491Y-93703274D01*
X132184667Y-93706973D01*
X132184664Y-93706978D01*
X132115888Y-93846442D01*
X132052648Y-93974680D01*
X132051323Y-93978585D01*
X132051322Y-93978586D01*
X131996190Y-94141001D01*
X131955353Y-94199077D01*
X131889600Y-94225856D01*
X131876877Y-94226500D01*
X131174594Y-94226500D01*
X131106473Y-94206498D01*
X131085499Y-94189595D01*
X124763652Y-87867747D01*
X124756112Y-87859461D01*
X124752000Y-87852982D01*
X124702348Y-87806356D01*
X124699507Y-87803602D01*
X124679770Y-87783865D01*
X124676573Y-87781385D01*
X124667551Y-87773680D01*
X124655701Y-87762552D01*
X124635321Y-87743414D01*
X124628375Y-87739595D01*
X124628372Y-87739593D01*
X124617566Y-87733652D01*
X124601047Y-87722801D01*
X124600583Y-87722441D01*
X124585041Y-87710386D01*
X124577772Y-87707241D01*
X124577768Y-87707238D01*
X124544463Y-87692826D01*
X124533813Y-87687609D01*
X124495060Y-87666305D01*
X124475437Y-87661267D01*
X124456734Y-87654863D01*
X124445420Y-87649967D01*
X124445419Y-87649967D01*
X124438145Y-87646819D01*
X124430322Y-87645580D01*
X124430312Y-87645577D01*
X124394476Y-87639901D01*
X124382856Y-87637495D01*
X124347711Y-87628472D01*
X124347710Y-87628472D01*
X124340030Y-87626500D01*
X124319776Y-87626500D01*
X124300065Y-87624949D01*
X124287886Y-87623020D01*
X124280057Y-87621780D01*
X124272165Y-87622526D01*
X124236039Y-87625941D01*
X124224181Y-87626500D01*
X120999500Y-87626500D01*
X120931379Y-87606498D01*
X120884886Y-87552842D01*
X120873500Y-87500500D01*
X120873500Y-87280427D01*
X120893502Y-87212306D01*
X120934618Y-87172550D01*
X120937994Y-87170896D01*
X121119860Y-87041173D01*
X121278096Y-86883489D01*
X121408453Y-86702077D01*
X121409776Y-86703028D01*
X121456645Y-86659857D01*
X121526580Y-86647625D01*
X121592026Y-86675144D01*
X121619875Y-86706994D01*
X121679987Y-86805088D01*
X121826250Y-86973938D01*
X121998126Y-87116632D01*
X122191000Y-87229338D01*
X122399692Y-87309030D01*
X122404760Y-87310061D01*
X122404763Y-87310062D01*
X122512017Y-87331883D01*
X122618597Y-87353567D01*
X122623772Y-87353757D01*
X122623774Y-87353757D01*
X122836673Y-87361564D01*
X122836677Y-87361564D01*
X122841837Y-87361753D01*
X122846957Y-87361097D01*
X122846959Y-87361097D01*
X123058288Y-87334025D01*
X123058289Y-87334025D01*
X123063416Y-87333368D01*
X123068366Y-87331883D01*
X123272429Y-87270661D01*
X123272434Y-87270659D01*
X123277384Y-87269174D01*
X123477994Y-87170896D01*
X123659860Y-87041173D01*
X123818096Y-86883489D01*
X123948453Y-86702077D01*
X123969320Y-86659857D01*
X124045136Y-86506453D01*
X124045137Y-86506451D01*
X124047430Y-86501811D01*
X124112370Y-86288069D01*
X124141529Y-86066590D01*
X124143156Y-86000000D01*
X124124852Y-85777361D01*
X124070431Y-85560702D01*
X123981354Y-85355840D01*
X123860014Y-85168277D01*
X123709670Y-85003051D01*
X123705619Y-84999852D01*
X123705615Y-84999848D01*
X123621454Y-84933382D01*
X123580391Y-84875465D01*
X123577159Y-84804542D01*
X123612784Y-84743130D01*
X123675956Y-84710728D01*
X123699546Y-84708500D01*
X124500633Y-84708500D01*
X124520018Y-84710000D01*
G37*
G04 #@! TD.AperFunction*
G04 #@! TA.AperFunction,NonConductor*
G36*
X116512026Y-109475144D02*
G01*
X116539875Y-109506994D01*
X116599987Y-109605088D01*
X116746250Y-109773938D01*
X116799992Y-109818555D01*
X116839628Y-109877458D01*
X116841126Y-109948439D01*
X116804012Y-110008962D01*
X116740068Y-110039811D01*
X116719508Y-110041500D01*
X116143776Y-110041500D01*
X116075655Y-110021498D01*
X116029162Y-109967842D01*
X116019058Y-109897568D01*
X116048552Y-109832988D01*
X116054836Y-109826249D01*
X116105710Y-109775553D01*
X116198096Y-109683489D01*
X116236231Y-109630419D01*
X116328453Y-109502077D01*
X116329776Y-109503028D01*
X116376645Y-109459857D01*
X116446580Y-109447625D01*
X116512026Y-109475144D01*
G37*
G04 #@! TD.AperFunction*
G04 #@! TA.AperFunction,NonConductor*
G36*
X113972026Y-109475144D02*
G01*
X113999875Y-109506994D01*
X114059987Y-109605088D01*
X114206250Y-109773938D01*
X114259992Y-109818555D01*
X114299628Y-109877458D01*
X114301126Y-109948439D01*
X114264012Y-110008962D01*
X114200068Y-110039811D01*
X114179508Y-110041500D01*
X113603776Y-110041500D01*
X113535655Y-110021498D01*
X113489162Y-109967842D01*
X113479058Y-109897568D01*
X113508552Y-109832988D01*
X113514836Y-109826249D01*
X113565710Y-109775553D01*
X113658096Y-109683489D01*
X113696231Y-109630419D01*
X113788453Y-109502077D01*
X113789776Y-109503028D01*
X113836645Y-109459857D01*
X113906580Y-109447625D01*
X113972026Y-109475144D01*
G37*
G04 #@! TD.AperFunction*
G04 #@! TA.AperFunction,NonConductor*
G36*
X111432026Y-109475144D02*
G01*
X111459875Y-109506994D01*
X111519987Y-109605088D01*
X111666250Y-109773938D01*
X111719992Y-109818555D01*
X111759628Y-109877458D01*
X111761126Y-109948439D01*
X111724012Y-110008962D01*
X111660068Y-110039811D01*
X111639508Y-110041500D01*
X111063776Y-110041500D01*
X110995655Y-110021498D01*
X110949162Y-109967842D01*
X110939058Y-109897568D01*
X110968552Y-109832988D01*
X110974836Y-109826249D01*
X111025710Y-109775553D01*
X111118096Y-109683489D01*
X111156231Y-109630419D01*
X111248453Y-109502077D01*
X111249776Y-109503028D01*
X111296645Y-109459857D01*
X111366580Y-109447625D01*
X111432026Y-109475144D01*
G37*
G04 #@! TD.AperFunction*
G04 #@! TA.AperFunction,NonConductor*
G36*
X108892026Y-109475144D02*
G01*
X108919875Y-109506994D01*
X108979987Y-109605088D01*
X109126250Y-109773938D01*
X109179992Y-109818555D01*
X109219628Y-109877458D01*
X109221126Y-109948439D01*
X109184012Y-110008962D01*
X109120068Y-110039811D01*
X109099508Y-110041500D01*
X108523776Y-110041500D01*
X108455655Y-110021498D01*
X108409162Y-109967842D01*
X108399058Y-109897568D01*
X108428552Y-109832988D01*
X108434836Y-109826249D01*
X108485710Y-109775553D01*
X108578096Y-109683489D01*
X108616231Y-109630419D01*
X108708453Y-109502077D01*
X108709776Y-109503028D01*
X108756645Y-109459857D01*
X108826580Y-109447625D01*
X108892026Y-109475144D01*
G37*
G04 #@! TD.AperFunction*
G04 #@! TA.AperFunction,NonConductor*
G36*
X119052026Y-109475144D02*
G01*
X119079875Y-109506994D01*
X119139987Y-109605088D01*
X119286250Y-109773938D01*
X119339992Y-109818555D01*
X119379628Y-109877458D01*
X119381126Y-109948439D01*
X119344012Y-110008962D01*
X119280068Y-110039811D01*
X119259508Y-110041500D01*
X118683776Y-110041500D01*
X118615655Y-110021498D01*
X118569162Y-109967842D01*
X118559058Y-109897568D01*
X118588552Y-109832988D01*
X118594836Y-109826249D01*
X118645710Y-109775553D01*
X118738096Y-109683489D01*
X118776231Y-109630419D01*
X118868453Y-109502077D01*
X118869776Y-109503028D01*
X118916645Y-109459857D01*
X118986580Y-109447625D01*
X119052026Y-109475144D01*
G37*
G04 #@! TD.AperFunction*
G04 #@! TA.AperFunction,NonConductor*
G36*
X103662973Y-84728502D02*
G01*
X103709466Y-84782158D01*
X103719570Y-84852432D01*
X103705372Y-84895008D01*
X103704766Y-84896116D01*
X103699385Y-84903295D01*
X103648255Y-85039684D01*
X103641500Y-85101866D01*
X103641500Y-86898134D01*
X103648255Y-86960316D01*
X103699385Y-87096705D01*
X103786739Y-87213261D01*
X103903295Y-87300615D01*
X104039684Y-87351745D01*
X104101866Y-87358500D01*
X105898134Y-87358500D01*
X105960316Y-87351745D01*
X106096705Y-87300615D01*
X106213261Y-87213261D01*
X106300615Y-87096705D01*
X106335573Y-87003456D01*
X106344598Y-86979382D01*
X106387240Y-86922618D01*
X106453802Y-86897918D01*
X106523150Y-86913126D01*
X106557817Y-86941114D01*
X106586250Y-86973938D01*
X106758126Y-87116632D01*
X106951000Y-87229338D01*
X107159692Y-87309030D01*
X107164760Y-87310061D01*
X107164763Y-87310062D01*
X107272017Y-87331883D01*
X107378597Y-87353567D01*
X107383772Y-87353757D01*
X107383774Y-87353757D01*
X107596673Y-87361564D01*
X107596677Y-87361564D01*
X107601837Y-87361753D01*
X107606957Y-87361097D01*
X107606959Y-87361097D01*
X107818288Y-87334025D01*
X107818289Y-87334025D01*
X107823416Y-87333368D01*
X107828366Y-87331883D01*
X108032429Y-87270661D01*
X108032434Y-87270659D01*
X108037384Y-87269174D01*
X108237994Y-87170896D01*
X108419860Y-87041173D01*
X108578096Y-86883489D01*
X108708453Y-86702077D01*
X108709776Y-86703028D01*
X108756645Y-86659857D01*
X108826580Y-86647625D01*
X108892026Y-86675144D01*
X108919875Y-86706994D01*
X108979987Y-86805088D01*
X109126250Y-86973938D01*
X109298126Y-87116632D01*
X109491000Y-87229338D01*
X109699692Y-87309030D01*
X109704760Y-87310061D01*
X109704763Y-87310062D01*
X109812017Y-87331883D01*
X109918597Y-87353567D01*
X109923772Y-87353757D01*
X109923774Y-87353757D01*
X110136673Y-87361564D01*
X110136677Y-87361564D01*
X110141837Y-87361753D01*
X110146957Y-87361097D01*
X110146959Y-87361097D01*
X110358288Y-87334025D01*
X110358289Y-87334025D01*
X110363416Y-87333368D01*
X110368366Y-87331883D01*
X110572429Y-87270661D01*
X110572434Y-87270659D01*
X110577384Y-87269174D01*
X110777994Y-87170896D01*
X110959860Y-87041173D01*
X111118096Y-86883489D01*
X111248453Y-86702077D01*
X111249776Y-86703028D01*
X111296645Y-86659857D01*
X111366580Y-86647625D01*
X111432026Y-86675144D01*
X111459875Y-86706994D01*
X111519987Y-86805088D01*
X111666250Y-86973938D01*
X111838126Y-87116632D01*
X112031000Y-87229338D01*
X112239692Y-87309030D01*
X112244760Y-87310061D01*
X112244763Y-87310062D01*
X112352017Y-87331883D01*
X112458597Y-87353567D01*
X112463772Y-87353757D01*
X112463774Y-87353757D01*
X112676673Y-87361564D01*
X112676677Y-87361564D01*
X112681837Y-87361753D01*
X112686957Y-87361097D01*
X112686959Y-87361097D01*
X112898288Y-87334025D01*
X112898289Y-87334025D01*
X112903416Y-87333368D01*
X112908366Y-87331883D01*
X113112429Y-87270661D01*
X113112434Y-87270659D01*
X113117384Y-87269174D01*
X113317994Y-87170896D01*
X113499860Y-87041173D01*
X113658096Y-86883489D01*
X113788453Y-86702077D01*
X113789776Y-86703028D01*
X113836645Y-86659857D01*
X113906580Y-86647625D01*
X113972026Y-86675144D01*
X113999875Y-86706994D01*
X114059987Y-86805088D01*
X114206250Y-86973938D01*
X114378126Y-87116632D01*
X114571000Y-87229338D01*
X114779692Y-87309030D01*
X114784760Y-87310061D01*
X114784763Y-87310062D01*
X114892017Y-87331883D01*
X114998597Y-87353567D01*
X115003772Y-87353757D01*
X115003774Y-87353757D01*
X115216673Y-87361564D01*
X115216677Y-87361564D01*
X115221837Y-87361753D01*
X115226957Y-87361097D01*
X115226959Y-87361097D01*
X115438288Y-87334025D01*
X115438289Y-87334025D01*
X115443416Y-87333368D01*
X115448366Y-87331883D01*
X115652429Y-87270661D01*
X115652434Y-87270659D01*
X115657384Y-87269174D01*
X115857994Y-87170896D01*
X116039860Y-87041173D01*
X116198096Y-86883489D01*
X116328453Y-86702077D01*
X116329776Y-86703028D01*
X116376645Y-86659857D01*
X116446580Y-86647625D01*
X116512026Y-86675144D01*
X116539875Y-86706994D01*
X116599987Y-86805088D01*
X116746250Y-86973938D01*
X116918126Y-87116632D01*
X117111000Y-87229338D01*
X117319692Y-87309030D01*
X117324760Y-87310061D01*
X117324763Y-87310062D01*
X117432017Y-87331883D01*
X117538597Y-87353567D01*
X117543772Y-87353757D01*
X117543774Y-87353757D01*
X117756673Y-87361564D01*
X117756677Y-87361564D01*
X117761837Y-87361753D01*
X117766957Y-87361097D01*
X117766959Y-87361097D01*
X117978288Y-87334025D01*
X117978289Y-87334025D01*
X117983416Y-87333368D01*
X117988366Y-87331883D01*
X118192429Y-87270661D01*
X118192434Y-87270659D01*
X118197384Y-87269174D01*
X118397994Y-87170896D01*
X118579860Y-87041173D01*
X118738096Y-86883489D01*
X118868453Y-86702077D01*
X118869776Y-86703028D01*
X118916645Y-86659857D01*
X118986580Y-86647625D01*
X119052026Y-86675144D01*
X119079875Y-86706994D01*
X119139987Y-86805088D01*
X119286250Y-86973938D01*
X119458126Y-87116632D01*
X119462593Y-87119242D01*
X119544070Y-87166853D01*
X119592794Y-87218491D01*
X119606500Y-87275641D01*
X119606500Y-87945405D01*
X119586498Y-88013526D01*
X119569595Y-88034500D01*
X115081791Y-92522304D01*
X115019479Y-92556330D01*
X115000941Y-92558938D01*
X114943689Y-92562691D01*
X114892149Y-92566069D01*
X114892145Y-92566070D01*
X114888034Y-92566339D01*
X114883994Y-92567143D01*
X114883991Y-92567143D01*
X114595279Y-92624571D01*
X114595273Y-92624573D01*
X114591234Y-92625376D01*
X114587330Y-92626701D01*
X114587327Y-92626702D01*
X114308586Y-92721322D01*
X114304680Y-92722648D01*
X114176442Y-92785888D01*
X114036978Y-92854664D01*
X114036973Y-92854667D01*
X114033274Y-92856491D01*
X113781659Y-93024614D01*
X113778565Y-93027328D01*
X113778559Y-93027332D01*
X113557231Y-93221433D01*
X113554142Y-93224142D01*
X113551433Y-93227231D01*
X113357332Y-93448559D01*
X113357328Y-93448565D01*
X113354614Y-93451659D01*
X113186491Y-93703274D01*
X113184667Y-93706973D01*
X113184664Y-93706978D01*
X113115888Y-93846442D01*
X113052648Y-93974680D01*
X113051323Y-93978585D01*
X113051322Y-93978586D01*
X112967167Y-94226500D01*
X112955376Y-94261234D01*
X112954573Y-94265273D01*
X112954571Y-94265279D01*
X112916366Y-94457352D01*
X112896339Y-94558034D01*
X112896070Y-94562145D01*
X112896069Y-94562149D01*
X112887338Y-94695361D01*
X112876547Y-94860000D01*
X112876817Y-94864119D01*
X112892844Y-95108638D01*
X112896339Y-95161966D01*
X112897143Y-95166006D01*
X112897143Y-95166009D01*
X112950130Y-95432391D01*
X112955376Y-95458766D01*
X112956701Y-95462670D01*
X112956702Y-95462673D01*
X113045920Y-95725500D01*
X113052648Y-95745320D01*
X113186491Y-96016726D01*
X113208737Y-96050019D01*
X113213166Y-96056648D01*
X113234380Y-96124401D01*
X113215597Y-96192868D01*
X113178767Y-96231169D01*
X113142332Y-96255699D01*
X113049959Y-96317888D01*
X113046102Y-96321567D01*
X113046100Y-96321569D01*
X112975845Y-96388590D01*
X112880073Y-96479951D01*
X112739922Y-96668321D01*
X112737506Y-96673072D01*
X112737504Y-96673076D01*
X112640683Y-96863509D01*
X112633513Y-96877612D01*
X112563889Y-97101840D01*
X112563188Y-97107129D01*
X112546092Y-97236116D01*
X112533039Y-97334593D01*
X112541848Y-97569216D01*
X112542943Y-97574434D01*
X112567794Y-97692871D01*
X112590062Y-97799001D01*
X112676302Y-98017377D01*
X112679071Y-98021940D01*
X112778265Y-98185406D01*
X112798104Y-98218100D01*
X112951985Y-98395432D01*
X112956117Y-98398820D01*
X113129416Y-98540917D01*
X113129422Y-98540921D01*
X113133544Y-98544301D01*
X113138180Y-98546940D01*
X113138183Y-98546942D01*
X113249408Y-98610255D01*
X113337590Y-98660451D01*
X113558289Y-98740561D01*
X113563538Y-98741510D01*
X113563541Y-98741511D01*
X113610382Y-98749981D01*
X113789330Y-98782340D01*
X113793469Y-98782535D01*
X113793476Y-98782536D01*
X113812440Y-98783430D01*
X113812449Y-98783430D01*
X113813929Y-98783500D01*
X113978950Y-98783500D01*
X114060299Y-98776597D01*
X114148637Y-98769102D01*
X114148641Y-98769101D01*
X114153948Y-98768651D01*
X114159103Y-98767313D01*
X114159109Y-98767312D01*
X114376035Y-98711009D01*
X114376034Y-98711009D01*
X114381206Y-98709667D01*
X114386072Y-98707475D01*
X114386075Y-98707474D01*
X114590417Y-98615424D01*
X114590420Y-98615423D01*
X114595278Y-98613234D01*
X114790041Y-98482112D01*
X114806402Y-98466505D01*
X114956070Y-98323728D01*
X114959927Y-98320049D01*
X115100078Y-98131679D01*
X115147469Y-98038469D01*
X115204069Y-97927144D01*
X115204069Y-97927143D01*
X115206487Y-97922388D01*
X115276111Y-97698160D01*
X115293202Y-97569216D01*
X115306261Y-97470690D01*
X115306261Y-97470687D01*
X115306961Y-97465407D01*
X115300336Y-97288965D01*
X115317768Y-97220143D01*
X115369641Y-97171670D01*
X115418006Y-97158509D01*
X115487851Y-97153931D01*
X115487855Y-97153930D01*
X115491966Y-97153661D01*
X115496006Y-97152857D01*
X115496009Y-97152857D01*
X115784721Y-97095429D01*
X115784727Y-97095427D01*
X115788766Y-97094624D01*
X115792670Y-97093299D01*
X115792673Y-97093298D01*
X116071414Y-96998678D01*
X116071415Y-96998677D01*
X116075320Y-96997352D01*
X116172981Y-96949191D01*
X116342040Y-96865821D01*
X116411982Y-96853631D01*
X116477412Y-96881190D01*
X116517555Y-96939749D01*
X116522774Y-96994617D01*
X116491500Y-97242179D01*
X116491500Y-97557821D01*
X116531060Y-97870975D01*
X116609557Y-98176702D01*
X116611010Y-98180371D01*
X116611010Y-98180372D01*
X116696159Y-98395432D01*
X116725753Y-98470179D01*
X116727659Y-98473647D01*
X116727660Y-98473648D01*
X116874398Y-98740561D01*
X116877816Y-98746779D01*
X117063346Y-99002140D01*
X117279418Y-99232233D01*
X117522625Y-99433432D01*
X117789131Y-99602562D01*
X117792710Y-99604246D01*
X117792717Y-99604250D01*
X118071144Y-99735267D01*
X118071148Y-99735269D01*
X118074734Y-99736956D01*
X118374928Y-99834495D01*
X118684980Y-99893641D01*
X118921162Y-99908500D01*
X119078838Y-99908500D01*
X119315020Y-99893641D01*
X119625072Y-99834495D01*
X119925266Y-99736956D01*
X119928852Y-99735269D01*
X119928856Y-99735267D01*
X120207283Y-99604250D01*
X120207290Y-99604246D01*
X120210869Y-99602562D01*
X120477375Y-99433432D01*
X120720582Y-99232233D01*
X120936654Y-99002140D01*
X121122184Y-98746779D01*
X121130086Y-98732405D01*
X121180430Y-98682347D01*
X121249846Y-98667453D01*
X121316296Y-98692453D01*
X121358681Y-98749410D01*
X121366500Y-98793106D01*
X121366500Y-99185406D01*
X121346498Y-99253527D01*
X121329595Y-99274501D01*
X118035490Y-102568605D01*
X114767747Y-105836348D01*
X114759461Y-105843888D01*
X114752982Y-105848000D01*
X114747557Y-105853777D01*
X114706357Y-105897651D01*
X114703602Y-105900493D01*
X114683865Y-105920230D01*
X114681385Y-105923427D01*
X114673682Y-105932447D01*
X114643414Y-105964679D01*
X114639595Y-105971625D01*
X114639593Y-105971628D01*
X114633652Y-105982434D01*
X114622801Y-105998953D01*
X114610386Y-106014959D01*
X114607241Y-106022228D01*
X114607238Y-106022232D01*
X114592826Y-106055537D01*
X114587609Y-106066187D01*
X114566305Y-106104940D01*
X114564334Y-106112615D01*
X114564334Y-106112616D01*
X114561267Y-106124562D01*
X114554863Y-106143266D01*
X114546819Y-106161855D01*
X114545580Y-106169678D01*
X114545577Y-106169688D01*
X114539901Y-106205524D01*
X114537495Y-106217144D01*
X114526500Y-106259970D01*
X114526500Y-106280224D01*
X114524949Y-106299934D01*
X114521780Y-106319943D01*
X114522526Y-106327835D01*
X114525941Y-106363961D01*
X114526500Y-106375819D01*
X114526500Y-107521692D01*
X114506498Y-107589813D01*
X114458683Y-107633453D01*
X114433607Y-107646507D01*
X114429474Y-107649610D01*
X114429471Y-107649612D01*
X114300370Y-107746544D01*
X114254965Y-107780635D01*
X114251393Y-107784373D01*
X114143729Y-107897037D01*
X114100629Y-107942138D01*
X113993201Y-108099621D01*
X113938293Y-108144621D01*
X113867768Y-108152792D01*
X113804021Y-108121538D01*
X113783324Y-108097054D01*
X113702822Y-107972617D01*
X113702820Y-107972614D01*
X113700014Y-107968277D01*
X113549670Y-107803051D01*
X113545619Y-107799852D01*
X113545615Y-107799848D01*
X113378414Y-107667800D01*
X113378410Y-107667798D01*
X113374359Y-107664598D01*
X113369831Y-107662098D01*
X113315965Y-107632363D01*
X113178789Y-107556638D01*
X113173920Y-107554914D01*
X113173916Y-107554912D01*
X112973087Y-107483795D01*
X112973083Y-107483794D01*
X112968212Y-107482069D01*
X112963119Y-107481162D01*
X112963116Y-107481161D01*
X112753373Y-107443800D01*
X112753367Y-107443799D01*
X112748284Y-107442894D01*
X112674452Y-107441992D01*
X112530081Y-107440228D01*
X112530079Y-107440228D01*
X112524911Y-107440165D01*
X112304091Y-107473955D01*
X112091756Y-107543357D01*
X112061443Y-107559137D01*
X111917975Y-107633822D01*
X111893607Y-107646507D01*
X111889474Y-107649610D01*
X111889471Y-107649612D01*
X111760370Y-107746544D01*
X111714965Y-107780635D01*
X111711393Y-107784373D01*
X111603729Y-107897037D01*
X111560629Y-107942138D01*
X111453201Y-108099621D01*
X111398293Y-108144621D01*
X111327768Y-108152792D01*
X111264021Y-108121538D01*
X111243324Y-108097054D01*
X111162822Y-107972617D01*
X111162820Y-107972614D01*
X111160014Y-107968277D01*
X111009670Y-107803051D01*
X111005619Y-107799852D01*
X111005615Y-107799848D01*
X110838414Y-107667800D01*
X110838410Y-107667798D01*
X110834359Y-107664598D01*
X110829831Y-107662098D01*
X110775965Y-107632363D01*
X110638789Y-107556638D01*
X110633920Y-107554914D01*
X110633916Y-107554912D01*
X110433087Y-107483795D01*
X110433083Y-107483794D01*
X110428212Y-107482069D01*
X110423119Y-107481162D01*
X110423116Y-107481161D01*
X110213373Y-107443800D01*
X110213367Y-107443799D01*
X110208284Y-107442894D01*
X110134452Y-107441992D01*
X109990081Y-107440228D01*
X109990079Y-107440228D01*
X109984911Y-107440165D01*
X109764091Y-107473955D01*
X109551756Y-107543357D01*
X109521443Y-107559137D01*
X109377975Y-107633822D01*
X109353607Y-107646507D01*
X109349474Y-107649610D01*
X109349471Y-107649612D01*
X109220370Y-107746544D01*
X109174965Y-107780635D01*
X109171393Y-107784373D01*
X109063729Y-107897037D01*
X109020629Y-107942138D01*
X108913201Y-108099621D01*
X108858293Y-108144621D01*
X108787768Y-108152792D01*
X108724021Y-108121538D01*
X108703324Y-108097054D01*
X108622822Y-107972617D01*
X108622820Y-107972614D01*
X108620014Y-107968277D01*
X108469670Y-107803051D01*
X108465619Y-107799852D01*
X108465615Y-107799848D01*
X108298414Y-107667800D01*
X108298410Y-107667798D01*
X108294359Y-107664598D01*
X108289831Y-107662098D01*
X108235965Y-107632363D01*
X108098789Y-107556638D01*
X108093920Y-107554914D01*
X108093916Y-107554912D01*
X107893087Y-107483795D01*
X107893083Y-107483794D01*
X107888212Y-107482069D01*
X107883119Y-107481162D01*
X107883116Y-107481161D01*
X107673373Y-107443800D01*
X107673367Y-107443799D01*
X107668284Y-107442894D01*
X107594452Y-107441992D01*
X107450081Y-107440228D01*
X107450079Y-107440228D01*
X107444911Y-107440165D01*
X107224091Y-107473955D01*
X107011756Y-107543357D01*
X106981443Y-107559137D01*
X106837975Y-107633822D01*
X106813607Y-107646507D01*
X106809474Y-107649610D01*
X106809471Y-107649612D01*
X106680370Y-107746544D01*
X106634965Y-107780635D01*
X106578537Y-107839684D01*
X106554283Y-107865064D01*
X106492759Y-107900494D01*
X106421846Y-107897037D01*
X106364060Y-107855791D01*
X106345207Y-107822243D01*
X106303767Y-107711703D01*
X106300615Y-107703295D01*
X106213261Y-107586739D01*
X106096705Y-107499385D01*
X105960316Y-107448255D01*
X105898134Y-107441500D01*
X104101866Y-107441500D01*
X104039684Y-107448255D01*
X103903295Y-107499385D01*
X103786739Y-107586739D01*
X103699385Y-107703295D01*
X103648255Y-107839684D01*
X103641500Y-107901866D01*
X103641500Y-109698134D01*
X103648255Y-109760316D01*
X103653362Y-109773938D01*
X103689850Y-109871270D01*
X103695033Y-109942077D01*
X103661112Y-110004446D01*
X103598857Y-110038576D01*
X103571868Y-110041500D01*
X103249367Y-110041500D01*
X103229982Y-110040000D01*
X103215149Y-110037690D01*
X103215145Y-110037690D01*
X103206276Y-110036309D01*
X103187564Y-110038756D01*
X103164634Y-110039647D01*
X102888673Y-110025184D01*
X102875563Y-110023806D01*
X102574159Y-109976069D01*
X102561259Y-109973327D01*
X102266499Y-109894346D01*
X102253956Y-109890270D01*
X101969080Y-109780917D01*
X101957031Y-109775553D01*
X101685133Y-109637013D01*
X101673712Y-109630419D01*
X101417784Y-109464218D01*
X101407114Y-109456465D01*
X101169970Y-109264430D01*
X101160169Y-109255605D01*
X100944395Y-109039831D01*
X100935570Y-109030030D01*
X100743535Y-108792886D01*
X100735782Y-108782216D01*
X100569581Y-108526288D01*
X100562987Y-108514867D01*
X100424447Y-108242969D01*
X100419083Y-108230920D01*
X100309730Y-107946044D01*
X100305654Y-107933501D01*
X100295884Y-107897037D01*
X100226673Y-107638741D01*
X100223931Y-107625841D01*
X100217738Y-107586739D01*
X100176194Y-107324437D01*
X100174816Y-107311324D01*
X100160932Y-107046411D01*
X100162505Y-107018915D01*
X100163576Y-107012552D01*
X100163729Y-107000000D01*
X100159773Y-106972376D01*
X100158500Y-106954514D01*
X100158500Y-106933623D01*
X100158502Y-106932853D01*
X100158800Y-106884099D01*
X100158976Y-106855279D01*
X100150850Y-106826847D01*
X100147272Y-106810085D01*
X100143080Y-106780813D01*
X100132451Y-106757436D01*
X100126004Y-106739913D01*
X100121416Y-106723862D01*
X100118949Y-106715229D01*
X100110589Y-106701979D01*
X100103170Y-106690220D01*
X100095030Y-106675135D01*
X100082792Y-106648218D01*
X100066030Y-106628765D01*
X100054927Y-106613761D01*
X100041224Y-106592042D01*
X100034499Y-106586103D01*
X100034496Y-106586099D01*
X100019062Y-106572468D01*
X100007018Y-106560276D01*
X99993573Y-106544673D01*
X99993570Y-106544671D01*
X99987713Y-106537873D01*
X99966165Y-106523906D01*
X99951291Y-106512615D01*
X99938783Y-106501569D01*
X99938782Y-106501568D01*
X99932049Y-106495622D01*
X99905287Y-106483057D01*
X99890309Y-106474737D01*
X99873017Y-106463529D01*
X99873012Y-106463527D01*
X99865485Y-106458648D01*
X99856892Y-106456078D01*
X99856887Y-106456076D01*
X99840880Y-106451289D01*
X99823436Y-106444628D01*
X99808324Y-106437533D01*
X99808322Y-106437532D01*
X99800200Y-106433719D01*
X99791333Y-106432338D01*
X99791332Y-106432338D01*
X99780452Y-106430644D01*
X99770983Y-106429170D01*
X99754268Y-106425387D01*
X99734534Y-106419485D01*
X99734528Y-106419484D01*
X99725934Y-106416914D01*
X99716963Y-106416859D01*
X99716962Y-106416859D01*
X99706903Y-106416798D01*
X99691494Y-106416704D01*
X99690711Y-106416671D01*
X99689614Y-106416500D01*
X99658623Y-106416500D01*
X99657853Y-106416498D01*
X99584215Y-106416048D01*
X99584214Y-106416048D01*
X99580279Y-106416024D01*
X99578935Y-106416408D01*
X99577590Y-106416500D01*
X92774367Y-106416500D01*
X92754982Y-106415000D01*
X92740149Y-106412690D01*
X92740145Y-106412690D01*
X92731276Y-106411309D01*
X92716019Y-106413304D01*
X92690699Y-106414047D01*
X92523880Y-106402116D01*
X92486150Y-106399417D01*
X92468356Y-106396859D01*
X92317126Y-106363961D01*
X92243168Y-106347872D01*
X92225920Y-106342808D01*
X92009996Y-106262272D01*
X91993644Y-106254804D01*
X91791382Y-106144361D01*
X91776258Y-106134641D01*
X91591771Y-105996536D01*
X91578185Y-105984763D01*
X91415237Y-105821815D01*
X91403464Y-105808229D01*
X91265359Y-105623742D01*
X91255639Y-105608618D01*
X91145196Y-105406356D01*
X91137728Y-105390004D01*
X91057192Y-105174080D01*
X91052127Y-105156830D01*
X91003141Y-104931644D01*
X91000583Y-104913850D01*
X90987501Y-104730949D01*
X90986719Y-104720010D01*
X90987806Y-104697245D01*
X90987334Y-104697203D01*
X90987770Y-104692345D01*
X90988576Y-104687552D01*
X90988729Y-104675000D01*
X90984773Y-104647376D01*
X90983500Y-104629514D01*
X90983500Y-97334593D01*
X93533039Y-97334593D01*
X93541848Y-97569216D01*
X93542943Y-97574434D01*
X93567794Y-97692871D01*
X93590062Y-97799001D01*
X93676302Y-98017377D01*
X93679071Y-98021940D01*
X93778265Y-98185406D01*
X93798104Y-98218100D01*
X93951985Y-98395432D01*
X93956117Y-98398820D01*
X94129416Y-98540917D01*
X94129422Y-98540921D01*
X94133544Y-98544301D01*
X94138180Y-98546940D01*
X94138183Y-98546942D01*
X94249408Y-98610255D01*
X94337590Y-98660451D01*
X94558289Y-98740561D01*
X94563538Y-98741510D01*
X94563541Y-98741511D01*
X94610382Y-98749981D01*
X94789330Y-98782340D01*
X94793469Y-98782535D01*
X94793476Y-98782536D01*
X94812440Y-98783430D01*
X94812449Y-98783430D01*
X94813929Y-98783500D01*
X94978950Y-98783500D01*
X95060299Y-98776597D01*
X95148637Y-98769102D01*
X95148641Y-98769101D01*
X95153948Y-98768651D01*
X95159103Y-98767313D01*
X95159109Y-98767312D01*
X95376035Y-98711009D01*
X95376034Y-98711009D01*
X95381206Y-98709667D01*
X95386072Y-98707475D01*
X95386075Y-98707474D01*
X95590417Y-98615424D01*
X95590420Y-98615423D01*
X95595278Y-98613234D01*
X95790041Y-98482112D01*
X95806402Y-98466505D01*
X95956070Y-98323728D01*
X95959927Y-98320049D01*
X96100078Y-98131679D01*
X96147469Y-98038469D01*
X96204069Y-97927144D01*
X96204069Y-97927143D01*
X96206487Y-97922388D01*
X96276111Y-97698160D01*
X96293202Y-97569216D01*
X96306261Y-97470690D01*
X96306261Y-97470687D01*
X96306961Y-97465407D01*
X96300336Y-97288965D01*
X96317768Y-97220143D01*
X96369641Y-97171670D01*
X96418006Y-97158509D01*
X96487851Y-97153931D01*
X96487855Y-97153930D01*
X96491966Y-97153661D01*
X96496006Y-97152857D01*
X96496009Y-97152857D01*
X96784721Y-97095429D01*
X96784727Y-97095427D01*
X96788766Y-97094624D01*
X96792670Y-97093299D01*
X96792673Y-97093298D01*
X97071414Y-96998678D01*
X97071415Y-96998677D01*
X97075320Y-96997352D01*
X97172981Y-96949191D01*
X97342040Y-96865821D01*
X97411982Y-96853631D01*
X97477412Y-96881190D01*
X97517555Y-96939749D01*
X97522774Y-96994617D01*
X97491500Y-97242179D01*
X97491500Y-97557821D01*
X97531060Y-97870975D01*
X97609557Y-98176702D01*
X97611010Y-98180371D01*
X97611010Y-98180372D01*
X97696159Y-98395432D01*
X97725753Y-98470179D01*
X97727659Y-98473647D01*
X97727660Y-98473648D01*
X97874398Y-98740561D01*
X97877816Y-98746779D01*
X98063346Y-99002140D01*
X98279418Y-99232233D01*
X98522625Y-99433432D01*
X98789131Y-99602562D01*
X98792710Y-99604246D01*
X98792717Y-99604250D01*
X99071144Y-99735267D01*
X99071148Y-99735269D01*
X99074734Y-99736956D01*
X99374928Y-99834495D01*
X99684980Y-99893641D01*
X99921162Y-99908500D01*
X100078838Y-99908500D01*
X100315020Y-99893641D01*
X100625072Y-99834495D01*
X100925266Y-99736956D01*
X100928852Y-99735269D01*
X100928856Y-99735267D01*
X101207283Y-99604250D01*
X101207290Y-99604246D01*
X101210869Y-99602562D01*
X101477375Y-99433432D01*
X101720582Y-99232233D01*
X101936654Y-99002140D01*
X102122184Y-98746779D01*
X102125603Y-98740561D01*
X102272340Y-98473648D01*
X102272341Y-98473647D01*
X102274247Y-98470179D01*
X102303842Y-98395432D01*
X102388990Y-98180372D01*
X102388990Y-98180371D01*
X102390443Y-98176702D01*
X102468940Y-97870975D01*
X102508500Y-97557821D01*
X102508500Y-97334593D01*
X103693039Y-97334593D01*
X103701848Y-97569216D01*
X103702943Y-97574434D01*
X103727794Y-97692871D01*
X103750062Y-97799001D01*
X103836302Y-98017377D01*
X103839071Y-98021940D01*
X103938265Y-98185406D01*
X103958104Y-98218100D01*
X104111985Y-98395432D01*
X104116117Y-98398820D01*
X104289416Y-98540917D01*
X104289422Y-98540921D01*
X104293544Y-98544301D01*
X104298180Y-98546940D01*
X104298183Y-98546942D01*
X104409408Y-98610255D01*
X104497590Y-98660451D01*
X104718289Y-98740561D01*
X104723538Y-98741510D01*
X104723541Y-98741511D01*
X104770382Y-98749981D01*
X104949330Y-98782340D01*
X104953469Y-98782535D01*
X104953476Y-98782536D01*
X104972440Y-98783430D01*
X104972449Y-98783430D01*
X104973929Y-98783500D01*
X105138950Y-98783500D01*
X105220299Y-98776597D01*
X105308637Y-98769102D01*
X105308641Y-98769101D01*
X105313948Y-98768651D01*
X105319103Y-98767313D01*
X105319109Y-98767312D01*
X105536035Y-98711009D01*
X105536034Y-98711009D01*
X105541206Y-98709667D01*
X105546072Y-98707475D01*
X105546075Y-98707474D01*
X105750417Y-98615424D01*
X105750420Y-98615423D01*
X105755278Y-98613234D01*
X105950041Y-98482112D01*
X105966402Y-98466505D01*
X106116070Y-98323728D01*
X106119927Y-98320049D01*
X106260078Y-98131679D01*
X106307469Y-98038469D01*
X106364069Y-97927144D01*
X106364069Y-97927143D01*
X106366487Y-97922388D01*
X106436111Y-97698160D01*
X106453202Y-97569216D01*
X106466261Y-97470690D01*
X106466261Y-97470687D01*
X106466961Y-97465407D01*
X106458152Y-97230784D01*
X106440358Y-97145978D01*
X106411035Y-97006226D01*
X106411034Y-97006223D01*
X106409938Y-97000999D01*
X106323698Y-96782623D01*
X106282045Y-96713981D01*
X106204664Y-96586461D01*
X106204662Y-96586458D01*
X106201896Y-96581900D01*
X106048015Y-96404568D01*
X106037938Y-96396306D01*
X105870584Y-96259083D01*
X105870578Y-96259079D01*
X105866456Y-96255699D01*
X105861820Y-96253060D01*
X105861817Y-96253058D01*
X105667053Y-96142192D01*
X105662410Y-96139549D01*
X105441711Y-96059439D01*
X105436462Y-96058490D01*
X105436459Y-96058489D01*
X105355385Y-96043829D01*
X105210670Y-96017660D01*
X105206531Y-96017465D01*
X105206524Y-96017464D01*
X105187560Y-96016570D01*
X105187551Y-96016570D01*
X105186071Y-96016500D01*
X105021050Y-96016500D01*
X104939701Y-96023403D01*
X104851363Y-96030898D01*
X104851359Y-96030899D01*
X104846052Y-96031349D01*
X104840897Y-96032687D01*
X104840891Y-96032688D01*
X104677812Y-96075015D01*
X104618794Y-96090333D01*
X104613928Y-96092525D01*
X104613925Y-96092526D01*
X104409583Y-96184576D01*
X104409580Y-96184577D01*
X104404722Y-96186766D01*
X104209959Y-96317888D01*
X104206102Y-96321567D01*
X104206100Y-96321569D01*
X104135845Y-96388590D01*
X104040073Y-96479951D01*
X103899922Y-96668321D01*
X103897506Y-96673072D01*
X103897504Y-96673076D01*
X103800683Y-96863509D01*
X103793513Y-96877612D01*
X103723889Y-97101840D01*
X103723188Y-97107129D01*
X103706092Y-97236116D01*
X103693039Y-97334593D01*
X102508500Y-97334593D01*
X102508500Y-97242179D01*
X102468940Y-96929025D01*
X102390443Y-96623298D01*
X102332231Y-96476272D01*
X102275702Y-96333495D01*
X102275700Y-96333490D01*
X102274247Y-96329821D01*
X102272340Y-96326352D01*
X102124093Y-96056693D01*
X102124089Y-96056687D01*
X102122184Y-96053221D01*
X101936654Y-95797860D01*
X101720582Y-95567767D01*
X101477375Y-95366568D01*
X101210869Y-95197438D01*
X101207290Y-95195754D01*
X101207283Y-95195750D01*
X100928856Y-95064733D01*
X100928852Y-95064731D01*
X100925266Y-95063044D01*
X100625072Y-94965505D01*
X100315020Y-94906359D01*
X100078838Y-94891500D01*
X99921162Y-94891500D01*
X99684980Y-94906359D01*
X99374928Y-94965505D01*
X99074734Y-95063044D01*
X99071148Y-95064731D01*
X99071144Y-95064733D01*
X98792717Y-95195750D01*
X98792710Y-95195754D01*
X98789131Y-95197438D01*
X98677445Y-95268316D01*
X98609215Y-95287928D01*
X98541209Y-95267537D01*
X98495024Y-95213617D01*
X98484204Y-95153689D01*
X98503183Y-94864119D01*
X98503453Y-94860000D01*
X98492662Y-94695361D01*
X98483931Y-94562149D01*
X98483930Y-94562145D01*
X98483661Y-94558034D01*
X98463634Y-94457352D01*
X98425429Y-94265279D01*
X98425427Y-94265273D01*
X98424624Y-94261234D01*
X98412834Y-94226500D01*
X98328678Y-93978586D01*
X98328677Y-93978585D01*
X98327352Y-93974680D01*
X98264112Y-93846442D01*
X98195336Y-93706978D01*
X98195333Y-93706973D01*
X98193509Y-93703274D01*
X98025386Y-93451659D01*
X98022672Y-93448565D01*
X98022668Y-93448559D01*
X97828567Y-93227231D01*
X97825858Y-93224142D01*
X97822769Y-93221433D01*
X97601441Y-93027332D01*
X97601435Y-93027328D01*
X97598341Y-93024614D01*
X97594915Y-93022325D01*
X97594910Y-93022321D01*
X97350160Y-92858785D01*
X97346727Y-92856491D01*
X97343028Y-92854667D01*
X97343023Y-92854664D01*
X97203692Y-92785954D01*
X97075320Y-92722648D01*
X97071414Y-92721322D01*
X96792673Y-92626702D01*
X96792670Y-92626701D01*
X96788766Y-92625376D01*
X96784727Y-92624573D01*
X96784721Y-92624571D01*
X96496009Y-92567143D01*
X96496006Y-92567143D01*
X96491966Y-92566339D01*
X96487855Y-92566070D01*
X96487851Y-92566069D01*
X96194119Y-92546817D01*
X96190000Y-92546547D01*
X96185881Y-92546817D01*
X95892149Y-92566069D01*
X95892145Y-92566070D01*
X95888034Y-92566339D01*
X95883994Y-92567143D01*
X95883991Y-92567143D01*
X95595279Y-92624571D01*
X95595273Y-92624573D01*
X95591234Y-92625376D01*
X95587330Y-92626701D01*
X95587327Y-92626702D01*
X95308586Y-92721322D01*
X95304680Y-92722648D01*
X95176442Y-92785888D01*
X95036978Y-92854664D01*
X95036973Y-92854667D01*
X95033274Y-92856491D01*
X94781659Y-93024614D01*
X94778565Y-93027328D01*
X94778559Y-93027332D01*
X94557231Y-93221433D01*
X94554142Y-93224142D01*
X94551433Y-93227231D01*
X94357332Y-93448559D01*
X94357328Y-93448565D01*
X94354614Y-93451659D01*
X94186491Y-93703274D01*
X94184667Y-93706973D01*
X94184664Y-93706978D01*
X94115888Y-93846442D01*
X94052648Y-93974680D01*
X94051323Y-93978585D01*
X94051322Y-93978586D01*
X93967167Y-94226500D01*
X93955376Y-94261234D01*
X93954573Y-94265273D01*
X93954571Y-94265279D01*
X93916366Y-94457352D01*
X93896339Y-94558034D01*
X93896070Y-94562145D01*
X93896069Y-94562149D01*
X93887338Y-94695361D01*
X93876547Y-94860000D01*
X93876817Y-94864119D01*
X93892844Y-95108638D01*
X93896339Y-95161966D01*
X93897143Y-95166006D01*
X93897143Y-95166009D01*
X93950130Y-95432391D01*
X93955376Y-95458766D01*
X93956701Y-95462670D01*
X93956702Y-95462673D01*
X94045920Y-95725500D01*
X94052648Y-95745320D01*
X94186491Y-96016726D01*
X94208737Y-96050019D01*
X94213166Y-96056648D01*
X94234380Y-96124401D01*
X94215597Y-96192868D01*
X94178767Y-96231169D01*
X94142332Y-96255699D01*
X94049959Y-96317888D01*
X94046102Y-96321567D01*
X94046100Y-96321569D01*
X93975845Y-96388590D01*
X93880073Y-96479951D01*
X93739922Y-96668321D01*
X93737506Y-96673072D01*
X93737504Y-96673076D01*
X93640683Y-96863509D01*
X93633513Y-96877612D01*
X93563889Y-97101840D01*
X93563188Y-97107129D01*
X93546092Y-97236116D01*
X93533039Y-97334593D01*
X90983500Y-97334593D01*
X90983500Y-92320000D01*
X100226547Y-92320000D01*
X100226817Y-92324119D01*
X100242746Y-92567143D01*
X100246339Y-92621966D01*
X100247143Y-92626006D01*
X100247143Y-92626009D01*
X100300459Y-92894045D01*
X100305376Y-92918766D01*
X100306701Y-92922670D01*
X100306702Y-92922673D01*
X100401322Y-93201414D01*
X100402648Y-93205320D01*
X100465888Y-93333558D01*
X100522601Y-93448559D01*
X100536491Y-93476726D01*
X100704614Y-93728341D01*
X100707328Y-93731435D01*
X100707332Y-93731441D01*
X100901433Y-93952769D01*
X100904142Y-93955858D01*
X100907231Y-93958567D01*
X101128559Y-94152668D01*
X101128565Y-94152672D01*
X101131659Y-94155386D01*
X101135085Y-94157675D01*
X101135090Y-94157679D01*
X101323371Y-94283484D01*
X101383273Y-94323509D01*
X101386972Y-94325333D01*
X101386977Y-94325336D01*
X101526308Y-94394046D01*
X101654680Y-94457352D01*
X101658585Y-94458677D01*
X101658586Y-94458678D01*
X101937327Y-94553298D01*
X101937330Y-94553299D01*
X101941234Y-94554624D01*
X101945273Y-94555427D01*
X101945279Y-94555429D01*
X102233991Y-94612857D01*
X102233994Y-94612857D01*
X102238034Y-94613661D01*
X102242145Y-94613930D01*
X102242149Y-94613931D01*
X102535881Y-94633183D01*
X102540000Y-94633453D01*
X102544119Y-94633183D01*
X102837851Y-94613931D01*
X102837855Y-94613930D01*
X102841966Y-94613661D01*
X102846006Y-94612857D01*
X102846009Y-94612857D01*
X103134721Y-94555429D01*
X103134727Y-94555427D01*
X103138766Y-94554624D01*
X103142670Y-94553299D01*
X103142673Y-94553298D01*
X103421414Y-94458678D01*
X103421415Y-94458677D01*
X103425320Y-94457352D01*
X103553692Y-94394046D01*
X103693023Y-94325336D01*
X103693028Y-94325333D01*
X103696727Y-94323509D01*
X103756629Y-94283484D01*
X103944910Y-94157679D01*
X103944915Y-94157675D01*
X103948341Y-94155386D01*
X103951435Y-94152672D01*
X103951441Y-94152668D01*
X104172769Y-93958567D01*
X104175858Y-93955858D01*
X104178567Y-93952769D01*
X104372668Y-93731441D01*
X104372672Y-93731435D01*
X104375386Y-93728341D01*
X104543509Y-93476726D01*
X104557400Y-93448559D01*
X104614112Y-93333558D01*
X104677352Y-93205320D01*
X104678678Y-93201414D01*
X104773298Y-92922673D01*
X104773299Y-92922670D01*
X104774624Y-92918766D01*
X104779542Y-92894045D01*
X104832857Y-92626009D01*
X104832857Y-92626006D01*
X104833661Y-92621966D01*
X104837255Y-92567143D01*
X104853183Y-92324119D01*
X104853453Y-92320000D01*
X104833661Y-92018034D01*
X104802943Y-91863602D01*
X104775429Y-91725279D01*
X104775427Y-91725273D01*
X104774624Y-91721234D01*
X104772462Y-91714863D01*
X104678678Y-91438586D01*
X104678677Y-91438585D01*
X104677352Y-91434680D01*
X104550159Y-91176759D01*
X104545336Y-91166978D01*
X104545333Y-91166973D01*
X104543509Y-91163274D01*
X104375386Y-90911659D01*
X104372672Y-90908565D01*
X104372668Y-90908559D01*
X104178567Y-90687231D01*
X104175858Y-90684142D01*
X104150294Y-90661723D01*
X103951441Y-90487332D01*
X103951435Y-90487328D01*
X103948341Y-90484614D01*
X103944911Y-90482322D01*
X103944910Y-90482321D01*
X103700160Y-90318785D01*
X103696727Y-90316491D01*
X103693028Y-90314667D01*
X103693023Y-90314664D01*
X103510883Y-90224843D01*
X103425320Y-90182648D01*
X103421414Y-90181322D01*
X103142673Y-90086702D01*
X103142670Y-90086701D01*
X103138766Y-90085376D01*
X103134727Y-90084573D01*
X103134721Y-90084571D01*
X102846009Y-90027143D01*
X102846006Y-90027143D01*
X102841966Y-90026339D01*
X102837855Y-90026070D01*
X102837851Y-90026069D01*
X102544119Y-90006817D01*
X102540000Y-90006547D01*
X102535881Y-90006817D01*
X102242149Y-90026069D01*
X102242145Y-90026070D01*
X102238034Y-90026339D01*
X102233994Y-90027143D01*
X102233991Y-90027143D01*
X101945279Y-90084571D01*
X101945273Y-90084573D01*
X101941234Y-90085376D01*
X101937330Y-90086701D01*
X101937327Y-90086702D01*
X101658586Y-90181322D01*
X101654680Y-90182648D01*
X101569117Y-90224843D01*
X101386978Y-90314664D01*
X101386973Y-90314667D01*
X101383274Y-90316491D01*
X101131659Y-90484614D01*
X101128565Y-90487328D01*
X101128559Y-90487332D01*
X100929706Y-90661723D01*
X100904142Y-90684142D01*
X100901433Y-90687231D01*
X100707332Y-90908559D01*
X100707328Y-90908565D01*
X100704614Y-90911659D01*
X100536491Y-91163274D01*
X100534667Y-91166973D01*
X100534664Y-91166978D01*
X100529841Y-91176759D01*
X100402648Y-91434680D01*
X100401323Y-91438585D01*
X100401322Y-91438586D01*
X100307539Y-91714863D01*
X100305376Y-91721234D01*
X100304573Y-91725273D01*
X100304571Y-91725279D01*
X100277057Y-91863602D01*
X100246339Y-92018034D01*
X100226547Y-92320000D01*
X90983500Y-92320000D01*
X90983500Y-90727558D01*
X91003502Y-90659437D01*
X91057158Y-90612944D01*
X91127432Y-90602840D01*
X91192012Y-90632334D01*
X91216933Y-90661723D01*
X91323241Y-90835202D01*
X91323245Y-90835208D01*
X91325824Y-90839416D01*
X91480031Y-91019969D01*
X91660584Y-91174176D01*
X91664792Y-91176755D01*
X91664798Y-91176759D01*
X91858817Y-91295654D01*
X91863037Y-91298240D01*
X91867607Y-91300133D01*
X91867611Y-91300135D01*
X92077833Y-91387211D01*
X92082406Y-91389105D01*
X92162609Y-91408360D01*
X92308476Y-91443380D01*
X92308482Y-91443381D01*
X92313289Y-91444535D01*
X92550000Y-91463165D01*
X92786711Y-91444535D01*
X92791518Y-91443381D01*
X92791524Y-91443380D01*
X92937391Y-91408360D01*
X93017594Y-91389105D01*
X93022167Y-91387211D01*
X93232389Y-91300135D01*
X93232393Y-91300133D01*
X93236963Y-91298240D01*
X93241183Y-91295654D01*
X93435202Y-91176759D01*
X93435208Y-91176755D01*
X93439416Y-91174176D01*
X93619969Y-91019969D01*
X93774176Y-90839416D01*
X93776755Y-90835208D01*
X93776759Y-90835202D01*
X93895654Y-90641183D01*
X93898240Y-90636963D01*
X93900158Y-90632334D01*
X93987211Y-90422167D01*
X93987212Y-90422165D01*
X93989105Y-90417594D01*
X94013816Y-90314664D01*
X94043380Y-90191524D01*
X94043381Y-90191518D01*
X94044535Y-90186711D01*
X94063165Y-89950000D01*
X94044535Y-89713289D01*
X94036581Y-89680155D01*
X93990260Y-89487218D01*
X93989105Y-89482406D01*
X93952339Y-89393644D01*
X93900135Y-89267611D01*
X93900133Y-89267607D01*
X93898240Y-89263037D01*
X93854330Y-89191382D01*
X93776759Y-89064798D01*
X93776755Y-89064792D01*
X93774176Y-89060584D01*
X93619969Y-88880031D01*
X93439416Y-88725824D01*
X93435208Y-88723245D01*
X93435202Y-88723241D01*
X93261723Y-88616933D01*
X93214092Y-88564285D01*
X93202485Y-88494243D01*
X93230588Y-88429046D01*
X93289479Y-88389392D01*
X93327558Y-88383500D01*
X99641377Y-88383500D01*
X99642148Y-88383502D01*
X99719721Y-88383976D01*
X99748152Y-88375850D01*
X99764915Y-88372272D01*
X99765753Y-88372152D01*
X99794187Y-88368080D01*
X99817564Y-88357451D01*
X99835087Y-88351004D01*
X99859771Y-88343949D01*
X99867365Y-88339157D01*
X99867368Y-88339156D01*
X99884780Y-88328170D01*
X99899865Y-88320030D01*
X99926782Y-88307792D01*
X99946235Y-88291030D01*
X99961239Y-88279927D01*
X99982958Y-88266224D01*
X99988897Y-88259499D01*
X99988901Y-88259496D01*
X100002532Y-88244062D01*
X100014724Y-88232018D01*
X100030327Y-88218573D01*
X100030329Y-88218570D01*
X100037127Y-88212713D01*
X100051094Y-88191165D01*
X100062385Y-88176291D01*
X100073431Y-88163783D01*
X100073432Y-88163782D01*
X100079378Y-88157049D01*
X100091943Y-88130287D01*
X100100263Y-88115309D01*
X100111471Y-88098017D01*
X100111473Y-88098012D01*
X100116352Y-88090485D01*
X100118922Y-88081892D01*
X100118924Y-88081887D01*
X100123711Y-88065880D01*
X100130372Y-88048436D01*
X100137467Y-88033324D01*
X100137468Y-88033322D01*
X100141281Y-88025200D01*
X100145830Y-87995983D01*
X100149613Y-87979268D01*
X100155515Y-87959534D01*
X100155516Y-87959528D01*
X100158086Y-87950934D01*
X100158296Y-87916494D01*
X100158329Y-87915711D01*
X100158500Y-87914614D01*
X100158500Y-87883623D01*
X100158502Y-87882853D01*
X100158976Y-87805279D01*
X100159941Y-87805285D01*
X100160296Y-87782051D01*
X100162769Y-87767349D01*
X100162769Y-87767348D01*
X100163576Y-87762552D01*
X100163729Y-87750000D01*
X100163039Y-87745180D01*
X100161644Y-87735437D01*
X100160545Y-87710983D01*
X100174816Y-87438678D01*
X100176194Y-87425561D01*
X100207685Y-87226731D01*
X100223931Y-87124159D01*
X100226673Y-87111259D01*
X100283838Y-86897918D01*
X100305654Y-86816498D01*
X100309730Y-86803956D01*
X100310985Y-86800688D01*
X100419083Y-86519080D01*
X100424447Y-86507031D01*
X100562987Y-86235133D01*
X100569581Y-86223712D01*
X100735782Y-85967784D01*
X100743535Y-85957114D01*
X100935570Y-85719970D01*
X100944395Y-85710169D01*
X101160169Y-85494395D01*
X101169970Y-85485570D01*
X101407114Y-85293535D01*
X101417784Y-85285782D01*
X101673712Y-85119581D01*
X101685133Y-85112987D01*
X101957031Y-84974447D01*
X101969080Y-84969083D01*
X102253956Y-84859730D01*
X102266499Y-84855654D01*
X102561259Y-84776673D01*
X102574159Y-84773931D01*
X102667780Y-84759103D01*
X102875563Y-84726194D01*
X102888675Y-84724816D01*
X102943400Y-84721948D01*
X103157299Y-84710738D01*
X103183276Y-84712065D01*
X103184846Y-84712309D01*
X103184850Y-84712309D01*
X103193724Y-84713691D01*
X103202626Y-84712527D01*
X103202628Y-84712527D01*
X103217677Y-84710559D01*
X103225286Y-84709564D01*
X103241621Y-84708500D01*
X103594852Y-84708500D01*
X103662973Y-84728502D01*
G37*
G04 #@! TD.AperFunction*
G04 #@! TA.AperFunction,NonConductor*
G36*
X146934532Y-99065540D02*
G01*
X146991367Y-99108087D01*
X147016178Y-99174607D01*
X147016499Y-99183596D01*
X147016499Y-104647101D01*
X147014776Y-104667868D01*
X147011409Y-104688017D01*
X147012474Y-104696931D01*
X147012474Y-104696933D01*
X147013244Y-104703376D01*
X147013711Y-104728644D01*
X146997051Y-104931345D01*
X146994333Y-104948980D01*
X146986285Y-104984341D01*
X146943544Y-105172125D01*
X146938363Y-105189196D01*
X146856543Y-105402942D01*
X146849012Y-105419086D01*
X146739251Y-105616526D01*
X146737812Y-105619115D01*
X146728055Y-105634062D01*
X146589713Y-105816359D01*
X146577944Y-105829777D01*
X146564985Y-105842593D01*
X146415230Y-105990693D01*
X146401681Y-106002314D01*
X146374820Y-106022232D01*
X146223229Y-106134641D01*
X146217860Y-106138622D01*
X146202817Y-106148205D01*
X146001561Y-106257177D01*
X145985311Y-106264538D01*
X145770688Y-106343971D01*
X145753551Y-106348965D01*
X145529861Y-106397271D01*
X145512189Y-106399793D01*
X145350024Y-106411309D01*
X145331690Y-106412611D01*
X145316425Y-106413695D01*
X145297974Y-106412924D01*
X145290148Y-106412828D01*
X145281276Y-106411447D01*
X145256359Y-106414705D01*
X145249713Y-106415574D01*
X145233377Y-106416637D01*
X128981943Y-106416507D01*
X128108679Y-106416500D01*
X128107911Y-106416498D01*
X128106763Y-106416491D01*
X128030279Y-106416024D01*
X128021649Y-106418490D01*
X128021645Y-106418491D01*
X128001852Y-106424148D01*
X127985090Y-106427726D01*
X127964711Y-106430644D01*
X127964702Y-106430647D01*
X127955817Y-106431919D01*
X127947645Y-106435634D01*
X127947640Y-106435636D01*
X127932436Y-106442549D01*
X127914912Y-106448997D01*
X127890229Y-106456051D01*
X127882638Y-106460841D01*
X127882635Y-106460842D01*
X127865223Y-106471828D01*
X127850141Y-106479966D01*
X127838191Y-106485400D01*
X127823221Y-106492206D01*
X127803765Y-106508971D01*
X127788757Y-106520075D01*
X127774636Y-106528984D01*
X127774633Y-106528987D01*
X127767042Y-106533776D01*
X127761103Y-106540501D01*
X127761097Y-106540506D01*
X127747472Y-106555935D01*
X127735279Y-106567981D01*
X127712876Y-106587284D01*
X127707995Y-106594815D01*
X127707991Y-106594819D01*
X127698907Y-106608833D01*
X127687620Y-106623704D01*
X127676564Y-106636223D01*
X127670622Y-106642951D01*
X127666808Y-106651075D01*
X127658058Y-106669712D01*
X127649736Y-106684694D01*
X127633650Y-106709511D01*
X127631078Y-106718111D01*
X127626291Y-106734117D01*
X127619629Y-106751562D01*
X127608719Y-106774800D01*
X127607338Y-106783670D01*
X127604169Y-106804021D01*
X127600386Y-106820735D01*
X127591915Y-106849062D01*
X127591860Y-106858033D01*
X127591704Y-106883494D01*
X127591671Y-106884286D01*
X127591500Y-106885386D01*
X127591500Y-106916380D01*
X127591498Y-106917154D01*
X127591279Y-106952812D01*
X127589781Y-106971420D01*
X127587808Y-106984096D01*
X127586309Y-106993724D01*
X127588135Y-107007683D01*
X127588756Y-107012433D01*
X127589647Y-107035366D01*
X127579632Y-107226449D01*
X127575184Y-107311324D01*
X127573806Y-107324437D01*
X127532262Y-107586739D01*
X127526069Y-107625841D01*
X127523327Y-107638741D01*
X127454117Y-107897037D01*
X127444346Y-107933501D01*
X127440270Y-107946044D01*
X127330917Y-108230920D01*
X127325553Y-108242969D01*
X127187013Y-108514867D01*
X127180419Y-108526288D01*
X127014218Y-108782216D01*
X127006465Y-108792886D01*
X126814430Y-109030030D01*
X126805605Y-109039831D01*
X126589831Y-109255605D01*
X126580030Y-109264430D01*
X126342886Y-109456465D01*
X126332216Y-109464218D01*
X126076288Y-109630419D01*
X126064867Y-109637013D01*
X125792969Y-109775553D01*
X125780920Y-109780917D01*
X125496044Y-109890270D01*
X125483501Y-109894346D01*
X125188741Y-109973327D01*
X125175841Y-109976069D01*
X124874437Y-110023806D01*
X124861325Y-110025184D01*
X124806600Y-110028052D01*
X124592701Y-110039262D01*
X124566724Y-110037935D01*
X124565154Y-110037691D01*
X124565150Y-110037691D01*
X124556276Y-110036309D01*
X124547374Y-110037473D01*
X124547372Y-110037473D01*
X124532323Y-110039441D01*
X124524714Y-110040436D01*
X124508379Y-110041500D01*
X123763776Y-110041500D01*
X123695655Y-110021498D01*
X123649162Y-109967842D01*
X123639058Y-109897568D01*
X123668552Y-109832988D01*
X123674836Y-109826249D01*
X123725710Y-109775553D01*
X123818096Y-109683489D01*
X123856231Y-109630419D01*
X123945435Y-109506277D01*
X123948453Y-109502077D01*
X123969320Y-109459857D01*
X124045136Y-109306453D01*
X124045137Y-109306451D01*
X124047430Y-109301811D01*
X124112370Y-109088069D01*
X124141529Y-108866590D01*
X124143156Y-108800000D01*
X124124852Y-108577361D01*
X124070431Y-108360702D01*
X123981354Y-108155840D01*
X123860014Y-107968277D01*
X123709670Y-107803051D01*
X123705619Y-107799852D01*
X123705615Y-107799848D01*
X123538414Y-107667800D01*
X123538410Y-107667798D01*
X123534359Y-107664598D01*
X123529831Y-107662098D01*
X123475965Y-107632363D01*
X123338789Y-107556638D01*
X123333920Y-107554914D01*
X123333916Y-107554912D01*
X123133087Y-107483795D01*
X123133083Y-107483794D01*
X123128212Y-107482069D01*
X123123119Y-107481162D01*
X123123116Y-107481161D01*
X122913373Y-107443800D01*
X122913367Y-107443799D01*
X122908284Y-107442894D01*
X122834452Y-107441992D01*
X122690081Y-107440228D01*
X122690079Y-107440228D01*
X122684911Y-107440165D01*
X122464091Y-107473955D01*
X122251756Y-107543357D01*
X122221443Y-107559137D01*
X122077975Y-107633822D01*
X122053607Y-107646507D01*
X122049474Y-107649610D01*
X122049471Y-107649612D01*
X121920370Y-107746544D01*
X121874965Y-107780635D01*
X121871393Y-107784373D01*
X121763729Y-107897037D01*
X121720629Y-107942138D01*
X121613201Y-108099621D01*
X121558293Y-108144621D01*
X121487768Y-108152792D01*
X121424021Y-108121538D01*
X121403324Y-108097054D01*
X121322822Y-107972617D01*
X121322820Y-107972614D01*
X121320014Y-107968277D01*
X121169670Y-107803051D01*
X121165619Y-107799852D01*
X121165615Y-107799848D01*
X120998414Y-107667800D01*
X120998410Y-107667798D01*
X120994359Y-107664598D01*
X120989831Y-107662098D01*
X120935965Y-107632363D01*
X120798789Y-107556638D01*
X120793920Y-107554914D01*
X120793916Y-107554912D01*
X120593087Y-107483795D01*
X120593083Y-107483794D01*
X120588212Y-107482069D01*
X120583119Y-107481162D01*
X120583116Y-107481161D01*
X120373373Y-107443800D01*
X120373367Y-107443799D01*
X120368284Y-107442894D01*
X120257009Y-107441535D01*
X120189140Y-107420702D01*
X120143306Y-107366483D01*
X120134061Y-107296091D01*
X120164340Y-107231875D01*
X120169455Y-107226449D01*
X123725499Y-103670405D01*
X123787811Y-103636379D01*
X123814594Y-103633500D01*
X141921233Y-103633500D01*
X141932416Y-103634027D01*
X141939909Y-103635702D01*
X141947835Y-103635453D01*
X141947836Y-103635453D01*
X142007986Y-103633562D01*
X142011945Y-103633500D01*
X142039856Y-103633500D01*
X142043791Y-103633003D01*
X142043856Y-103632995D01*
X142055693Y-103632062D01*
X142087951Y-103631048D01*
X142091970Y-103630922D01*
X142099889Y-103630673D01*
X142119343Y-103625021D01*
X142138700Y-103621013D01*
X142150930Y-103619468D01*
X142150931Y-103619468D01*
X142158797Y-103618474D01*
X142166168Y-103615555D01*
X142166170Y-103615555D01*
X142199912Y-103602196D01*
X142211142Y-103598351D01*
X142245983Y-103588229D01*
X142245984Y-103588229D01*
X142253593Y-103586018D01*
X142260412Y-103581985D01*
X142260417Y-103581983D01*
X142271028Y-103575707D01*
X142288776Y-103567012D01*
X142307617Y-103559552D01*
X142343387Y-103533564D01*
X142353307Y-103527048D01*
X142384535Y-103508580D01*
X142384538Y-103508578D01*
X142391362Y-103504542D01*
X142405683Y-103490221D01*
X142420717Y-103477380D01*
X142430694Y-103470131D01*
X142437107Y-103465472D01*
X142465298Y-103431395D01*
X142473288Y-103422616D01*
X146801404Y-99094501D01*
X146863716Y-99060475D01*
X146934532Y-99065540D01*
G37*
G04 #@! TD.AperFunction*
G04 #@! TA.AperFunction,NonConductor*
G36*
X121592026Y-109475144D02*
G01*
X121619875Y-109506994D01*
X121679987Y-109605088D01*
X121826250Y-109773938D01*
X121879992Y-109818555D01*
X121919628Y-109877458D01*
X121921126Y-109948439D01*
X121884012Y-110008962D01*
X121820068Y-110039811D01*
X121799508Y-110041500D01*
X121223776Y-110041500D01*
X121155655Y-110021498D01*
X121109162Y-109967842D01*
X121099058Y-109897568D01*
X121128552Y-109832988D01*
X121134836Y-109826249D01*
X121185710Y-109775553D01*
X121278096Y-109683489D01*
X121316231Y-109630419D01*
X121408453Y-109502077D01*
X121409776Y-109503028D01*
X121456645Y-109459857D01*
X121526580Y-109447625D01*
X121592026Y-109475144D01*
G37*
G04 #@! TD.AperFunction*
M02*
