G04 #@! TF.GenerationSoftware,KiCad,Pcbnew,(6.0.4)*
G04 #@! TF.CreationDate,2022-05-25T10:20:10+08:00*
G04 #@! TF.ProjectId,3key-v2,336b6579-2d76-4322-9e6b-696361645f70,rev?*
G04 #@! TF.SameCoordinates,Original*
G04 #@! TF.FileFunction,Soldermask,Bot*
G04 #@! TF.FilePolarity,Negative*
%FSLAX46Y46*%
G04 Gerber Fmt 4.6, Leading zero omitted, Abs format (unit mm)*
G04 Created by KiCad (PCBNEW (6.0.4)) date 2022-05-25 10:20:10*
%MOMM*%
%LPD*%
G01*
G04 APERTURE LIST*
G04 Aperture macros list*
%AMRoundRect*
0 Rectangle with rounded corners*
0 $1 Rounding radius*
0 $2 $3 $4 $5 $6 $7 $8 $9 X,Y pos of 4 corners*
0 Add a 4 corners polygon primitive as box body*
4,1,4,$2,$3,$4,$5,$6,$7,$8,$9,$2,$3,0*
0 Add four circle primitives for the rounded corners*
1,1,$1+$1,$2,$3*
1,1,$1+$1,$4,$5*
1,1,$1+$1,$6,$7*
1,1,$1+$1,$8,$9*
0 Add four rect primitives between the rounded corners*
20,1,$1+$1,$2,$3,$4,$5,0*
20,1,$1+$1,$4,$5,$6,$7,0*
20,1,$1+$1,$6,$7,$8,$9,0*
20,1,$1+$1,$8,$9,$2,$3,0*%
G04 Aperture macros list end*
%ADD10C,3.600000*%
%ADD11C,4.000000*%
%ADD12RoundRect,0.250000X-1.025000X-1.000000X1.025000X-1.000000X1.025000X1.000000X-1.025000X1.000000X0*%
%ADD13C,1.750000*%
%ADD14RoundRect,0.250000X-0.350000X-0.450000X0.350000X-0.450000X0.350000X0.450000X-0.350000X0.450000X0*%
%ADD15RoundRect,0.250000X0.350000X0.450000X-0.350000X0.450000X-0.350000X-0.450000X0.350000X-0.450000X0*%
%ADD16R,1.700000X1.700000*%
%ADD17O,1.700000X1.700000*%
G04 APERTURE END LIST*
D10*
X121540000Y-92320000D03*
X115190000Y-94860000D03*
D11*
X119000000Y-97400000D03*
D12*
X124842000Y-92320000D03*
D13*
X113920000Y-97400000D03*
X124080000Y-97400000D03*
D12*
X111915000Y-94860000D03*
D10*
X102540000Y-92320000D03*
X96190000Y-94860000D03*
D13*
X94920000Y-97400000D03*
X105080000Y-97400000D03*
D11*
X100000000Y-97400000D03*
D12*
X92915000Y-94860000D03*
X105842000Y-92320000D03*
X130915000Y-94860000D03*
X143842000Y-92320000D03*
D11*
X138000000Y-97400000D03*
D13*
X143080000Y-97400000D03*
X132920000Y-97400000D03*
D10*
X134190000Y-94860000D03*
X140540000Y-92320000D03*
D14*
X110500000Y-105500000D03*
X108500000Y-105500000D03*
D15*
X129500000Y-89500000D03*
X127500000Y-89500000D03*
D14*
X108500000Y-89500000D03*
X110500000Y-89500000D03*
D16*
X105000000Y-86000000D03*
D17*
X107540000Y-86000000D03*
X110080000Y-86000000D03*
X112620000Y-86000000D03*
X115160000Y-86000000D03*
X117700000Y-86000000D03*
X120240000Y-86000000D03*
X122780000Y-86000000D03*
D16*
X105000000Y-108800000D03*
D17*
X107540000Y-108800000D03*
X110080000Y-108800000D03*
X112620000Y-108800000D03*
X115160000Y-108800000D03*
X117700000Y-108800000D03*
X120240000Y-108800000D03*
X122780000Y-108800000D03*
M02*
