G04 #@! TF.GenerationSoftware,KiCad,Pcbnew,(6.0.4)*
G04 #@! TF.CreationDate,2022-05-25T10:20:10+08:00*
G04 #@! TF.ProjectId,3key-v2,336b6579-2d76-4322-9e6b-696361645f70,rev?*
G04 #@! TF.SameCoordinates,Original*
G04 #@! TF.FileFunction,Legend,Top*
G04 #@! TF.FilePolarity,Positive*
%FSLAX46Y46*%
G04 Gerber Fmt 4.6, Leading zero omitted, Abs format (unit mm)*
G04 Created by KiCad (PCBNEW (6.0.4)) date 2022-05-25 10:20:10*
%MOMM*%
%LPD*%
G01*
G04 APERTURE LIST*
%ADD10C,0.150000*%
%ADD11C,0.120000*%
%ADD12C,4.000000*%
%ADD13C,1.750000*%
%ADD14R,1.700000X1.700000*%
%ADD15O,1.700000X1.700000*%
G04 APERTURE END LIST*
D10*
X135765476Y-105285714D02*
X135955952Y-105952380D01*
X136146428Y-105476190D01*
X136336904Y-105952380D01*
X136527380Y-105285714D01*
X136908333Y-105285714D02*
X136908333Y-106142857D01*
X136860714Y-106238095D01*
X136765476Y-106285714D01*
X136717857Y-106285714D01*
X136908333Y-104952380D02*
X136860714Y-105000000D01*
X136908333Y-105047619D01*
X136955952Y-105000000D01*
X136908333Y-104952380D01*
X136908333Y-105047619D01*
X137384523Y-105952380D02*
X137384523Y-104952380D01*
X137479761Y-105571428D02*
X137765476Y-105952380D01*
X137765476Y-105285714D02*
X137384523Y-105666666D01*
X138194047Y-105857142D02*
X138241666Y-105904761D01*
X138194047Y-105952380D01*
X138146428Y-105904761D01*
X138194047Y-105857142D01*
X138194047Y-105952380D01*
X138670238Y-105952380D02*
X138670238Y-105285714D01*
X138670238Y-105380952D02*
X138717857Y-105333333D01*
X138813095Y-105285714D01*
X138955952Y-105285714D01*
X139051190Y-105333333D01*
X139098809Y-105428571D01*
X139098809Y-105952380D01*
X139098809Y-105428571D02*
X139146428Y-105333333D01*
X139241666Y-105285714D01*
X139384523Y-105285714D01*
X139479761Y-105333333D01*
X139527380Y-105428571D01*
X139527380Y-105952380D01*
X140146428Y-105952380D02*
X140051190Y-105904761D01*
X140003571Y-105857142D01*
X139955952Y-105761904D01*
X139955952Y-105476190D01*
X140003571Y-105380952D01*
X140051190Y-105333333D01*
X140146428Y-105285714D01*
X140289285Y-105285714D01*
X140384523Y-105333333D01*
X140432142Y-105380952D01*
X140479761Y-105476190D01*
X140479761Y-105761904D01*
X140432142Y-105857142D01*
X140384523Y-105904761D01*
X140289285Y-105952380D01*
X140146428Y-105952380D01*
X141289285Y-105904761D02*
X141194047Y-105952380D01*
X141003571Y-105952380D01*
X140908333Y-105904761D01*
X140860714Y-105809523D01*
X140860714Y-105428571D01*
X140908333Y-105333333D01*
X141003571Y-105285714D01*
X141194047Y-105285714D01*
X141289285Y-105333333D01*
X141336904Y-105428571D01*
X141336904Y-105523809D01*
X140860714Y-105619047D01*
X113489285Y-105327380D02*
X114108333Y-105327380D01*
X113775000Y-105708333D01*
X113917857Y-105708333D01*
X114013095Y-105755952D01*
X114060714Y-105803571D01*
X114108333Y-105898809D01*
X114108333Y-106136904D01*
X114060714Y-106232142D01*
X114013095Y-106279761D01*
X113917857Y-106327380D01*
X113632142Y-106327380D01*
X113536904Y-106279761D01*
X113489285Y-106232142D01*
X114536904Y-106327380D02*
X114536904Y-105327380D01*
X114632142Y-105946428D02*
X114917857Y-106327380D01*
X114917857Y-105660714D02*
X114536904Y-106041666D01*
X115727380Y-106279761D02*
X115632142Y-106327380D01*
X115441666Y-106327380D01*
X115346428Y-106279761D01*
X115298809Y-106184523D01*
X115298809Y-105803571D01*
X115346428Y-105708333D01*
X115441666Y-105660714D01*
X115632142Y-105660714D01*
X115727380Y-105708333D01*
X115775000Y-105803571D01*
X115775000Y-105898809D01*
X115298809Y-105994047D01*
X116108333Y-105660714D02*
X116346428Y-106327380D01*
X116584523Y-105660714D02*
X116346428Y-106327380D01*
X116251190Y-106565476D01*
X116203571Y-106613095D01*
X116108333Y-106660714D01*
X116965476Y-105946428D02*
X117727380Y-105946428D01*
X118203571Y-106327380D02*
X118203571Y-105327380D01*
X118203571Y-105708333D02*
X118298809Y-105660714D01*
X118489285Y-105660714D01*
X118584523Y-105708333D01*
X118632142Y-105755952D01*
X118679761Y-105851190D01*
X118679761Y-106136904D01*
X118632142Y-106232142D01*
X118584523Y-106279761D01*
X118489285Y-106327380D01*
X118298809Y-106327380D01*
X118203571Y-106279761D01*
X119251190Y-106327380D02*
X119155952Y-106279761D01*
X119108333Y-106184523D01*
X119108333Y-105327380D01*
X120013095Y-106279761D02*
X119917857Y-106327380D01*
X119727380Y-106327380D01*
X119632142Y-106279761D01*
X119584523Y-106184523D01*
X119584523Y-105803571D01*
X119632142Y-105708333D01*
X119727380Y-105660714D01*
X119917857Y-105660714D01*
X120013095Y-105708333D01*
X120060714Y-105803571D01*
X120060714Y-105898809D01*
X119584523Y-105994047D01*
X120489285Y-105946428D02*
X121251190Y-105946428D01*
X121632142Y-105660714D02*
X121870238Y-106327380D01*
X122108333Y-105660714D01*
X122441666Y-105422619D02*
X122489285Y-105375000D01*
X122584523Y-105327380D01*
X122822619Y-105327380D01*
X122917857Y-105375000D01*
X122965476Y-105422619D01*
X123013095Y-105517857D01*
X123013095Y-105613095D01*
X122965476Y-105755952D01*
X122394047Y-106327380D01*
X123013095Y-106327380D01*
X93176190Y-105310714D02*
X93176190Y-106120238D01*
X93128571Y-106215476D01*
X93080952Y-106263095D01*
X92985714Y-106310714D01*
X92842857Y-106310714D01*
X92747619Y-106263095D01*
X93176190Y-105929761D02*
X93080952Y-105977380D01*
X92890476Y-105977380D01*
X92795238Y-105929761D01*
X92747619Y-105882142D01*
X92700000Y-105786904D01*
X92700000Y-105501190D01*
X92747619Y-105405952D01*
X92795238Y-105358333D01*
X92890476Y-105310714D01*
X93080952Y-105310714D01*
X93176190Y-105358333D01*
X93652380Y-105977380D02*
X93652380Y-105310714D01*
X93652380Y-104977380D02*
X93604761Y-105025000D01*
X93652380Y-105072619D01*
X93700000Y-105025000D01*
X93652380Y-104977380D01*
X93652380Y-105072619D01*
X93985714Y-105310714D02*
X94366666Y-105310714D01*
X94128571Y-104977380D02*
X94128571Y-105834523D01*
X94176190Y-105929761D01*
X94271428Y-105977380D01*
X94366666Y-105977380D01*
X94700000Y-105977380D02*
X94700000Y-104977380D01*
X95128571Y-105977380D02*
X95128571Y-105453571D01*
X95080952Y-105358333D01*
X94985714Y-105310714D01*
X94842857Y-105310714D01*
X94747619Y-105358333D01*
X94700000Y-105405952D01*
X96033333Y-105310714D02*
X96033333Y-105977380D01*
X95604761Y-105310714D02*
X95604761Y-105834523D01*
X95652380Y-105929761D01*
X95747619Y-105977380D01*
X95890476Y-105977380D01*
X95985714Y-105929761D01*
X96033333Y-105882142D01*
X96509523Y-105977380D02*
X96509523Y-104977380D01*
X96509523Y-105358333D02*
X96604761Y-105310714D01*
X96795238Y-105310714D01*
X96890476Y-105358333D01*
X96938095Y-105405952D01*
X96985714Y-105501190D01*
X96985714Y-105786904D01*
X96938095Y-105882142D01*
X96890476Y-105929761D01*
X96795238Y-105977380D01*
X96604761Y-105977380D01*
X96509523Y-105929761D01*
X97414285Y-105882142D02*
X97461904Y-105929761D01*
X97414285Y-105977380D01*
X97366666Y-105929761D01*
X97414285Y-105882142D01*
X97414285Y-105977380D01*
X98319047Y-105929761D02*
X98223809Y-105977380D01*
X98033333Y-105977380D01*
X97938095Y-105929761D01*
X97890476Y-105882142D01*
X97842857Y-105786904D01*
X97842857Y-105501190D01*
X97890476Y-105405952D01*
X97938095Y-105358333D01*
X98033333Y-105310714D01*
X98223809Y-105310714D01*
X98319047Y-105358333D01*
X98890476Y-105977380D02*
X98795238Y-105929761D01*
X98747619Y-105882142D01*
X98700000Y-105786904D01*
X98700000Y-105501190D01*
X98747619Y-105405952D01*
X98795238Y-105358333D01*
X98890476Y-105310714D01*
X99033333Y-105310714D01*
X99128571Y-105358333D01*
X99176190Y-105405952D01*
X99223809Y-105501190D01*
X99223809Y-105786904D01*
X99176190Y-105882142D01*
X99128571Y-105929761D01*
X99033333Y-105977380D01*
X98890476Y-105977380D01*
X99652380Y-105977380D02*
X99652380Y-105310714D01*
X99652380Y-105405952D02*
X99700000Y-105358333D01*
X99795238Y-105310714D01*
X99938095Y-105310714D01*
X100033333Y-105358333D01*
X100080952Y-105453571D01*
X100080952Y-105977380D01*
X100080952Y-105453571D02*
X100128571Y-105358333D01*
X100223809Y-105310714D01*
X100366666Y-105310714D01*
X100461904Y-105358333D01*
X100509523Y-105453571D01*
X100509523Y-105977380D01*
X101700000Y-104929761D02*
X100842857Y-106215476D01*
X102461904Y-105977380D02*
X102461904Y-105453571D01*
X102414285Y-105358333D01*
X102319047Y-105310714D01*
X102128571Y-105310714D01*
X102033333Y-105358333D01*
X102461904Y-105929761D02*
X102366666Y-105977380D01*
X102128571Y-105977380D01*
X102033333Y-105929761D01*
X101985714Y-105834523D01*
X101985714Y-105739285D01*
X102033333Y-105644047D01*
X102128571Y-105596428D01*
X102366666Y-105596428D01*
X102461904Y-105548809D01*
X102938095Y-105977380D02*
X102938095Y-105310714D01*
X102938095Y-105405952D02*
X102985714Y-105358333D01*
X103080952Y-105310714D01*
X103223809Y-105310714D01*
X103319047Y-105358333D01*
X103366666Y-105453571D01*
X103366666Y-105977380D01*
X103366666Y-105453571D02*
X103414285Y-105358333D01*
X103509523Y-105310714D01*
X103652380Y-105310714D01*
X103747619Y-105358333D01*
X103795238Y-105453571D01*
X103795238Y-105977380D01*
X104461904Y-104977380D02*
X104557142Y-104977380D01*
X104652380Y-105025000D01*
X104700000Y-105072619D01*
X104747619Y-105167857D01*
X104795238Y-105358333D01*
X104795238Y-105596428D01*
X104747619Y-105786904D01*
X104700000Y-105882142D01*
X104652380Y-105929761D01*
X104557142Y-105977380D01*
X104461904Y-105977380D01*
X104366666Y-105929761D01*
X104319047Y-105882142D01*
X104271428Y-105786904D01*
X104223809Y-105596428D01*
X104223809Y-105358333D01*
X104271428Y-105167857D01*
X104319047Y-105072619D01*
X104366666Y-105025000D01*
X104461904Y-104977380D01*
X105414285Y-104977380D02*
X105509523Y-104977380D01*
X105604761Y-105025000D01*
X105652380Y-105072619D01*
X105700000Y-105167857D01*
X105747619Y-105358333D01*
X105747619Y-105596428D01*
X105700000Y-105786904D01*
X105652380Y-105882142D01*
X105604761Y-105929761D01*
X105509523Y-105977380D01*
X105414285Y-105977380D01*
X105319047Y-105929761D01*
X105271428Y-105882142D01*
X105223809Y-105786904D01*
X105176190Y-105596428D01*
X105176190Y-105358333D01*
X105223809Y-105167857D01*
X105271428Y-105072619D01*
X105319047Y-105025000D01*
X105414285Y-104977380D01*
X106223809Y-105977380D02*
X106414285Y-105977380D01*
X106509523Y-105929761D01*
X106557142Y-105882142D01*
X106652380Y-105739285D01*
X106700000Y-105548809D01*
X106700000Y-105167857D01*
X106652380Y-105072619D01*
X106604761Y-105025000D01*
X106509523Y-104977380D01*
X106319047Y-104977380D01*
X106223809Y-105025000D01*
X106176190Y-105072619D01*
X106128571Y-105167857D01*
X106128571Y-105405952D01*
X106176190Y-105501190D01*
X106223809Y-105548809D01*
X106319047Y-105596428D01*
X106509523Y-105596428D01*
X106604761Y-105548809D01*
X106652380Y-105501190D01*
X106700000Y-105405952D01*
X117666666Y-89804761D02*
X117809523Y-89852380D01*
X118047619Y-89852380D01*
X118142857Y-89804761D01*
X118190476Y-89757142D01*
X118238095Y-89661904D01*
X118238095Y-89566666D01*
X118190476Y-89471428D01*
X118142857Y-89423809D01*
X118047619Y-89376190D01*
X117857142Y-89328571D01*
X117761904Y-89280952D01*
X117714285Y-89233333D01*
X117666666Y-89138095D01*
X117666666Y-89042857D01*
X117714285Y-88947619D01*
X117761904Y-88900000D01*
X117857142Y-88852380D01*
X118095238Y-88852380D01*
X118238095Y-88900000D01*
X118571428Y-88852380D02*
X118809523Y-89852380D01*
X119000000Y-89138095D01*
X119190476Y-89852380D01*
X119428571Y-88852380D01*
X119761904Y-88947619D02*
X119809523Y-88900000D01*
X119904761Y-88852380D01*
X120142857Y-88852380D01*
X120238095Y-88900000D01*
X120285714Y-88947619D01*
X120333333Y-89042857D01*
X120333333Y-89138095D01*
X120285714Y-89280952D01*
X119714285Y-89852380D01*
X120333333Y-89852380D01*
X98666666Y-89804761D02*
X98809523Y-89852380D01*
X99047619Y-89852380D01*
X99142857Y-89804761D01*
X99190476Y-89757142D01*
X99238095Y-89661904D01*
X99238095Y-89566666D01*
X99190476Y-89471428D01*
X99142857Y-89423809D01*
X99047619Y-89376190D01*
X98857142Y-89328571D01*
X98761904Y-89280952D01*
X98714285Y-89233333D01*
X98666666Y-89138095D01*
X98666666Y-89042857D01*
X98714285Y-88947619D01*
X98761904Y-88900000D01*
X98857142Y-88852380D01*
X99095238Y-88852380D01*
X99238095Y-88900000D01*
X99571428Y-88852380D02*
X99809523Y-89852380D01*
X100000000Y-89138095D01*
X100190476Y-89852380D01*
X100428571Y-88852380D01*
X101333333Y-89852380D02*
X100761904Y-89852380D01*
X101047619Y-89852380D02*
X101047619Y-88852380D01*
X100952380Y-88995238D01*
X100857142Y-89090476D01*
X100761904Y-89138095D01*
X136666666Y-89804761D02*
X136809523Y-89852380D01*
X137047619Y-89852380D01*
X137142857Y-89804761D01*
X137190476Y-89757142D01*
X137238095Y-89661904D01*
X137238095Y-89566666D01*
X137190476Y-89471428D01*
X137142857Y-89423809D01*
X137047619Y-89376190D01*
X136857142Y-89328571D01*
X136761904Y-89280952D01*
X136714285Y-89233333D01*
X136666666Y-89138095D01*
X136666666Y-89042857D01*
X136714285Y-88947619D01*
X136761904Y-88900000D01*
X136857142Y-88852380D01*
X137095238Y-88852380D01*
X137238095Y-88900000D01*
X137571428Y-88852380D02*
X137809523Y-89852380D01*
X138000000Y-89138095D01*
X138190476Y-89852380D01*
X138428571Y-88852380D01*
X138714285Y-88852380D02*
X139333333Y-88852380D01*
X139000000Y-89233333D01*
X139142857Y-89233333D01*
X139238095Y-89280952D01*
X139285714Y-89328571D01*
X139333333Y-89423809D01*
X139333333Y-89661904D01*
X139285714Y-89757142D01*
X139238095Y-89804761D01*
X139142857Y-89852380D01*
X138857142Y-89852380D01*
X138761904Y-89804761D01*
X138714285Y-89757142D01*
D11*
X126100000Y-104500000D02*
X126100000Y-90300000D01*
X111900000Y-90300000D02*
X111900000Y-104500000D01*
X111900000Y-104500000D02*
X126100000Y-104500000D01*
X126100000Y-90300000D02*
X111900000Y-90300000D01*
X92900000Y-104500000D02*
X107100000Y-104500000D01*
X92900000Y-90300000D02*
X92900000Y-104500000D01*
X107100000Y-90300000D02*
X92900000Y-90300000D01*
X107100000Y-104500000D02*
X107100000Y-90300000D01*
X145100000Y-90300000D02*
X130900000Y-90300000D01*
X145100000Y-104500000D02*
X145100000Y-90300000D01*
X130900000Y-90300000D02*
X130900000Y-104500000D01*
X130900000Y-104500000D02*
X145100000Y-104500000D01*
%LPC*%
D12*
X119000000Y-97400000D03*
D13*
X113920000Y-97400000D03*
X124080000Y-97400000D03*
X94920000Y-97400000D03*
X105080000Y-97400000D03*
D12*
X100000000Y-97400000D03*
X138000000Y-97400000D03*
D13*
X143080000Y-97400000D03*
X132920000Y-97400000D03*
D14*
X105000000Y-86000000D03*
D15*
X107540000Y-86000000D03*
X110080000Y-86000000D03*
X112620000Y-86000000D03*
X115160000Y-86000000D03*
X117700000Y-86000000D03*
X120240000Y-86000000D03*
X122780000Y-86000000D03*
D14*
X105000000Y-108800000D03*
D15*
X107540000Y-108800000D03*
X110080000Y-108800000D03*
X112620000Y-108800000D03*
X115160000Y-108800000D03*
X117700000Y-108800000D03*
X120240000Y-108800000D03*
X122780000Y-108800000D03*
M02*
