G04 #@! TF.GenerationSoftware,KiCad,Pcbnew,(6.0.4)*
G04 #@! TF.CreationDate,2022-05-25T10:20:10+08:00*
G04 #@! TF.ProjectId,3key-v2,336b6579-2d76-4322-9e6b-696361645f70,rev?*
G04 #@! TF.SameCoordinates,Original*
G04 #@! TF.FileFunction,Profile,NP*
%FSLAX46Y46*%
G04 Gerber Fmt 4.6, Leading zero omitted, Abs format (unit mm)*
G04 Created by KiCad (PCBNEW (6.0.4)) date 2022-05-25 10:20:10*
%MOMM*%
%LPD*%
G01*
G04 APERTURE LIST*
G04 #@! TA.AperFunction,Profile*
%ADD10C,0.100000*%
G04 #@! TD*
G04 APERTURE END LIST*
D10*
X124550000Y-84200000D02*
X103200000Y-84200000D01*
X90475000Y-104675000D02*
G75*
G03*
X92725000Y-106925000I2250000J0D01*
G01*
X99650000Y-107000000D02*
X99650000Y-106925000D01*
X128100000Y-87750000D02*
X128100000Y-87875000D01*
X103200000Y-84200000D02*
G75*
G03*
X99650000Y-87750000I0J-3550000D01*
G01*
X128100000Y-87750000D02*
G75*
G03*
X124550000Y-84200000I-3550000J0D01*
G01*
X90475000Y-90125000D02*
X90475000Y-104675000D01*
X103200000Y-110550000D02*
X124550000Y-110550000D01*
X147525000Y-90125000D02*
G75*
G03*
X145275000Y-87875000I-2250000J0D01*
G01*
X92725000Y-87875000D02*
G75*
G03*
X90475000Y-90125000I0J-2250000D01*
G01*
X99650000Y-107000000D02*
G75*
G03*
X103200000Y-110550000I3550000J0D01*
G01*
X99650000Y-87875000D02*
X92725000Y-87875000D01*
X145275000Y-87875000D02*
X128100000Y-87875000D01*
X92725000Y-106925000D02*
X99650000Y-106925000D01*
X93550000Y-89950000D02*
G75*
G03*
X93550000Y-89950000I-1000000J0D01*
G01*
X124550000Y-110550000D02*
G75*
G03*
X128100000Y-107000000I0J3550000D01*
G01*
X128100000Y-106925000D02*
X128100000Y-107000000D01*
X99650000Y-87750000D02*
X99650000Y-87875000D01*
X147524999Y-104700000D02*
X147525000Y-90125000D01*
X145275000Y-106925138D02*
G75*
G03*
X147524999Y-104700000I0J2250138D01*
G01*
X128100000Y-106925000D02*
X145275000Y-106925138D01*
M02*
