G04 #@! TF.GenerationSoftware,KiCad,Pcbnew,(6.0.4)*
G04 #@! TF.CreationDate,2022-05-25T10:20:10+08:00*
G04 #@! TF.ProjectId,3key-v2,336b6579-2d76-4322-9e6b-696361645f70,rev?*
G04 #@! TF.SameCoordinates,Original*
G04 #@! TF.FileFunction,Copper,L2,Bot*
G04 #@! TF.FilePolarity,Positive*
%FSLAX46Y46*%
G04 Gerber Fmt 4.6, Leading zero omitted, Abs format (unit mm)*
G04 Created by KiCad (PCBNEW (6.0.4)) date 2022-05-25 10:20:10*
%MOMM*%
%LPD*%
G01*
G04 APERTURE LIST*
G04 Aperture macros list*
%AMRoundRect*
0 Rectangle with rounded corners*
0 $1 Rounding radius*
0 $2 $3 $4 $5 $6 $7 $8 $9 X,Y pos of 4 corners*
0 Add a 4 corners polygon primitive as box body*
4,1,4,$2,$3,$4,$5,$6,$7,$8,$9,$2,$3,0*
0 Add four circle primitives for the rounded corners*
1,1,$1+$1,$2,$3*
1,1,$1+$1,$4,$5*
1,1,$1+$1,$6,$7*
1,1,$1+$1,$8,$9*
0 Add four rect primitives between the rounded corners*
20,1,$1+$1,$2,$3,$4,$5,0*
20,1,$1+$1,$4,$5,$6,$7,0*
20,1,$1+$1,$6,$7,$8,$9,0*
20,1,$1+$1,$8,$9,$2,$3,0*%
G04 Aperture macros list end*
G04 #@! TA.AperFunction,ComponentPad*
%ADD10C,3.600000*%
G04 #@! TD*
G04 #@! TA.AperFunction,SMDPad,CuDef*
%ADD11RoundRect,0.250000X-1.525000X-1.000000X1.525000X-1.000000X1.525000X1.000000X-1.525000X1.000000X0*%
G04 #@! TD*
G04 #@! TA.AperFunction,SMDPad,CuDef*
%ADD12RoundRect,0.250000X-0.350000X-0.450000X0.350000X-0.450000X0.350000X0.450000X-0.350000X0.450000X0*%
G04 #@! TD*
G04 #@! TA.AperFunction,SMDPad,CuDef*
%ADD13RoundRect,0.250000X0.350000X0.450000X-0.350000X0.450000X-0.350000X-0.450000X0.350000X-0.450000X0*%
G04 #@! TD*
G04 #@! TA.AperFunction,ComponentPad*
%ADD14R,1.700000X1.700000*%
G04 #@! TD*
G04 #@! TA.AperFunction,ComponentPad*
%ADD15O,1.700000X1.700000*%
G04 #@! TD*
G04 #@! TA.AperFunction,Conductor*
%ADD16C,0.250000*%
G04 #@! TD*
G04 APERTURE END LIST*
D10*
X121540000Y-92320000D03*
D11*
X124320000Y-92320000D03*
D10*
X115190000Y-94860000D03*
D11*
X112415000Y-94860000D03*
X105320000Y-92320000D03*
D10*
X102540000Y-92320000D03*
D11*
X93415000Y-94860000D03*
D10*
X96190000Y-94860000D03*
D11*
X131415000Y-94860000D03*
D10*
X134190000Y-94860000D03*
X140540000Y-92320000D03*
D11*
X143320000Y-92320000D03*
D12*
X110500000Y-105500000D03*
X108500000Y-105500000D03*
D13*
X129500000Y-89500000D03*
X127500000Y-89500000D03*
D12*
X108500000Y-89500000D03*
X110500000Y-89500000D03*
D14*
X105000000Y-86000000D03*
D15*
X107540000Y-86000000D03*
X110080000Y-86000000D03*
X112620000Y-86000000D03*
X115160000Y-86000000D03*
X117700000Y-86000000D03*
X120240000Y-86000000D03*
X122780000Y-86000000D03*
D14*
X105000000Y-108800000D03*
D15*
X107540000Y-108800000D03*
X110080000Y-108800000D03*
X112620000Y-108800000D03*
X115160000Y-108800000D03*
X117700000Y-108800000D03*
X120240000Y-108800000D03*
X122780000Y-108800000D03*
D16*
X108280000Y-107000000D02*
X107000000Y-107000000D01*
X110080000Y-108800000D02*
X108280000Y-107000000D01*
X105320000Y-92320000D02*
X105680000Y-92320000D01*
X107000000Y-94000000D02*
X105320000Y-92320000D01*
X107000000Y-107000000D02*
X107000000Y-94000000D01*
X105680000Y-92320000D02*
X108500000Y-89500000D01*
X129500000Y-89500000D02*
X129500000Y-90500000D01*
X124500000Y-92500000D02*
X124320000Y-92320000D01*
X127500000Y-92500000D02*
X124500000Y-92500000D01*
X129500000Y-90500000D02*
X127500000Y-92500000D01*
X110000000Y-107000000D02*
X108500000Y-105500000D01*
X117700000Y-108800000D02*
X115900000Y-107000000D01*
X115900000Y-107000000D02*
X110000000Y-107000000D01*
X108500000Y-94000000D02*
X110500000Y-92000000D01*
X119500000Y-105500000D02*
X110500000Y-105500000D01*
X110500000Y-99000000D02*
X108500000Y-97000000D01*
X110500000Y-92000000D02*
X110500000Y-89500000D01*
X122780000Y-108800000D02*
X119500000Y-105520000D01*
X108500000Y-97000000D02*
X108500000Y-94000000D01*
X110500000Y-105500000D02*
X110500000Y-99000000D01*
X119500000Y-105520000D02*
X119500000Y-105500000D01*
X110500000Y-89500000D02*
X127500000Y-89500000D01*
X120240000Y-86000000D02*
X118370000Y-87870000D01*
X118370000Y-87870000D02*
X100405000Y-87870000D01*
X100405000Y-87870000D02*
X93415000Y-94860000D01*
X112415000Y-93825000D02*
X112415000Y-94860000D01*
G04 #@! TA.AperFunction,NonConductor*
G36*
X106687867Y-84728502D02*
G01*
X106734360Y-84782158D01*
X106744464Y-84852432D01*
X106714970Y-84917012D01*
X106695399Y-84935260D01*
X106643207Y-84974447D01*
X106634965Y-84980635D01*
X106578537Y-85039684D01*
X106554283Y-85065064D01*
X106492759Y-85100494D01*
X106421846Y-85097037D01*
X106364060Y-85055791D01*
X106345207Y-85022243D01*
X106303764Y-84911696D01*
X106300615Y-84903295D01*
X106295234Y-84896116D01*
X106294628Y-84895008D01*
X106279459Y-84825651D01*
X106304196Y-84759103D01*
X106360984Y-84716493D01*
X106405148Y-84708500D01*
X106619746Y-84708500D01*
X106687867Y-84728502D01*
G37*
G04 #@! TD.AperFunction*
G04 #@! TA.AperFunction,NonConductor*
G36*
X111767867Y-84728502D02*
G01*
X111814360Y-84782158D01*
X111824464Y-84852432D01*
X111794970Y-84917012D01*
X111775399Y-84935260D01*
X111723207Y-84974447D01*
X111714965Y-84980635D01*
X111711393Y-84984373D01*
X111603729Y-85097037D01*
X111560629Y-85142138D01*
X111453201Y-85299621D01*
X111398293Y-85344621D01*
X111327768Y-85352792D01*
X111264021Y-85321538D01*
X111243324Y-85297054D01*
X111162822Y-85172617D01*
X111162820Y-85172614D01*
X111160014Y-85168277D01*
X111009670Y-85003051D01*
X111005619Y-84999852D01*
X111005615Y-84999848D01*
X110921454Y-84933382D01*
X110880391Y-84875465D01*
X110877159Y-84804542D01*
X110912784Y-84743130D01*
X110975956Y-84710728D01*
X110999546Y-84708500D01*
X111699746Y-84708500D01*
X111767867Y-84728502D01*
G37*
G04 #@! TD.AperFunction*
G04 #@! TA.AperFunction,NonConductor*
G36*
X121927867Y-84728502D02*
G01*
X121974360Y-84782158D01*
X121984464Y-84852432D01*
X121954970Y-84917012D01*
X121935399Y-84935260D01*
X121883207Y-84974447D01*
X121874965Y-84980635D01*
X121871393Y-84984373D01*
X121763729Y-85097037D01*
X121720629Y-85142138D01*
X121613201Y-85299621D01*
X121558293Y-85344621D01*
X121487768Y-85352792D01*
X121424021Y-85321538D01*
X121403324Y-85297054D01*
X121322822Y-85172617D01*
X121322820Y-85172614D01*
X121320014Y-85168277D01*
X121169670Y-85003051D01*
X121165619Y-84999852D01*
X121165615Y-84999848D01*
X121081454Y-84933382D01*
X121040391Y-84875465D01*
X121037159Y-84804542D01*
X121072784Y-84743130D01*
X121135956Y-84710728D01*
X121159546Y-84708500D01*
X121859746Y-84708500D01*
X121927867Y-84728502D01*
G37*
G04 #@! TD.AperFunction*
G04 #@! TA.AperFunction,NonConductor*
G36*
X119387867Y-84728502D02*
G01*
X119434360Y-84782158D01*
X119444464Y-84852432D01*
X119414970Y-84917012D01*
X119395399Y-84935260D01*
X119343207Y-84974447D01*
X119334965Y-84980635D01*
X119331393Y-84984373D01*
X119223729Y-85097037D01*
X119180629Y-85142138D01*
X119073201Y-85299621D01*
X119018293Y-85344621D01*
X118947768Y-85352792D01*
X118884021Y-85321538D01*
X118863324Y-85297054D01*
X118782822Y-85172617D01*
X118782820Y-85172614D01*
X118780014Y-85168277D01*
X118629670Y-85003051D01*
X118625619Y-84999852D01*
X118625615Y-84999848D01*
X118541454Y-84933382D01*
X118500391Y-84875465D01*
X118497159Y-84804542D01*
X118532784Y-84743130D01*
X118595956Y-84710728D01*
X118619546Y-84708500D01*
X119319746Y-84708500D01*
X119387867Y-84728502D01*
G37*
G04 #@! TD.AperFunction*
G04 #@! TA.AperFunction,NonConductor*
G36*
X109227867Y-84728502D02*
G01*
X109274360Y-84782158D01*
X109284464Y-84852432D01*
X109254970Y-84917012D01*
X109235399Y-84935260D01*
X109183207Y-84974447D01*
X109174965Y-84980635D01*
X109171393Y-84984373D01*
X109063729Y-85097037D01*
X109020629Y-85142138D01*
X108913201Y-85299621D01*
X108858293Y-85344621D01*
X108787768Y-85352792D01*
X108724021Y-85321538D01*
X108703324Y-85297054D01*
X108622822Y-85172617D01*
X108622820Y-85172614D01*
X108620014Y-85168277D01*
X108469670Y-85003051D01*
X108465619Y-84999852D01*
X108465615Y-84999848D01*
X108381454Y-84933382D01*
X108340391Y-84875465D01*
X108337159Y-84804542D01*
X108372784Y-84743130D01*
X108435956Y-84710728D01*
X108459546Y-84708500D01*
X109159746Y-84708500D01*
X109227867Y-84728502D01*
G37*
G04 #@! TD.AperFunction*
G04 #@! TA.AperFunction,NonConductor*
G36*
X116847867Y-84728502D02*
G01*
X116894360Y-84782158D01*
X116904464Y-84852432D01*
X116874970Y-84917012D01*
X116855399Y-84935260D01*
X116803207Y-84974447D01*
X116794965Y-84980635D01*
X116791393Y-84984373D01*
X116683729Y-85097037D01*
X116640629Y-85142138D01*
X116533201Y-85299621D01*
X116478293Y-85344621D01*
X116407768Y-85352792D01*
X116344021Y-85321538D01*
X116323324Y-85297054D01*
X116242822Y-85172617D01*
X116242820Y-85172614D01*
X116240014Y-85168277D01*
X116089670Y-85003051D01*
X116085619Y-84999852D01*
X116085615Y-84999848D01*
X116001454Y-84933382D01*
X115960391Y-84875465D01*
X115957159Y-84804542D01*
X115992784Y-84743130D01*
X116055956Y-84710728D01*
X116079546Y-84708500D01*
X116779746Y-84708500D01*
X116847867Y-84728502D01*
G37*
G04 #@! TD.AperFunction*
G04 #@! TA.AperFunction,NonConductor*
G36*
X114307867Y-84728502D02*
G01*
X114354360Y-84782158D01*
X114364464Y-84852432D01*
X114334970Y-84917012D01*
X114315399Y-84935260D01*
X114263207Y-84974447D01*
X114254965Y-84980635D01*
X114251393Y-84984373D01*
X114143729Y-85097037D01*
X114100629Y-85142138D01*
X113993201Y-85299621D01*
X113938293Y-85344621D01*
X113867768Y-85352792D01*
X113804021Y-85321538D01*
X113783324Y-85297054D01*
X113702822Y-85172617D01*
X113702820Y-85172614D01*
X113700014Y-85168277D01*
X113549670Y-85003051D01*
X113545619Y-84999852D01*
X113545615Y-84999848D01*
X113461454Y-84933382D01*
X113420391Y-84875465D01*
X113417159Y-84804542D01*
X113452784Y-84743130D01*
X113515956Y-84710728D01*
X113539546Y-84708500D01*
X114239746Y-84708500D01*
X114307867Y-84728502D01*
G37*
G04 #@! TD.AperFunction*
G04 #@! TA.AperFunction,NonConductor*
G36*
X108892026Y-86675144D02*
G01*
X108919875Y-86706994D01*
X108979987Y-86805088D01*
X109126250Y-86973938D01*
X109130225Y-86977238D01*
X109130228Y-86977241D01*
X109173970Y-87013556D01*
X109213605Y-87072459D01*
X109215103Y-87143440D01*
X109177988Y-87203962D01*
X109114044Y-87234811D01*
X109093485Y-87236500D01*
X108528794Y-87236500D01*
X108460673Y-87216498D01*
X108414180Y-87162842D01*
X108404076Y-87092568D01*
X108433570Y-87027988D01*
X108439854Y-87021249D01*
X108563616Y-86897918D01*
X108578096Y-86883489D01*
X108708453Y-86702077D01*
X108709776Y-86703028D01*
X108756645Y-86659857D01*
X108826580Y-86647625D01*
X108892026Y-86675144D01*
G37*
G04 #@! TD.AperFunction*
G04 #@! TA.AperFunction,NonConductor*
G36*
X111432026Y-86675144D02*
G01*
X111459875Y-86706994D01*
X111519987Y-86805088D01*
X111666250Y-86973938D01*
X111670225Y-86977238D01*
X111670228Y-86977241D01*
X111713970Y-87013556D01*
X111753605Y-87072459D01*
X111755103Y-87143440D01*
X111717988Y-87203962D01*
X111654044Y-87234811D01*
X111633485Y-87236500D01*
X111068794Y-87236500D01*
X111000673Y-87216498D01*
X110954180Y-87162842D01*
X110944076Y-87092568D01*
X110973570Y-87027988D01*
X110979854Y-87021249D01*
X111103616Y-86897918D01*
X111118096Y-86883489D01*
X111248453Y-86702077D01*
X111249776Y-86703028D01*
X111296645Y-86659857D01*
X111366580Y-86647625D01*
X111432026Y-86675144D01*
G37*
G04 #@! TD.AperFunction*
G04 #@! TA.AperFunction,NonConductor*
G36*
X113972026Y-86675144D02*
G01*
X113999875Y-86706994D01*
X114059987Y-86805088D01*
X114206250Y-86973938D01*
X114210225Y-86977238D01*
X114210228Y-86977241D01*
X114253970Y-87013556D01*
X114293605Y-87072459D01*
X114295103Y-87143440D01*
X114257988Y-87203962D01*
X114194044Y-87234811D01*
X114173485Y-87236500D01*
X113608794Y-87236500D01*
X113540673Y-87216498D01*
X113494180Y-87162842D01*
X113484076Y-87092568D01*
X113513570Y-87027988D01*
X113519854Y-87021249D01*
X113643616Y-86897918D01*
X113658096Y-86883489D01*
X113788453Y-86702077D01*
X113789776Y-86703028D01*
X113836645Y-86659857D01*
X113906580Y-86647625D01*
X113972026Y-86675144D01*
G37*
G04 #@! TD.AperFunction*
G04 #@! TA.AperFunction,NonConductor*
G36*
X116512026Y-86675144D02*
G01*
X116539875Y-86706994D01*
X116599987Y-86805088D01*
X116746250Y-86973938D01*
X116750225Y-86977238D01*
X116750228Y-86977241D01*
X116793970Y-87013556D01*
X116833605Y-87072459D01*
X116835103Y-87143440D01*
X116797988Y-87203962D01*
X116734044Y-87234811D01*
X116713485Y-87236500D01*
X116148794Y-87236500D01*
X116080673Y-87216498D01*
X116034180Y-87162842D01*
X116024076Y-87092568D01*
X116053570Y-87027988D01*
X116059854Y-87021249D01*
X116183616Y-86897918D01*
X116198096Y-86883489D01*
X116328453Y-86702077D01*
X116329776Y-86703028D01*
X116376645Y-86659857D01*
X116446580Y-86647625D01*
X116512026Y-86675144D01*
G37*
G04 #@! TD.AperFunction*
G04 #@! TA.AperFunction,NonConductor*
G36*
X103662973Y-84728502D02*
G01*
X103709466Y-84782158D01*
X103719570Y-84852432D01*
X103705372Y-84895008D01*
X103704766Y-84896116D01*
X103699385Y-84903295D01*
X103648255Y-85039684D01*
X103641500Y-85101866D01*
X103641500Y-86898134D01*
X103648255Y-86960316D01*
X103651027Y-86967712D01*
X103651029Y-86967718D01*
X103687975Y-87066271D01*
X103693158Y-87137078D01*
X103659237Y-87199447D01*
X103596981Y-87233576D01*
X103569993Y-87236500D01*
X100483767Y-87236500D01*
X100472584Y-87235973D01*
X100465091Y-87234298D01*
X100457165Y-87234547D01*
X100457164Y-87234547D01*
X100397001Y-87236438D01*
X100393043Y-87236500D01*
X100365144Y-87236500D01*
X100364395Y-87236595D01*
X100295848Y-87221061D01*
X100246082Y-87170427D01*
X100231590Y-87100925D01*
X100235479Y-87078396D01*
X100305656Y-86816492D01*
X100309730Y-86803956D01*
X100310985Y-86800688D01*
X100419083Y-86519080D01*
X100424447Y-86507031D01*
X100562987Y-86235133D01*
X100569581Y-86223712D01*
X100735782Y-85967784D01*
X100743535Y-85957114D01*
X100935570Y-85719970D01*
X100944395Y-85710169D01*
X101160169Y-85494395D01*
X101169970Y-85485570D01*
X101407114Y-85293535D01*
X101417784Y-85285782D01*
X101673712Y-85119581D01*
X101685133Y-85112987D01*
X101957031Y-84974447D01*
X101969080Y-84969083D01*
X102253956Y-84859730D01*
X102266499Y-84855654D01*
X102561259Y-84776673D01*
X102574159Y-84773931D01*
X102667780Y-84759103D01*
X102875563Y-84726194D01*
X102888675Y-84724816D01*
X102943400Y-84721948D01*
X103157299Y-84710738D01*
X103183276Y-84712065D01*
X103184846Y-84712309D01*
X103184850Y-84712309D01*
X103193724Y-84713691D01*
X103202626Y-84712527D01*
X103202628Y-84712527D01*
X103217677Y-84710559D01*
X103225286Y-84709564D01*
X103241621Y-84708500D01*
X103594852Y-84708500D01*
X103662973Y-84728502D01*
G37*
G04 #@! TD.AperFunction*
G04 #@! TA.AperFunction,NonConductor*
G36*
X124520018Y-84710000D02*
G01*
X124534851Y-84712310D01*
X124534855Y-84712310D01*
X124543724Y-84713691D01*
X124562436Y-84711244D01*
X124585366Y-84710353D01*
X124861327Y-84724816D01*
X124874437Y-84726194D01*
X125082220Y-84759103D01*
X125175841Y-84773931D01*
X125188741Y-84776673D01*
X125483501Y-84855654D01*
X125496044Y-84859730D01*
X125780920Y-84969083D01*
X125792969Y-84974447D01*
X126064867Y-85112987D01*
X126076288Y-85119581D01*
X126332216Y-85285782D01*
X126342886Y-85293535D01*
X126580030Y-85485570D01*
X126589831Y-85494395D01*
X126805605Y-85710169D01*
X126814430Y-85719970D01*
X127006465Y-85957114D01*
X127014218Y-85967784D01*
X127180419Y-86223712D01*
X127187013Y-86235133D01*
X127325553Y-86507031D01*
X127330917Y-86519080D01*
X127439016Y-86800688D01*
X127440270Y-86803956D01*
X127444346Y-86816498D01*
X127466162Y-86897918D01*
X127523327Y-87111259D01*
X127526069Y-87124159D01*
X127562434Y-87353757D01*
X127573806Y-87425560D01*
X127575184Y-87438677D01*
X127589262Y-87707299D01*
X127587935Y-87733276D01*
X127587691Y-87734846D01*
X127587691Y-87734850D01*
X127586309Y-87743724D01*
X127587473Y-87752626D01*
X127587473Y-87752628D01*
X127590436Y-87775283D01*
X127591500Y-87791621D01*
X127591500Y-87866377D01*
X127591498Y-87867147D01*
X127591024Y-87944721D01*
X127593491Y-87953352D01*
X127599150Y-87973153D01*
X127602728Y-87989915D01*
X127606920Y-88019187D01*
X127610634Y-88027355D01*
X127610634Y-88027356D01*
X127617548Y-88042562D01*
X127623996Y-88060086D01*
X127631051Y-88084771D01*
X127635843Y-88092365D01*
X127635844Y-88092368D01*
X127639564Y-88098264D01*
X127658999Y-88166548D01*
X127638430Y-88234500D01*
X127584390Y-88280545D01*
X127533003Y-88291500D01*
X127099600Y-88291500D01*
X127096354Y-88291837D01*
X127096350Y-88291837D01*
X127000692Y-88301762D01*
X127000688Y-88301763D01*
X126993834Y-88302474D01*
X126987298Y-88304655D01*
X126987296Y-88304655D01*
X126859235Y-88347380D01*
X126826054Y-88358450D01*
X126675652Y-88451522D01*
X126550695Y-88576697D01*
X126546855Y-88582927D01*
X126546854Y-88582928D01*
X126477277Y-88695803D01*
X126457885Y-88727262D01*
X126455581Y-88734209D01*
X126440337Y-88780168D01*
X126399906Y-88838527D01*
X126334342Y-88865764D01*
X126320744Y-88866500D01*
X111679197Y-88866500D01*
X111611076Y-88846498D01*
X111564583Y-88792842D01*
X111559674Y-88780377D01*
X111543867Y-88732998D01*
X111543866Y-88732996D01*
X111541550Y-88726054D01*
X111522830Y-88695803D01*
X111503992Y-88627351D01*
X111525153Y-88559582D01*
X111579594Y-88514010D01*
X111629974Y-88503500D01*
X118291233Y-88503500D01*
X118302416Y-88504027D01*
X118309909Y-88505702D01*
X118317835Y-88505453D01*
X118317836Y-88505453D01*
X118377986Y-88503562D01*
X118381945Y-88503500D01*
X118409856Y-88503500D01*
X118413791Y-88503003D01*
X118413856Y-88502995D01*
X118425693Y-88502062D01*
X118457951Y-88501048D01*
X118461970Y-88500922D01*
X118469889Y-88500673D01*
X118489343Y-88495021D01*
X118508700Y-88491013D01*
X118520930Y-88489468D01*
X118520931Y-88489468D01*
X118528797Y-88488474D01*
X118536168Y-88485555D01*
X118536170Y-88485555D01*
X118569912Y-88472196D01*
X118581142Y-88468351D01*
X118615983Y-88458229D01*
X118615984Y-88458229D01*
X118623593Y-88456018D01*
X118630412Y-88451985D01*
X118630417Y-88451983D01*
X118641028Y-88445707D01*
X118658776Y-88437012D01*
X118677617Y-88429552D01*
X118713387Y-88403564D01*
X118723307Y-88397048D01*
X118754535Y-88378580D01*
X118754538Y-88378578D01*
X118761362Y-88374542D01*
X118775683Y-88360221D01*
X118790717Y-88347380D01*
X118800694Y-88340131D01*
X118807107Y-88335472D01*
X118835298Y-88301395D01*
X118843288Y-88292616D01*
X119784549Y-87351355D01*
X119846861Y-87317329D01*
X119898762Y-87316979D01*
X120078597Y-87353567D01*
X120083772Y-87353757D01*
X120083774Y-87353757D01*
X120296673Y-87361564D01*
X120296677Y-87361564D01*
X120301837Y-87361753D01*
X120306957Y-87361097D01*
X120306959Y-87361097D01*
X120518288Y-87334025D01*
X120518289Y-87334025D01*
X120523416Y-87333368D01*
X120528366Y-87331883D01*
X120732429Y-87270661D01*
X120732434Y-87270659D01*
X120737384Y-87269174D01*
X120937994Y-87170896D01*
X121119860Y-87041173D01*
X121278096Y-86883489D01*
X121408453Y-86702077D01*
X121409776Y-86703028D01*
X121456645Y-86659857D01*
X121526580Y-86647625D01*
X121592026Y-86675144D01*
X121619875Y-86706994D01*
X121679987Y-86805088D01*
X121826250Y-86973938D01*
X121998126Y-87116632D01*
X122191000Y-87229338D01*
X122399692Y-87309030D01*
X122404760Y-87310061D01*
X122404763Y-87310062D01*
X122512017Y-87331883D01*
X122618597Y-87353567D01*
X122623772Y-87353757D01*
X122623774Y-87353757D01*
X122836673Y-87361564D01*
X122836677Y-87361564D01*
X122841837Y-87361753D01*
X122846957Y-87361097D01*
X122846959Y-87361097D01*
X123058288Y-87334025D01*
X123058289Y-87334025D01*
X123063416Y-87333368D01*
X123068366Y-87331883D01*
X123272429Y-87270661D01*
X123272434Y-87270659D01*
X123277384Y-87269174D01*
X123477994Y-87170896D01*
X123659860Y-87041173D01*
X123818096Y-86883489D01*
X123948453Y-86702077D01*
X123969320Y-86659857D01*
X124045136Y-86506453D01*
X124045137Y-86506451D01*
X124047430Y-86501811D01*
X124112370Y-86288069D01*
X124141529Y-86066590D01*
X124143156Y-86000000D01*
X124124852Y-85777361D01*
X124070431Y-85560702D01*
X123981354Y-85355840D01*
X123860014Y-85168277D01*
X123709670Y-85003051D01*
X123705619Y-84999852D01*
X123705615Y-84999848D01*
X123621454Y-84933382D01*
X123580391Y-84875465D01*
X123577159Y-84804542D01*
X123612784Y-84743130D01*
X123675956Y-84710728D01*
X123699546Y-84708500D01*
X124500633Y-84708500D01*
X124520018Y-84710000D01*
G37*
G04 #@! TD.AperFunction*
G04 #@! TA.AperFunction,NonConductor*
G36*
X126388924Y-90153502D02*
G01*
X126435417Y-90207158D01*
X126440326Y-90219623D01*
X126458450Y-90273946D01*
X126551522Y-90424348D01*
X126676697Y-90549305D01*
X126682927Y-90553145D01*
X126682928Y-90553146D01*
X126820090Y-90637694D01*
X126827262Y-90642115D01*
X126879487Y-90659437D01*
X126988611Y-90695632D01*
X126988613Y-90695632D01*
X126995139Y-90697797D01*
X127001975Y-90698497D01*
X127001978Y-90698498D01*
X127045031Y-90702909D01*
X127099600Y-90708500D01*
X127900400Y-90708500D01*
X127903646Y-90708163D01*
X127903650Y-90708163D01*
X127999308Y-90698238D01*
X127999312Y-90698237D01*
X128006166Y-90697526D01*
X128012702Y-90695345D01*
X128012704Y-90695345D01*
X128100428Y-90666078D01*
X128171378Y-90663494D01*
X128232462Y-90699678D01*
X128264286Y-90763142D01*
X128256747Y-90833737D01*
X128229402Y-90874694D01*
X127274498Y-91829597D01*
X127212188Y-91863621D01*
X127185405Y-91866500D01*
X126729500Y-91866500D01*
X126661379Y-91846498D01*
X126614886Y-91792842D01*
X126603500Y-91740500D01*
X126603500Y-91269600D01*
X126592526Y-91163834D01*
X126536550Y-90996054D01*
X126443478Y-90845652D01*
X126318303Y-90720695D01*
X126297987Y-90708172D01*
X126173968Y-90631725D01*
X126173966Y-90631724D01*
X126167738Y-90627885D01*
X126087995Y-90601436D01*
X126006389Y-90574368D01*
X126006387Y-90574368D01*
X125999861Y-90572203D01*
X125993025Y-90571503D01*
X125993022Y-90571502D01*
X125949969Y-90567091D01*
X125895400Y-90561500D01*
X123083435Y-90561500D01*
X123015314Y-90541498D01*
X123000364Y-90530237D01*
X122948341Y-90484614D01*
X122768226Y-90364265D01*
X122722698Y-90309788D01*
X122713850Y-90239345D01*
X122744491Y-90175301D01*
X122804893Y-90137990D01*
X122838228Y-90133500D01*
X126320803Y-90133500D01*
X126388924Y-90153502D01*
G37*
G04 #@! TD.AperFunction*
G04 #@! TA.AperFunction,NonConductor*
G36*
X98759527Y-88403502D02*
G01*
X98806020Y-88457158D01*
X98816124Y-88527432D01*
X98786630Y-88592012D01*
X98780502Y-88598594D01*
X96545358Y-90833737D01*
X94314500Y-93064595D01*
X94252188Y-93098621D01*
X94225405Y-93101500D01*
X91839600Y-93101500D01*
X91836354Y-93101837D01*
X91836350Y-93101837D01*
X91740692Y-93111762D01*
X91740688Y-93111763D01*
X91733834Y-93112474D01*
X91727298Y-93114655D01*
X91727296Y-93114655D01*
X91633902Y-93145814D01*
X91566054Y-93168450D01*
X91415652Y-93261522D01*
X91290695Y-93386697D01*
X91286855Y-93392927D01*
X91286854Y-93392928D01*
X91216760Y-93506641D01*
X91163987Y-93554134D01*
X91093916Y-93565558D01*
X91028792Y-93537284D01*
X90989293Y-93478290D01*
X90983500Y-93440525D01*
X90983500Y-90727558D01*
X91003502Y-90659437D01*
X91057158Y-90612944D01*
X91127432Y-90602840D01*
X91192012Y-90632334D01*
X91216933Y-90661723D01*
X91323241Y-90835202D01*
X91323245Y-90835208D01*
X91325824Y-90839416D01*
X91480031Y-91019969D01*
X91660584Y-91174176D01*
X91664792Y-91176755D01*
X91664798Y-91176759D01*
X91858817Y-91295654D01*
X91863037Y-91298240D01*
X91867607Y-91300133D01*
X91867611Y-91300135D01*
X91974946Y-91344594D01*
X92082406Y-91389105D01*
X92162609Y-91408360D01*
X92308476Y-91443380D01*
X92308482Y-91443381D01*
X92313289Y-91444535D01*
X92550000Y-91463165D01*
X92786711Y-91444535D01*
X92791518Y-91443381D01*
X92791524Y-91443380D01*
X92937391Y-91408360D01*
X93017594Y-91389105D01*
X93125054Y-91344594D01*
X93232389Y-91300135D01*
X93232393Y-91300133D01*
X93236963Y-91298240D01*
X93241183Y-91295654D01*
X93435202Y-91176759D01*
X93435208Y-91176755D01*
X93439416Y-91174176D01*
X93619969Y-91019969D01*
X93774176Y-90839416D01*
X93776755Y-90835208D01*
X93776759Y-90835202D01*
X93895654Y-90641183D01*
X93898240Y-90636963D01*
X93900158Y-90632334D01*
X93987211Y-90422167D01*
X93987212Y-90422165D01*
X93989105Y-90417594D01*
X94031899Y-90239345D01*
X94043380Y-90191524D01*
X94043381Y-90191518D01*
X94044535Y-90186711D01*
X94063165Y-89950000D01*
X94044535Y-89713289D01*
X94036581Y-89680155D01*
X93990260Y-89487218D01*
X93989105Y-89482406D01*
X93952339Y-89393644D01*
X93900135Y-89267611D01*
X93900133Y-89267607D01*
X93898240Y-89263037D01*
X93854330Y-89191382D01*
X93776759Y-89064798D01*
X93776755Y-89064792D01*
X93774176Y-89060584D01*
X93619969Y-88880031D01*
X93439416Y-88725824D01*
X93435208Y-88723245D01*
X93435202Y-88723241D01*
X93261723Y-88616933D01*
X93214092Y-88564285D01*
X93202485Y-88494243D01*
X93230588Y-88429046D01*
X93289479Y-88389392D01*
X93327558Y-88383500D01*
X98691406Y-88383500D01*
X98759527Y-88403502D01*
G37*
G04 #@! TD.AperFunction*
G04 #@! TA.AperFunction,NonConductor*
G36*
X109543886Y-90432815D02*
G01*
X109588976Y-90461736D01*
X109676697Y-90549305D01*
X109682927Y-90553145D01*
X109682928Y-90553146D01*
X109806616Y-90629389D01*
X109854110Y-90682162D01*
X109866500Y-90736649D01*
X109866500Y-91685406D01*
X109846498Y-91753527D01*
X109829595Y-91774501D01*
X108882773Y-92721322D01*
X108107747Y-93496348D01*
X108099461Y-93503888D01*
X108092982Y-93508000D01*
X108087557Y-93513777D01*
X108046357Y-93557651D01*
X108043602Y-93560493D01*
X108023865Y-93580230D01*
X108021385Y-93583427D01*
X108013682Y-93592447D01*
X107983414Y-93624679D01*
X107979595Y-93631625D01*
X107979593Y-93631628D01*
X107973652Y-93642434D01*
X107962801Y-93658953D01*
X107950386Y-93674959D01*
X107947241Y-93682228D01*
X107947238Y-93682232D01*
X107932826Y-93715537D01*
X107927609Y-93726187D01*
X107906305Y-93764940D01*
X107904334Y-93772615D01*
X107904334Y-93772616D01*
X107901267Y-93784562D01*
X107894863Y-93803266D01*
X107886819Y-93821855D01*
X107885580Y-93829678D01*
X107885577Y-93829688D01*
X107879901Y-93865524D01*
X107877495Y-93877145D01*
X107873111Y-93894220D01*
X107836796Y-93955227D01*
X107773264Y-93986916D01*
X107702685Y-93979226D01*
X107647468Y-93934599D01*
X107630072Y-93898039D01*
X107625022Y-93880657D01*
X107621012Y-93861295D01*
X107619467Y-93849064D01*
X107618474Y-93841203D01*
X107615557Y-93833836D01*
X107615556Y-93833831D01*
X107602198Y-93800092D01*
X107598354Y-93788865D01*
X107593633Y-93772616D01*
X107586018Y-93746407D01*
X107575707Y-93728972D01*
X107567012Y-93711224D01*
X107559552Y-93692383D01*
X107560123Y-93692156D01*
X107546059Y-93628388D01*
X107552170Y-93597347D01*
X107555231Y-93588120D01*
X107592797Y-93474861D01*
X107603500Y-93370400D01*
X107603500Y-91344594D01*
X107623502Y-91276473D01*
X107640405Y-91255499D01*
X108150499Y-90745405D01*
X108212811Y-90711379D01*
X108239594Y-90708500D01*
X108900400Y-90708500D01*
X108903646Y-90708163D01*
X108903650Y-90708163D01*
X108999308Y-90698238D01*
X108999312Y-90698237D01*
X109006166Y-90697526D01*
X109012702Y-90695345D01*
X109012704Y-90695345D01*
X109162928Y-90645226D01*
X109173946Y-90641550D01*
X109324348Y-90548478D01*
X109410784Y-90461891D01*
X109473066Y-90427812D01*
X109543886Y-90432815D01*
G37*
G04 #@! TD.AperFunction*
G04 #@! TA.AperFunction,NonConductor*
G36*
X107842012Y-97090973D02*
G01*
X107880898Y-97153822D01*
X107881526Y-97158797D01*
X107884445Y-97166168D01*
X107884445Y-97166170D01*
X107897804Y-97199912D01*
X107901649Y-97211142D01*
X107909524Y-97238247D01*
X107913982Y-97253593D01*
X107918015Y-97260412D01*
X107918017Y-97260417D01*
X107924293Y-97271028D01*
X107932988Y-97288776D01*
X107940448Y-97307617D01*
X107945110Y-97314033D01*
X107945110Y-97314034D01*
X107966436Y-97343387D01*
X107972952Y-97353307D01*
X107995458Y-97391362D01*
X108009779Y-97405683D01*
X108022619Y-97420716D01*
X108034528Y-97437107D01*
X108040634Y-97442158D01*
X108068605Y-97465298D01*
X108077384Y-97473288D01*
X109829595Y-99225500D01*
X109863621Y-99287812D01*
X109866500Y-99314595D01*
X109866500Y-104263219D01*
X109846498Y-104331340D01*
X109806803Y-104370363D01*
X109675652Y-104451522D01*
X109670479Y-104456704D01*
X109589216Y-104538109D01*
X109526934Y-104572188D01*
X109456114Y-104567185D01*
X109411025Y-104538264D01*
X109328483Y-104455866D01*
X109323303Y-104450695D01*
X109204464Y-104377441D01*
X109178968Y-104361725D01*
X109178966Y-104361724D01*
X109172738Y-104357885D01*
X109092707Y-104331340D01*
X109011389Y-104304368D01*
X109011387Y-104304368D01*
X109004861Y-104302203D01*
X108998025Y-104301503D01*
X108998022Y-104301502D01*
X108954969Y-104297091D01*
X108900400Y-104291500D01*
X108099600Y-104291500D01*
X108096354Y-104291837D01*
X108096350Y-104291837D01*
X108000692Y-104301762D01*
X108000688Y-104301763D01*
X107993834Y-104302474D01*
X107987298Y-104304655D01*
X107987296Y-104304655D01*
X107907312Y-104331340D01*
X107826054Y-104358450D01*
X107819823Y-104362306D01*
X107813203Y-104365407D01*
X107811828Y-104362471D01*
X107757233Y-104377441D01*
X107689484Y-104356216D01*
X107643963Y-104301733D01*
X107633500Y-104251461D01*
X107633500Y-97186197D01*
X107653502Y-97118076D01*
X107707158Y-97071583D01*
X107777432Y-97061479D01*
X107842012Y-97090973D01*
G37*
G04 #@! TD.AperFunction*
G04 #@! TA.AperFunction,NonConductor*
G36*
X119233527Y-106153502D02*
G01*
X119254501Y-106170405D01*
X120310086Y-107225990D01*
X120344112Y-107288302D01*
X120339047Y-107359117D01*
X120296500Y-107415953D01*
X120229980Y-107440764D01*
X120219459Y-107441076D01*
X120171962Y-107440495D01*
X120150080Y-107440228D01*
X120150078Y-107440228D01*
X120144911Y-107440165D01*
X119924091Y-107473955D01*
X119711756Y-107543357D01*
X119513607Y-107646507D01*
X119509474Y-107649610D01*
X119509471Y-107649612D01*
X119339231Y-107777432D01*
X119334965Y-107780635D01*
X119331393Y-107784373D01*
X119223729Y-107897037D01*
X119180629Y-107942138D01*
X119073201Y-108099621D01*
X119018293Y-108144621D01*
X118947768Y-108152792D01*
X118884021Y-108121538D01*
X118863324Y-108097054D01*
X118782822Y-107972617D01*
X118782820Y-107972614D01*
X118780014Y-107968277D01*
X118629670Y-107803051D01*
X118625619Y-107799852D01*
X118625615Y-107799848D01*
X118458414Y-107667800D01*
X118458410Y-107667798D01*
X118454359Y-107664598D01*
X118258789Y-107556638D01*
X118253920Y-107554914D01*
X118253916Y-107554912D01*
X118053087Y-107483795D01*
X118053083Y-107483794D01*
X118048212Y-107482069D01*
X118043119Y-107481162D01*
X118043116Y-107481161D01*
X117833373Y-107443800D01*
X117833367Y-107443799D01*
X117828284Y-107442894D01*
X117754452Y-107441992D01*
X117610081Y-107440228D01*
X117610079Y-107440228D01*
X117604911Y-107440165D01*
X117384091Y-107473955D01*
X117371532Y-107478060D01*
X117300568Y-107480210D01*
X117243294Y-107447389D01*
X116403652Y-106607747D01*
X116396112Y-106599461D01*
X116392000Y-106592982D01*
X116342348Y-106546356D01*
X116339507Y-106543602D01*
X116319770Y-106523865D01*
X116316573Y-106521385D01*
X116307551Y-106513680D01*
X116288321Y-106495622D01*
X116275321Y-106483414D01*
X116268375Y-106479595D01*
X116268372Y-106479593D01*
X116257566Y-106473652D01*
X116241047Y-106462801D01*
X116238521Y-106460842D01*
X116225041Y-106450386D01*
X116217772Y-106447241D01*
X116217768Y-106447238D01*
X116184463Y-106432826D01*
X116173813Y-106427609D01*
X116135060Y-106406305D01*
X116115437Y-106401267D01*
X116096734Y-106394863D01*
X116085420Y-106389967D01*
X116085419Y-106389967D01*
X116078145Y-106386819D01*
X116070320Y-106385579D01*
X116070311Y-106385577D01*
X116060026Y-106383948D01*
X115995873Y-106353535D01*
X115958347Y-106293267D01*
X115959362Y-106222277D01*
X115998595Y-106163106D01*
X116063591Y-106134539D01*
X116079738Y-106133500D01*
X119165406Y-106133500D01*
X119233527Y-106153502D01*
G37*
G04 #@! TD.AperFunction*
G04 #@! TA.AperFunction,NonConductor*
G36*
X114169001Y-107653502D02*
G01*
X114215494Y-107707158D01*
X114225598Y-107777432D01*
X114191974Y-107846551D01*
X114143729Y-107897037D01*
X114100629Y-107942138D01*
X113993201Y-108099621D01*
X113938293Y-108144621D01*
X113867768Y-108152792D01*
X113804021Y-108121538D01*
X113783324Y-108097054D01*
X113702822Y-107972617D01*
X113702820Y-107972614D01*
X113700014Y-107968277D01*
X113696538Y-107964457D01*
X113696533Y-107964450D01*
X113587204Y-107844299D01*
X113556152Y-107780454D01*
X113564548Y-107709955D01*
X113609725Y-107655187D01*
X113680398Y-107633500D01*
X114100880Y-107633500D01*
X114169001Y-107653502D01*
G37*
G04 #@! TD.AperFunction*
G04 #@! TA.AperFunction,NonConductor*
G36*
X111629001Y-107653502D02*
G01*
X111675494Y-107707158D01*
X111685598Y-107777432D01*
X111651974Y-107846551D01*
X111603729Y-107897037D01*
X111560629Y-107942138D01*
X111453201Y-108099621D01*
X111398293Y-108144621D01*
X111327768Y-108152792D01*
X111264021Y-108121538D01*
X111243324Y-108097054D01*
X111162822Y-107972617D01*
X111162820Y-107972614D01*
X111160014Y-107968277D01*
X111156538Y-107964457D01*
X111156533Y-107964450D01*
X111047204Y-107844299D01*
X111016152Y-107780454D01*
X111024548Y-107709955D01*
X111069725Y-107655187D01*
X111140398Y-107633500D01*
X111560880Y-107633500D01*
X111629001Y-107653502D01*
G37*
G04 #@! TD.AperFunction*
G04 #@! TA.AperFunction,NonConductor*
G36*
X119052026Y-109475144D02*
G01*
X119079875Y-109506994D01*
X119139987Y-109605088D01*
X119286250Y-109773938D01*
X119339992Y-109818555D01*
X119379628Y-109877458D01*
X119381126Y-109948439D01*
X119344012Y-110008962D01*
X119280068Y-110039811D01*
X119259508Y-110041500D01*
X118683776Y-110041500D01*
X118615655Y-110021498D01*
X118569162Y-109967842D01*
X118559058Y-109897568D01*
X118588552Y-109832988D01*
X118594836Y-109826249D01*
X118645710Y-109775553D01*
X118738096Y-109683489D01*
X118776231Y-109630419D01*
X118868453Y-109502077D01*
X118869776Y-109503028D01*
X118916645Y-109459857D01*
X118986580Y-109447625D01*
X119052026Y-109475144D01*
G37*
G04 #@! TD.AperFunction*
G04 #@! TA.AperFunction,NonConductor*
G36*
X121592026Y-109475144D02*
G01*
X121619875Y-109506994D01*
X121679987Y-109605088D01*
X121826250Y-109773938D01*
X121879992Y-109818555D01*
X121919628Y-109877458D01*
X121921126Y-109948439D01*
X121884012Y-110008962D01*
X121820068Y-110039811D01*
X121799508Y-110041500D01*
X121223776Y-110041500D01*
X121155655Y-110021498D01*
X121109162Y-109967842D01*
X121099058Y-109897568D01*
X121128552Y-109832988D01*
X121134836Y-109826249D01*
X121185710Y-109775553D01*
X121278096Y-109683489D01*
X121316231Y-109630419D01*
X121408453Y-109502077D01*
X121409776Y-109503028D01*
X121456645Y-109459857D01*
X121526580Y-109447625D01*
X121592026Y-109475144D01*
G37*
G04 #@! TD.AperFunction*
G04 #@! TA.AperFunction,NonConductor*
G36*
X145245018Y-88385000D02*
G01*
X145259851Y-88387310D01*
X145259855Y-88387310D01*
X145268724Y-88388691D01*
X145283981Y-88386696D01*
X145309301Y-88385953D01*
X145464426Y-88397048D01*
X145513850Y-88400583D01*
X145531644Y-88403141D01*
X145533589Y-88403564D01*
X145756832Y-88452128D01*
X145774080Y-88457192D01*
X145990004Y-88537728D01*
X146006356Y-88545196D01*
X146208618Y-88655639D01*
X146223742Y-88665359D01*
X146408229Y-88803464D01*
X146421815Y-88815237D01*
X146584763Y-88978185D01*
X146596536Y-88991771D01*
X146734641Y-89176258D01*
X146744361Y-89191382D01*
X146854804Y-89393644D01*
X146862272Y-89409996D01*
X146942808Y-89625920D01*
X146947872Y-89643168D01*
X146957015Y-89685194D01*
X146996859Y-89868356D01*
X146999417Y-89886150D01*
X147013539Y-90083601D01*
X147012793Y-90101561D01*
X147012692Y-90109846D01*
X147011309Y-90118724D01*
X147015436Y-90150283D01*
X147016500Y-90166621D01*
X147016499Y-104647101D01*
X147014776Y-104667868D01*
X147011409Y-104688017D01*
X147012474Y-104696931D01*
X147012474Y-104696933D01*
X147013244Y-104703376D01*
X147013711Y-104728644D01*
X146999938Y-104896224D01*
X146997051Y-104931345D01*
X146994333Y-104948980D01*
X146943544Y-105172125D01*
X146938363Y-105189196D01*
X146856543Y-105402942D01*
X146849012Y-105419086D01*
X146739251Y-105616526D01*
X146737812Y-105619115D01*
X146728055Y-105634062D01*
X146589713Y-105816359D01*
X146577942Y-105829779D01*
X146415230Y-105990693D01*
X146401681Y-106002314D01*
X146223229Y-106134641D01*
X146217860Y-106138622D01*
X146202817Y-106148205D01*
X146001561Y-106257177D01*
X145985311Y-106264538D01*
X145770688Y-106343971D01*
X145753551Y-106348965D01*
X145529861Y-106397271D01*
X145512189Y-106399793D01*
X145366753Y-106410121D01*
X145331690Y-106412611D01*
X145316425Y-106413695D01*
X145297974Y-106412924D01*
X145290148Y-106412828D01*
X145281276Y-106411447D01*
X145256359Y-106414705D01*
X145249713Y-106415574D01*
X145233377Y-106416637D01*
X128981943Y-106416507D01*
X128108679Y-106416500D01*
X128107911Y-106416498D01*
X128106763Y-106416491D01*
X128030279Y-106416024D01*
X128021649Y-106418490D01*
X128021645Y-106418491D01*
X128001852Y-106424148D01*
X127985090Y-106427726D01*
X127964711Y-106430644D01*
X127964702Y-106430647D01*
X127955817Y-106431919D01*
X127947645Y-106435634D01*
X127947640Y-106435636D01*
X127932436Y-106442549D01*
X127914912Y-106448997D01*
X127890229Y-106456051D01*
X127882638Y-106460841D01*
X127882635Y-106460842D01*
X127865223Y-106471828D01*
X127850141Y-106479966D01*
X127838191Y-106485400D01*
X127823221Y-106492206D01*
X127803765Y-106508971D01*
X127788757Y-106520075D01*
X127774636Y-106528984D01*
X127774633Y-106528987D01*
X127767042Y-106533776D01*
X127761103Y-106540501D01*
X127761097Y-106540506D01*
X127747472Y-106555935D01*
X127735279Y-106567981D01*
X127712876Y-106587284D01*
X127707995Y-106594815D01*
X127707991Y-106594819D01*
X127698907Y-106608833D01*
X127687620Y-106623704D01*
X127676564Y-106636223D01*
X127670622Y-106642951D01*
X127666808Y-106651075D01*
X127658058Y-106669712D01*
X127649736Y-106684694D01*
X127633650Y-106709511D01*
X127631078Y-106718111D01*
X127626291Y-106734117D01*
X127619629Y-106751562D01*
X127608719Y-106774800D01*
X127607338Y-106783670D01*
X127604169Y-106804021D01*
X127600386Y-106820735D01*
X127591915Y-106849062D01*
X127591860Y-106858033D01*
X127591704Y-106883494D01*
X127591671Y-106884286D01*
X127591500Y-106885386D01*
X127591500Y-106916380D01*
X127591498Y-106917154D01*
X127591279Y-106952812D01*
X127589781Y-106971420D01*
X127587808Y-106984096D01*
X127586309Y-106993724D01*
X127588135Y-107007683D01*
X127588756Y-107012433D01*
X127589647Y-107035366D01*
X127575378Y-107307617D01*
X127575184Y-107311324D01*
X127573806Y-107324437D01*
X127542745Y-107520555D01*
X127526069Y-107625841D01*
X127523327Y-107638741D01*
X127454117Y-107897037D01*
X127444346Y-107933501D01*
X127440270Y-107946044D01*
X127330917Y-108230920D01*
X127325553Y-108242969D01*
X127187013Y-108514867D01*
X127180419Y-108526288D01*
X127014218Y-108782216D01*
X127006465Y-108792886D01*
X126814430Y-109030030D01*
X126805605Y-109039831D01*
X126589831Y-109255605D01*
X126580030Y-109264430D01*
X126342886Y-109456465D01*
X126332216Y-109464218D01*
X126076288Y-109630419D01*
X126064867Y-109637013D01*
X125792969Y-109775553D01*
X125780920Y-109780917D01*
X125496044Y-109890270D01*
X125483501Y-109894346D01*
X125188741Y-109973327D01*
X125175841Y-109976069D01*
X124874437Y-110023806D01*
X124861325Y-110025184D01*
X124806600Y-110028052D01*
X124592701Y-110039262D01*
X124566724Y-110037935D01*
X124565154Y-110037691D01*
X124565150Y-110037691D01*
X124556276Y-110036309D01*
X124547374Y-110037473D01*
X124547372Y-110037473D01*
X124532323Y-110039441D01*
X124524714Y-110040436D01*
X124508379Y-110041500D01*
X123763776Y-110041500D01*
X123695655Y-110021498D01*
X123649162Y-109967842D01*
X123639058Y-109897568D01*
X123668552Y-109832988D01*
X123674836Y-109826249D01*
X123725710Y-109775553D01*
X123818096Y-109683489D01*
X123856231Y-109630419D01*
X123945435Y-109506277D01*
X123948453Y-109502077D01*
X123969320Y-109459857D01*
X124045136Y-109306453D01*
X124045137Y-109306451D01*
X124047430Y-109301811D01*
X124112370Y-109088069D01*
X124141529Y-108866590D01*
X124143156Y-108800000D01*
X124124852Y-108577361D01*
X124070431Y-108360702D01*
X123981354Y-108155840D01*
X123860014Y-107968277D01*
X123709670Y-107803051D01*
X123705619Y-107799852D01*
X123705615Y-107799848D01*
X123538414Y-107667800D01*
X123538410Y-107667798D01*
X123534359Y-107664598D01*
X123338789Y-107556638D01*
X123333920Y-107554914D01*
X123333916Y-107554912D01*
X123133087Y-107483795D01*
X123133083Y-107483794D01*
X123128212Y-107482069D01*
X123123119Y-107481162D01*
X123123116Y-107481161D01*
X122913373Y-107443800D01*
X122913367Y-107443799D01*
X122908284Y-107442894D01*
X122834452Y-107441992D01*
X122690081Y-107440228D01*
X122690079Y-107440228D01*
X122684911Y-107440165D01*
X122464091Y-107473955D01*
X122451532Y-107478060D01*
X122380568Y-107480210D01*
X122323294Y-107447389D01*
X120043353Y-105167448D01*
X120030520Y-105152425D01*
X120026536Y-105146941D01*
X120022100Y-105140413D01*
X119996248Y-105099676D01*
X119992000Y-105092982D01*
X119985993Y-105087341D01*
X119970312Y-105069554D01*
X119970134Y-105069309D01*
X119970132Y-105069307D01*
X119965472Y-105062893D01*
X119959362Y-105057838D01*
X119922204Y-105027097D01*
X119916270Y-105021866D01*
X119881102Y-104988842D01*
X119881099Y-104988840D01*
X119875321Y-104983414D01*
X119868097Y-104979442D01*
X119848494Y-104966119D01*
X119848254Y-104965920D01*
X119848247Y-104965916D01*
X119842144Y-104960867D01*
X119791324Y-104936953D01*
X119784292Y-104933371D01*
X119735060Y-104906305D01*
X119727385Y-104904335D01*
X119727379Y-104904332D01*
X119727081Y-104904256D01*
X119704772Y-104896224D01*
X119704497Y-104896094D01*
X119704489Y-104896091D01*
X119697318Y-104892717D01*
X119642151Y-104882194D01*
X119634442Y-104880471D01*
X119600449Y-104871743D01*
X119587707Y-104868471D01*
X119587706Y-104868471D01*
X119580030Y-104866500D01*
X119571793Y-104866500D01*
X119548184Y-104864268D01*
X119547881Y-104864210D01*
X119547877Y-104864210D01*
X119540094Y-104862725D01*
X119484049Y-104866251D01*
X119476138Y-104866500D01*
X111679197Y-104866500D01*
X111611076Y-104846498D01*
X111564583Y-104792842D01*
X111559674Y-104780377D01*
X111543867Y-104732998D01*
X111543866Y-104732996D01*
X111541550Y-104726054D01*
X111528960Y-104705708D01*
X111452332Y-104581880D01*
X111448478Y-104575652D01*
X111323303Y-104450695D01*
X111204464Y-104377441D01*
X111193384Y-104370611D01*
X111145890Y-104317838D01*
X111133500Y-104263351D01*
X111133500Y-99078767D01*
X111134027Y-99067584D01*
X111135702Y-99060091D01*
X111133562Y-98992014D01*
X111133500Y-98988055D01*
X111133500Y-98960144D01*
X111132995Y-98956144D01*
X111132062Y-98944301D01*
X111130922Y-98908029D01*
X111130673Y-98900110D01*
X111125022Y-98880658D01*
X111121014Y-98861306D01*
X111119467Y-98849063D01*
X111118474Y-98841203D01*
X111115556Y-98833832D01*
X111102200Y-98800097D01*
X111098355Y-98788870D01*
X111096243Y-98781601D01*
X111086018Y-98746407D01*
X111075707Y-98728972D01*
X111067012Y-98711224D01*
X111059552Y-98692383D01*
X111033564Y-98656613D01*
X111027048Y-98646693D01*
X111008580Y-98615465D01*
X111008578Y-98615462D01*
X111004542Y-98608638D01*
X110990221Y-98594317D01*
X110977380Y-98579283D01*
X110970131Y-98569306D01*
X110965472Y-98562893D01*
X110931395Y-98534702D01*
X110922616Y-98526712D01*
X109170405Y-96774500D01*
X109136379Y-96712188D01*
X109133500Y-96685405D01*
X109133500Y-94314594D01*
X109153502Y-94246473D01*
X109170405Y-94225499D01*
X109990763Y-93405141D01*
X110053075Y-93371115D01*
X110123890Y-93376180D01*
X110180726Y-93418727D01*
X110205537Y-93485247D01*
X110196053Y-93536655D01*
X110197885Y-93537262D01*
X110154290Y-93668699D01*
X110142203Y-93705139D01*
X110141503Y-93711975D01*
X110141502Y-93711978D01*
X110140579Y-93720989D01*
X110131500Y-93809600D01*
X110131500Y-95910400D01*
X110142474Y-96016166D01*
X110144655Y-96022702D01*
X110144655Y-96022704D01*
X110166770Y-96088991D01*
X110198450Y-96183946D01*
X110291522Y-96334348D01*
X110416697Y-96459305D01*
X110422927Y-96463145D01*
X110422928Y-96463146D01*
X110530352Y-96529363D01*
X110567262Y-96552115D01*
X110587589Y-96558857D01*
X110728611Y-96605632D01*
X110728613Y-96605632D01*
X110735139Y-96607797D01*
X110741975Y-96608497D01*
X110741978Y-96608498D01*
X110785031Y-96612909D01*
X110839600Y-96618500D01*
X112559840Y-96618500D01*
X112627961Y-96638502D01*
X112674454Y-96692158D01*
X112684558Y-96762432D01*
X112672157Y-96801605D01*
X112633513Y-96877612D01*
X112563889Y-97101840D01*
X112563188Y-97107129D01*
X112536615Y-97307617D01*
X112533039Y-97334593D01*
X112533239Y-97339922D01*
X112533239Y-97339923D01*
X112533742Y-97353307D01*
X112541848Y-97569216D01*
X112542943Y-97574434D01*
X112567794Y-97692871D01*
X112590062Y-97799001D01*
X112676302Y-98017377D01*
X112798104Y-98218100D01*
X112951985Y-98395432D01*
X112956117Y-98398820D01*
X113129416Y-98540917D01*
X113129422Y-98540921D01*
X113133544Y-98544301D01*
X113138180Y-98546940D01*
X113138183Y-98546942D01*
X113246568Y-98608638D01*
X113337590Y-98660451D01*
X113558289Y-98740561D01*
X113563538Y-98741510D01*
X113563541Y-98741511D01*
X113610382Y-98749981D01*
X113789330Y-98782340D01*
X113793469Y-98782535D01*
X113793476Y-98782536D01*
X113812440Y-98783430D01*
X113812449Y-98783430D01*
X113813929Y-98783500D01*
X113978950Y-98783500D01*
X114060299Y-98776597D01*
X114148637Y-98769102D01*
X114148641Y-98769101D01*
X114153948Y-98768651D01*
X114159103Y-98767313D01*
X114159109Y-98767312D01*
X114336823Y-98721186D01*
X114381206Y-98709667D01*
X114386072Y-98707475D01*
X114386075Y-98707474D01*
X114590417Y-98615424D01*
X114590420Y-98615423D01*
X114595278Y-98613234D01*
X114790041Y-98482112D01*
X114806402Y-98466505D01*
X114908534Y-98369075D01*
X114959927Y-98320049D01*
X115100078Y-98131679D01*
X115160719Y-98012408D01*
X115204069Y-97927144D01*
X115204069Y-97927143D01*
X115206487Y-97922388D01*
X115276111Y-97698160D01*
X115293202Y-97569216D01*
X115306261Y-97470690D01*
X115306261Y-97470687D01*
X115306961Y-97465407D01*
X115300336Y-97288965D01*
X115317768Y-97220143D01*
X115369641Y-97171670D01*
X115418006Y-97158509D01*
X115487851Y-97153931D01*
X115487855Y-97153930D01*
X115491966Y-97153661D01*
X115496006Y-97152857D01*
X115496009Y-97152857D01*
X115784721Y-97095429D01*
X115784727Y-97095427D01*
X115788766Y-97094624D01*
X115792670Y-97093299D01*
X115792673Y-97093298D01*
X116071414Y-96998678D01*
X116071415Y-96998677D01*
X116075320Y-96997352D01*
X116191803Y-96939909D01*
X116342040Y-96865821D01*
X116411982Y-96853631D01*
X116477412Y-96881190D01*
X116517555Y-96939749D01*
X116522774Y-96994617D01*
X116491500Y-97242179D01*
X116491500Y-97557821D01*
X116531060Y-97870975D01*
X116609557Y-98176702D01*
X116611010Y-98180371D01*
X116611010Y-98180372D01*
X116696159Y-98395432D01*
X116725753Y-98470179D01*
X116727659Y-98473647D01*
X116727660Y-98473648D01*
X116874398Y-98740561D01*
X116877816Y-98746779D01*
X117063346Y-99002140D01*
X117279418Y-99232233D01*
X117282469Y-99234757D01*
X117282470Y-99234758D01*
X117346601Y-99287812D01*
X117522625Y-99433432D01*
X117789131Y-99602562D01*
X117792710Y-99604246D01*
X117792717Y-99604250D01*
X118071144Y-99735267D01*
X118071148Y-99735269D01*
X118074734Y-99736956D01*
X118374928Y-99834495D01*
X118684980Y-99893641D01*
X118921162Y-99908500D01*
X119078838Y-99908500D01*
X119315020Y-99893641D01*
X119625072Y-99834495D01*
X119925266Y-99736956D01*
X119928852Y-99735269D01*
X119928856Y-99735267D01*
X120207283Y-99604250D01*
X120207290Y-99604246D01*
X120210869Y-99602562D01*
X120477375Y-99433432D01*
X120653399Y-99287812D01*
X120717530Y-99234758D01*
X120717531Y-99234757D01*
X120720582Y-99232233D01*
X120936654Y-99002140D01*
X121122184Y-98746779D01*
X121125603Y-98740561D01*
X121272340Y-98473648D01*
X121272341Y-98473647D01*
X121274247Y-98470179D01*
X121303842Y-98395432D01*
X121388990Y-98180372D01*
X121388990Y-98180371D01*
X121390443Y-98176702D01*
X121468940Y-97870975D01*
X121508500Y-97557821D01*
X121508500Y-97334593D01*
X122693039Y-97334593D01*
X122693239Y-97339922D01*
X122693239Y-97339923D01*
X122693742Y-97353307D01*
X122701848Y-97569216D01*
X122702943Y-97574434D01*
X122727794Y-97692871D01*
X122750062Y-97799001D01*
X122836302Y-98017377D01*
X122958104Y-98218100D01*
X123111985Y-98395432D01*
X123116117Y-98398820D01*
X123289416Y-98540917D01*
X123289422Y-98540921D01*
X123293544Y-98544301D01*
X123298180Y-98546940D01*
X123298183Y-98546942D01*
X123406568Y-98608638D01*
X123497590Y-98660451D01*
X123718289Y-98740561D01*
X123723538Y-98741510D01*
X123723541Y-98741511D01*
X123770382Y-98749981D01*
X123949330Y-98782340D01*
X123953469Y-98782535D01*
X123953476Y-98782536D01*
X123972440Y-98783430D01*
X123972449Y-98783430D01*
X123973929Y-98783500D01*
X124138950Y-98783500D01*
X124220299Y-98776597D01*
X124308637Y-98769102D01*
X124308641Y-98769101D01*
X124313948Y-98768651D01*
X124319103Y-98767313D01*
X124319109Y-98767312D01*
X124496823Y-98721186D01*
X124541206Y-98709667D01*
X124546072Y-98707475D01*
X124546075Y-98707474D01*
X124750417Y-98615424D01*
X124750420Y-98615423D01*
X124755278Y-98613234D01*
X124950041Y-98482112D01*
X124966402Y-98466505D01*
X125068534Y-98369075D01*
X125119927Y-98320049D01*
X125260078Y-98131679D01*
X125320719Y-98012408D01*
X125364069Y-97927144D01*
X125364069Y-97927143D01*
X125366487Y-97922388D01*
X125436111Y-97698160D01*
X125453202Y-97569216D01*
X125466261Y-97470690D01*
X125466261Y-97470687D01*
X125466961Y-97465407D01*
X125465899Y-97437107D01*
X125462250Y-97339923D01*
X125458152Y-97230784D01*
X125434503Y-97118076D01*
X125411035Y-97006226D01*
X125411034Y-97006223D01*
X125409938Y-97000999D01*
X125323698Y-96782623D01*
X125280957Y-96712188D01*
X125204664Y-96586461D01*
X125204662Y-96586458D01*
X125201896Y-96581900D01*
X125048015Y-96404568D01*
X125037938Y-96396306D01*
X124870584Y-96259083D01*
X124870578Y-96259079D01*
X124866456Y-96255699D01*
X124861820Y-96253060D01*
X124861817Y-96253058D01*
X124667053Y-96142192D01*
X124662410Y-96139549D01*
X124441711Y-96059439D01*
X124436462Y-96058490D01*
X124436459Y-96058489D01*
X124355385Y-96043829D01*
X124210670Y-96017660D01*
X124206531Y-96017465D01*
X124206524Y-96017464D01*
X124187560Y-96016570D01*
X124187551Y-96016570D01*
X124186071Y-96016500D01*
X124021050Y-96016500D01*
X123947935Y-96022704D01*
X123851363Y-96030898D01*
X123851359Y-96030899D01*
X123846052Y-96031349D01*
X123840897Y-96032687D01*
X123840891Y-96032688D01*
X123663177Y-96078814D01*
X123618794Y-96090333D01*
X123613928Y-96092525D01*
X123613925Y-96092526D01*
X123409583Y-96184576D01*
X123409580Y-96184577D01*
X123404722Y-96186766D01*
X123209959Y-96317888D01*
X123206102Y-96321567D01*
X123206100Y-96321569D01*
X123192704Y-96334348D01*
X123040073Y-96479951D01*
X122899922Y-96668321D01*
X122897506Y-96673072D01*
X122897504Y-96673076D01*
X122800683Y-96863509D01*
X122793513Y-96877612D01*
X122723889Y-97101840D01*
X122723188Y-97107129D01*
X122696615Y-97307617D01*
X122693039Y-97334593D01*
X121508500Y-97334593D01*
X121508500Y-97242179D01*
X121468940Y-96929025D01*
X121390443Y-96623298D01*
X121388543Y-96618500D01*
X121275702Y-96333495D01*
X121275700Y-96333490D01*
X121274247Y-96329821D01*
X121272340Y-96326352D01*
X121124093Y-96056693D01*
X121124091Y-96056690D01*
X121122184Y-96053221D01*
X121018419Y-95910400D01*
X129131500Y-95910400D01*
X129142474Y-96016166D01*
X129144655Y-96022702D01*
X129144655Y-96022704D01*
X129166770Y-96088991D01*
X129198450Y-96183946D01*
X129291522Y-96334348D01*
X129416697Y-96459305D01*
X129422927Y-96463145D01*
X129422928Y-96463146D01*
X129530352Y-96529363D01*
X129567262Y-96552115D01*
X129587589Y-96558857D01*
X129728611Y-96605632D01*
X129728613Y-96605632D01*
X129735139Y-96607797D01*
X129741975Y-96608497D01*
X129741978Y-96608498D01*
X129785031Y-96612909D01*
X129839600Y-96618500D01*
X131559840Y-96618500D01*
X131627961Y-96638502D01*
X131674454Y-96692158D01*
X131684558Y-96762432D01*
X131672157Y-96801605D01*
X131633513Y-96877612D01*
X131563889Y-97101840D01*
X131563188Y-97107129D01*
X131536615Y-97307617D01*
X131533039Y-97334593D01*
X131533239Y-97339922D01*
X131533239Y-97339923D01*
X131533742Y-97353307D01*
X131541848Y-97569216D01*
X131542943Y-97574434D01*
X131567794Y-97692871D01*
X131590062Y-97799001D01*
X131676302Y-98017377D01*
X131798104Y-98218100D01*
X131951985Y-98395432D01*
X131956117Y-98398820D01*
X132129416Y-98540917D01*
X132129422Y-98540921D01*
X132133544Y-98544301D01*
X132138180Y-98546940D01*
X132138183Y-98546942D01*
X132246568Y-98608638D01*
X132337590Y-98660451D01*
X132558289Y-98740561D01*
X132563538Y-98741510D01*
X132563541Y-98741511D01*
X132610382Y-98749981D01*
X132789330Y-98782340D01*
X132793469Y-98782535D01*
X132793476Y-98782536D01*
X132812440Y-98783430D01*
X132812449Y-98783430D01*
X132813929Y-98783500D01*
X132978950Y-98783500D01*
X133060299Y-98776597D01*
X133148637Y-98769102D01*
X133148641Y-98769101D01*
X133153948Y-98768651D01*
X133159103Y-98767313D01*
X133159109Y-98767312D01*
X133336823Y-98721186D01*
X133381206Y-98709667D01*
X133386072Y-98707475D01*
X133386075Y-98707474D01*
X133590417Y-98615424D01*
X133590420Y-98615423D01*
X133595278Y-98613234D01*
X133790041Y-98482112D01*
X133806402Y-98466505D01*
X133908534Y-98369075D01*
X133959927Y-98320049D01*
X134100078Y-98131679D01*
X134160719Y-98012408D01*
X134204069Y-97927144D01*
X134204069Y-97927143D01*
X134206487Y-97922388D01*
X134276111Y-97698160D01*
X134293202Y-97569216D01*
X134306261Y-97470690D01*
X134306261Y-97470687D01*
X134306961Y-97465407D01*
X134300336Y-97288965D01*
X134317768Y-97220143D01*
X134369641Y-97171670D01*
X134418006Y-97158509D01*
X134487851Y-97153931D01*
X134487855Y-97153930D01*
X134491966Y-97153661D01*
X134496006Y-97152857D01*
X134496009Y-97152857D01*
X134784721Y-97095429D01*
X134784727Y-97095427D01*
X134788766Y-97094624D01*
X134792670Y-97093299D01*
X134792673Y-97093298D01*
X135071414Y-96998678D01*
X135071415Y-96998677D01*
X135075320Y-96997352D01*
X135191803Y-96939909D01*
X135342040Y-96865821D01*
X135411982Y-96853631D01*
X135477412Y-96881190D01*
X135517555Y-96939749D01*
X135522774Y-96994617D01*
X135491500Y-97242179D01*
X135491500Y-97557821D01*
X135531060Y-97870975D01*
X135609557Y-98176702D01*
X135611010Y-98180371D01*
X135611010Y-98180372D01*
X135696159Y-98395432D01*
X135725753Y-98470179D01*
X135727659Y-98473647D01*
X135727660Y-98473648D01*
X135874398Y-98740561D01*
X135877816Y-98746779D01*
X136063346Y-99002140D01*
X136279418Y-99232233D01*
X136282469Y-99234757D01*
X136282470Y-99234758D01*
X136346601Y-99287812D01*
X136522625Y-99433432D01*
X136789131Y-99602562D01*
X136792710Y-99604246D01*
X136792717Y-99604250D01*
X137071144Y-99735267D01*
X137071148Y-99735269D01*
X137074734Y-99736956D01*
X137374928Y-99834495D01*
X137684980Y-99893641D01*
X137921162Y-99908500D01*
X138078838Y-99908500D01*
X138315020Y-99893641D01*
X138625072Y-99834495D01*
X138925266Y-99736956D01*
X138928852Y-99735269D01*
X138928856Y-99735267D01*
X139207283Y-99604250D01*
X139207290Y-99604246D01*
X139210869Y-99602562D01*
X139477375Y-99433432D01*
X139653399Y-99287812D01*
X139717530Y-99234758D01*
X139717531Y-99234757D01*
X139720582Y-99232233D01*
X139936654Y-99002140D01*
X140122184Y-98746779D01*
X140125603Y-98740561D01*
X140272340Y-98473648D01*
X140272341Y-98473647D01*
X140274247Y-98470179D01*
X140303842Y-98395432D01*
X140388990Y-98180372D01*
X140388990Y-98180371D01*
X140390443Y-98176702D01*
X140468940Y-97870975D01*
X140508500Y-97557821D01*
X140508500Y-97334593D01*
X141693039Y-97334593D01*
X141693239Y-97339922D01*
X141693239Y-97339923D01*
X141693742Y-97353307D01*
X141701848Y-97569216D01*
X141702943Y-97574434D01*
X141727794Y-97692871D01*
X141750062Y-97799001D01*
X141836302Y-98017377D01*
X141958104Y-98218100D01*
X142111985Y-98395432D01*
X142116117Y-98398820D01*
X142289416Y-98540917D01*
X142289422Y-98540921D01*
X142293544Y-98544301D01*
X142298180Y-98546940D01*
X142298183Y-98546942D01*
X142406568Y-98608638D01*
X142497590Y-98660451D01*
X142718289Y-98740561D01*
X142723538Y-98741510D01*
X142723541Y-98741511D01*
X142770382Y-98749981D01*
X142949330Y-98782340D01*
X142953469Y-98782535D01*
X142953476Y-98782536D01*
X142972440Y-98783430D01*
X142972449Y-98783430D01*
X142973929Y-98783500D01*
X143138950Y-98783500D01*
X143220299Y-98776597D01*
X143308637Y-98769102D01*
X143308641Y-98769101D01*
X143313948Y-98768651D01*
X143319103Y-98767313D01*
X143319109Y-98767312D01*
X143496823Y-98721186D01*
X143541206Y-98709667D01*
X143546072Y-98707475D01*
X143546075Y-98707474D01*
X143750417Y-98615424D01*
X143750420Y-98615423D01*
X143755278Y-98613234D01*
X143950041Y-98482112D01*
X143966402Y-98466505D01*
X144068534Y-98369075D01*
X144119927Y-98320049D01*
X144260078Y-98131679D01*
X144320719Y-98012408D01*
X144364069Y-97927144D01*
X144364069Y-97927143D01*
X144366487Y-97922388D01*
X144436111Y-97698160D01*
X144453202Y-97569216D01*
X144466261Y-97470690D01*
X144466261Y-97470687D01*
X144466961Y-97465407D01*
X144465899Y-97437107D01*
X144462250Y-97339923D01*
X144458152Y-97230784D01*
X144434503Y-97118076D01*
X144411035Y-97006226D01*
X144411034Y-97006223D01*
X144409938Y-97000999D01*
X144323698Y-96782623D01*
X144280957Y-96712188D01*
X144204664Y-96586461D01*
X144204662Y-96586458D01*
X144201896Y-96581900D01*
X144048015Y-96404568D01*
X144037938Y-96396306D01*
X143870584Y-96259083D01*
X143870578Y-96259079D01*
X143866456Y-96255699D01*
X143861820Y-96253060D01*
X143861817Y-96253058D01*
X143667053Y-96142192D01*
X143662410Y-96139549D01*
X143441711Y-96059439D01*
X143436462Y-96058490D01*
X143436459Y-96058489D01*
X143355385Y-96043829D01*
X143210670Y-96017660D01*
X143206531Y-96017465D01*
X143206524Y-96017464D01*
X143187560Y-96016570D01*
X143187551Y-96016570D01*
X143186071Y-96016500D01*
X143021050Y-96016500D01*
X142947935Y-96022704D01*
X142851363Y-96030898D01*
X142851359Y-96030899D01*
X142846052Y-96031349D01*
X142840897Y-96032687D01*
X142840891Y-96032688D01*
X142663177Y-96078814D01*
X142618794Y-96090333D01*
X142613928Y-96092525D01*
X142613925Y-96092526D01*
X142409583Y-96184576D01*
X142409580Y-96184577D01*
X142404722Y-96186766D01*
X142209959Y-96317888D01*
X142206102Y-96321567D01*
X142206100Y-96321569D01*
X142192704Y-96334348D01*
X142040073Y-96479951D01*
X141899922Y-96668321D01*
X141897506Y-96673072D01*
X141897504Y-96673076D01*
X141800683Y-96863509D01*
X141793513Y-96877612D01*
X141723889Y-97101840D01*
X141723188Y-97107129D01*
X141696615Y-97307617D01*
X141693039Y-97334593D01*
X140508500Y-97334593D01*
X140508500Y-97242179D01*
X140468940Y-96929025D01*
X140390443Y-96623298D01*
X140388543Y-96618500D01*
X140275702Y-96333495D01*
X140275700Y-96333490D01*
X140274247Y-96329821D01*
X140272340Y-96326352D01*
X140124093Y-96056693D01*
X140124091Y-96056690D01*
X140122184Y-96053221D01*
X139936654Y-95797860D01*
X139720582Y-95567767D01*
X139477375Y-95366568D01*
X139210869Y-95197438D01*
X139207290Y-95195754D01*
X139207283Y-95195750D01*
X138928856Y-95064733D01*
X138928852Y-95064731D01*
X138925266Y-95063044D01*
X138625072Y-94965505D01*
X138315020Y-94906359D01*
X138078838Y-94891500D01*
X137921162Y-94891500D01*
X137684980Y-94906359D01*
X137374928Y-94965505D01*
X137074734Y-95063044D01*
X137071148Y-95064731D01*
X137071144Y-95064733D01*
X136792717Y-95195750D01*
X136792710Y-95195754D01*
X136789131Y-95197438D01*
X136677445Y-95268316D01*
X136609215Y-95287928D01*
X136541209Y-95267537D01*
X136495024Y-95213617D01*
X136484204Y-95153689D01*
X136503183Y-94864119D01*
X136503453Y-94860000D01*
X136487307Y-94613661D01*
X136483931Y-94562149D01*
X136483930Y-94562145D01*
X136483661Y-94558034D01*
X136463634Y-94457352D01*
X136425429Y-94265279D01*
X136425427Y-94265273D01*
X136424624Y-94261234D01*
X136419614Y-94246473D01*
X136328678Y-93978586D01*
X136328677Y-93978585D01*
X136327352Y-93974680D01*
X136242820Y-93803266D01*
X136195336Y-93706978D01*
X136195333Y-93706973D01*
X136193509Y-93703274D01*
X136025386Y-93451659D01*
X136022672Y-93448565D01*
X136022668Y-93448559D01*
X135828567Y-93227231D01*
X135825858Y-93224142D01*
X135822769Y-93221433D01*
X135601441Y-93027332D01*
X135601435Y-93027328D01*
X135598341Y-93024614D01*
X135594915Y-93022325D01*
X135594910Y-93022321D01*
X135350160Y-92858785D01*
X135346727Y-92856491D01*
X135343028Y-92854667D01*
X135343023Y-92854664D01*
X135203692Y-92785954D01*
X135075320Y-92722648D01*
X135071414Y-92721322D01*
X134792673Y-92626702D01*
X134792670Y-92626701D01*
X134788766Y-92625376D01*
X134784727Y-92624573D01*
X134784721Y-92624571D01*
X134496009Y-92567143D01*
X134496006Y-92567143D01*
X134491966Y-92566339D01*
X134487855Y-92566070D01*
X134487851Y-92566069D01*
X134194119Y-92546817D01*
X134190000Y-92546547D01*
X134185881Y-92546817D01*
X133892149Y-92566069D01*
X133892145Y-92566070D01*
X133888034Y-92566339D01*
X133883994Y-92567143D01*
X133883991Y-92567143D01*
X133595279Y-92624571D01*
X133595273Y-92624573D01*
X133591234Y-92625376D01*
X133587330Y-92626701D01*
X133587327Y-92626702D01*
X133308586Y-92721322D01*
X133304680Y-92722648D01*
X133176442Y-92785888D01*
X133036978Y-92854664D01*
X133036973Y-92854667D01*
X133033274Y-92856491D01*
X132781659Y-93024614D01*
X132729641Y-93070233D01*
X132665239Y-93100109D01*
X132646565Y-93101500D01*
X129839600Y-93101500D01*
X129836354Y-93101837D01*
X129836350Y-93101837D01*
X129740692Y-93111762D01*
X129740688Y-93111763D01*
X129733834Y-93112474D01*
X129727298Y-93114655D01*
X129727296Y-93114655D01*
X129633902Y-93145814D01*
X129566054Y-93168450D01*
X129415652Y-93261522D01*
X129290695Y-93386697D01*
X129286855Y-93392927D01*
X129286854Y-93392928D01*
X129229948Y-93485247D01*
X129197885Y-93537262D01*
X129181016Y-93588120D01*
X129154290Y-93668699D01*
X129142203Y-93705139D01*
X129141503Y-93711975D01*
X129141502Y-93711978D01*
X129140579Y-93720989D01*
X129131500Y-93809600D01*
X129131500Y-95910400D01*
X121018419Y-95910400D01*
X120936654Y-95797860D01*
X120720582Y-95567767D01*
X120477375Y-95366568D01*
X120210869Y-95197438D01*
X120207290Y-95195754D01*
X120207283Y-95195750D01*
X119928856Y-95064733D01*
X119928852Y-95064731D01*
X119925266Y-95063044D01*
X119625072Y-94965505D01*
X119315020Y-94906359D01*
X119078838Y-94891500D01*
X118921162Y-94891500D01*
X118684980Y-94906359D01*
X118374928Y-94965505D01*
X118074734Y-95063044D01*
X118071148Y-95064731D01*
X118071144Y-95064733D01*
X117792717Y-95195750D01*
X117792710Y-95195754D01*
X117789131Y-95197438D01*
X117677445Y-95268316D01*
X117609215Y-95287928D01*
X117541209Y-95267537D01*
X117495024Y-95213617D01*
X117484204Y-95153689D01*
X117503183Y-94864119D01*
X117503453Y-94860000D01*
X117487307Y-94613661D01*
X117483931Y-94562149D01*
X117483930Y-94562145D01*
X117483661Y-94558034D01*
X117463634Y-94457352D01*
X117425429Y-94265279D01*
X117425427Y-94265273D01*
X117424624Y-94261234D01*
X117419614Y-94246473D01*
X117328678Y-93978586D01*
X117328677Y-93978585D01*
X117327352Y-93974680D01*
X117242820Y-93803266D01*
X117195336Y-93706978D01*
X117195333Y-93706973D01*
X117193509Y-93703274D01*
X117025386Y-93451659D01*
X117022672Y-93448565D01*
X117022668Y-93448559D01*
X116828567Y-93227231D01*
X116825858Y-93224142D01*
X116822769Y-93221433D01*
X116601441Y-93027332D01*
X116601435Y-93027328D01*
X116598341Y-93024614D01*
X116594915Y-93022325D01*
X116594910Y-93022321D01*
X116350160Y-92858785D01*
X116346727Y-92856491D01*
X116343028Y-92854667D01*
X116343023Y-92854664D01*
X116203692Y-92785954D01*
X116075320Y-92722648D01*
X116071414Y-92721322D01*
X115792673Y-92626702D01*
X115792670Y-92626701D01*
X115788766Y-92625376D01*
X115784727Y-92624573D01*
X115784721Y-92624571D01*
X115496009Y-92567143D01*
X115496006Y-92567143D01*
X115491966Y-92566339D01*
X115487855Y-92566070D01*
X115487851Y-92566069D01*
X115194119Y-92546817D01*
X115190000Y-92546547D01*
X115185881Y-92546817D01*
X114892149Y-92566069D01*
X114892145Y-92566070D01*
X114888034Y-92566339D01*
X114883994Y-92567143D01*
X114883991Y-92567143D01*
X114595279Y-92624571D01*
X114595273Y-92624573D01*
X114591234Y-92625376D01*
X114587330Y-92626701D01*
X114587327Y-92626702D01*
X114308586Y-92721322D01*
X114304680Y-92722648D01*
X114176442Y-92785888D01*
X114036978Y-92854664D01*
X114036973Y-92854667D01*
X114033274Y-92856491D01*
X113781659Y-93024614D01*
X113729641Y-93070233D01*
X113665239Y-93100109D01*
X113646565Y-93101500D01*
X110839600Y-93101500D01*
X110836354Y-93101837D01*
X110836350Y-93101837D01*
X110740692Y-93111762D01*
X110740688Y-93111763D01*
X110733834Y-93112474D01*
X110727298Y-93114655D01*
X110727296Y-93114655D01*
X110566054Y-93168450D01*
X110565187Y-93165850D01*
X110507525Y-93174696D01*
X110442669Y-93145814D01*
X110403723Y-93086453D01*
X110403053Y-93015459D01*
X110435182Y-92960723D01*
X110892264Y-92503641D01*
X110900538Y-92496112D01*
X110907018Y-92492000D01*
X110953644Y-92442348D01*
X110956398Y-92439507D01*
X110976135Y-92419770D01*
X110978615Y-92416573D01*
X110986320Y-92407551D01*
X111011159Y-92381100D01*
X111016586Y-92375321D01*
X111020405Y-92368375D01*
X111020407Y-92368372D01*
X111026348Y-92357566D01*
X111037199Y-92341047D01*
X111044758Y-92331301D01*
X111049614Y-92325041D01*
X111052759Y-92317772D01*
X111052762Y-92317768D01*
X111067174Y-92284463D01*
X111072391Y-92273813D01*
X111093695Y-92235060D01*
X111098733Y-92215437D01*
X111105137Y-92196734D01*
X111110033Y-92185420D01*
X111110033Y-92185419D01*
X111113181Y-92178145D01*
X111114420Y-92170322D01*
X111114423Y-92170312D01*
X111120099Y-92134476D01*
X111122505Y-92122856D01*
X111131528Y-92087711D01*
X111131528Y-92087710D01*
X111133500Y-92080030D01*
X111133500Y-92059776D01*
X111135051Y-92040065D01*
X111136980Y-92027886D01*
X111138220Y-92020057D01*
X111134059Y-91976038D01*
X111133500Y-91964181D01*
X111133500Y-90736781D01*
X111153502Y-90668660D01*
X111193197Y-90629637D01*
X111199752Y-90625581D01*
X111324348Y-90548478D01*
X111449305Y-90423303D01*
X111515201Y-90316401D01*
X111538275Y-90278968D01*
X111538276Y-90278966D01*
X111542115Y-90272738D01*
X111559663Y-90219832D01*
X111600094Y-90161473D01*
X111665658Y-90134236D01*
X111679256Y-90133500D01*
X120241773Y-90133500D01*
X120309894Y-90153502D01*
X120356387Y-90207158D01*
X120366491Y-90277432D01*
X120336997Y-90342012D01*
X120311776Y-90364265D01*
X120131659Y-90484614D01*
X120128565Y-90487328D01*
X120128559Y-90487332D01*
X119930631Y-90660912D01*
X119904142Y-90684142D01*
X119901433Y-90687231D01*
X119707332Y-90908559D01*
X119707328Y-90908565D01*
X119704614Y-90911659D01*
X119536491Y-91163274D01*
X119534667Y-91166973D01*
X119534664Y-91166978D01*
X119485659Y-91266350D01*
X119402648Y-91434680D01*
X119305376Y-91721234D01*
X119304573Y-91725273D01*
X119304571Y-91725279D01*
X119254692Y-91976039D01*
X119246339Y-92018034D01*
X119246070Y-92022145D01*
X119246069Y-92022149D01*
X119239091Y-92128611D01*
X119226547Y-92320000D01*
X119226817Y-92324119D01*
X119244115Y-92588027D01*
X119246339Y-92621966D01*
X119247143Y-92626006D01*
X119247143Y-92626009D01*
X119292989Y-92856491D01*
X119305376Y-92918766D01*
X119306701Y-92922670D01*
X119306702Y-92922673D01*
X119397916Y-93191379D01*
X119402648Y-93205320D01*
X119465888Y-93333558D01*
X119532199Y-93468022D01*
X119536491Y-93476726D01*
X119704614Y-93728341D01*
X119707328Y-93731435D01*
X119707332Y-93731441D01*
X119853436Y-93898039D01*
X119904142Y-93955858D01*
X119907231Y-93958567D01*
X120128559Y-94152668D01*
X120128562Y-94152670D01*
X120131659Y-94155386D01*
X120135085Y-94157675D01*
X120135090Y-94157679D01*
X120323371Y-94283484D01*
X120383273Y-94323509D01*
X120386972Y-94325333D01*
X120386977Y-94325336D01*
X120526308Y-94394046D01*
X120654680Y-94457352D01*
X120658585Y-94458677D01*
X120658586Y-94458678D01*
X120937327Y-94553298D01*
X120937330Y-94553299D01*
X120941234Y-94554624D01*
X120945273Y-94555427D01*
X120945279Y-94555429D01*
X121233991Y-94612857D01*
X121233994Y-94612857D01*
X121238034Y-94613661D01*
X121242145Y-94613930D01*
X121242149Y-94613931D01*
X121535881Y-94633183D01*
X121540000Y-94633453D01*
X121544119Y-94633183D01*
X121837851Y-94613931D01*
X121837855Y-94613930D01*
X121841966Y-94613661D01*
X121846006Y-94612857D01*
X121846009Y-94612857D01*
X122134721Y-94555429D01*
X122134727Y-94555427D01*
X122138766Y-94554624D01*
X122142670Y-94553299D01*
X122142673Y-94553298D01*
X122421414Y-94458678D01*
X122421415Y-94458677D01*
X122425320Y-94457352D01*
X122553692Y-94394046D01*
X122693023Y-94325336D01*
X122693028Y-94325333D01*
X122696727Y-94323509D01*
X122948341Y-94155386D01*
X123000359Y-94109767D01*
X123064761Y-94079891D01*
X123083435Y-94078500D01*
X125895400Y-94078500D01*
X125898646Y-94078163D01*
X125898650Y-94078163D01*
X125994308Y-94068238D01*
X125994312Y-94068237D01*
X126001166Y-94067526D01*
X126007702Y-94065345D01*
X126007704Y-94065345D01*
X126161998Y-94013868D01*
X126168946Y-94011550D01*
X126319348Y-93918478D01*
X126444305Y-93793303D01*
X126477420Y-93739581D01*
X126533275Y-93648968D01*
X126533276Y-93648966D01*
X126537115Y-93642738D01*
X126579889Y-93513777D01*
X126590632Y-93481389D01*
X126590632Y-93481387D01*
X126592797Y-93474861D01*
X126603500Y-93370400D01*
X126603500Y-93259500D01*
X126623502Y-93191379D01*
X126677158Y-93144886D01*
X126729500Y-93133500D01*
X127421233Y-93133500D01*
X127432416Y-93134027D01*
X127439909Y-93135702D01*
X127447835Y-93135453D01*
X127447836Y-93135453D01*
X127507986Y-93133562D01*
X127511945Y-93133500D01*
X127539856Y-93133500D01*
X127543791Y-93133003D01*
X127543856Y-93132995D01*
X127555693Y-93132062D01*
X127587951Y-93131048D01*
X127591970Y-93130922D01*
X127599889Y-93130673D01*
X127619343Y-93125021D01*
X127638700Y-93121013D01*
X127650930Y-93119468D01*
X127650931Y-93119468D01*
X127658797Y-93118474D01*
X127666168Y-93115555D01*
X127666170Y-93115555D01*
X127699912Y-93102196D01*
X127711142Y-93098351D01*
X127745983Y-93088229D01*
X127745984Y-93088229D01*
X127753593Y-93086018D01*
X127760412Y-93081985D01*
X127760417Y-93081983D01*
X127771028Y-93075707D01*
X127788776Y-93067012D01*
X127807617Y-93059552D01*
X127843387Y-93033564D01*
X127853307Y-93027048D01*
X127884535Y-93008580D01*
X127884538Y-93008578D01*
X127891362Y-93004542D01*
X127905683Y-92990221D01*
X127920717Y-92977380D01*
X127930694Y-92970131D01*
X127937107Y-92965472D01*
X127965298Y-92931395D01*
X127973288Y-92922616D01*
X128575904Y-92320000D01*
X138226547Y-92320000D01*
X138226817Y-92324119D01*
X138244115Y-92588027D01*
X138246339Y-92621966D01*
X138247143Y-92626006D01*
X138247143Y-92626009D01*
X138292989Y-92856491D01*
X138305376Y-92918766D01*
X138306701Y-92922670D01*
X138306702Y-92922673D01*
X138397916Y-93191379D01*
X138402648Y-93205320D01*
X138465888Y-93333558D01*
X138532199Y-93468022D01*
X138536491Y-93476726D01*
X138704614Y-93728341D01*
X138707328Y-93731435D01*
X138707332Y-93731441D01*
X138853436Y-93898039D01*
X138904142Y-93955858D01*
X138907231Y-93958567D01*
X139128559Y-94152668D01*
X139128562Y-94152670D01*
X139131659Y-94155386D01*
X139135085Y-94157675D01*
X139135090Y-94157679D01*
X139323371Y-94283484D01*
X139383273Y-94323509D01*
X139386972Y-94325333D01*
X139386977Y-94325336D01*
X139526308Y-94394046D01*
X139654680Y-94457352D01*
X139658585Y-94458677D01*
X139658586Y-94458678D01*
X139937327Y-94553298D01*
X139937330Y-94553299D01*
X139941234Y-94554624D01*
X139945273Y-94555427D01*
X139945279Y-94555429D01*
X140233991Y-94612857D01*
X140233994Y-94612857D01*
X140238034Y-94613661D01*
X140242145Y-94613930D01*
X140242149Y-94613931D01*
X140535881Y-94633183D01*
X140540000Y-94633453D01*
X140544119Y-94633183D01*
X140837851Y-94613931D01*
X140837855Y-94613930D01*
X140841966Y-94613661D01*
X140846006Y-94612857D01*
X140846009Y-94612857D01*
X141134721Y-94555429D01*
X141134727Y-94555427D01*
X141138766Y-94554624D01*
X141142670Y-94553299D01*
X141142673Y-94553298D01*
X141421414Y-94458678D01*
X141421415Y-94458677D01*
X141425320Y-94457352D01*
X141553692Y-94394046D01*
X141693023Y-94325336D01*
X141693028Y-94325333D01*
X141696727Y-94323509D01*
X141948341Y-94155386D01*
X142000359Y-94109767D01*
X142064761Y-94079891D01*
X142083435Y-94078500D01*
X144895400Y-94078500D01*
X144898646Y-94078163D01*
X144898650Y-94078163D01*
X144994308Y-94068238D01*
X144994312Y-94068237D01*
X145001166Y-94067526D01*
X145007702Y-94065345D01*
X145007704Y-94065345D01*
X145161998Y-94013868D01*
X145168946Y-94011550D01*
X145319348Y-93918478D01*
X145444305Y-93793303D01*
X145477420Y-93739581D01*
X145533275Y-93648968D01*
X145533276Y-93648966D01*
X145537115Y-93642738D01*
X145579889Y-93513777D01*
X145590632Y-93481389D01*
X145590632Y-93481387D01*
X145592797Y-93474861D01*
X145603500Y-93370400D01*
X145603500Y-91269600D01*
X145592526Y-91163834D01*
X145536550Y-90996054D01*
X145443478Y-90845652D01*
X145318303Y-90720695D01*
X145297987Y-90708172D01*
X145173968Y-90631725D01*
X145173966Y-90631724D01*
X145167738Y-90627885D01*
X145087995Y-90601436D01*
X145006389Y-90574368D01*
X145006387Y-90574368D01*
X144999861Y-90572203D01*
X144993025Y-90571503D01*
X144993022Y-90571502D01*
X144949969Y-90567091D01*
X144895400Y-90561500D01*
X142083435Y-90561500D01*
X142015314Y-90541498D01*
X142000364Y-90530237D01*
X141948341Y-90484614D01*
X141696727Y-90316491D01*
X141693028Y-90314667D01*
X141693023Y-90314664D01*
X141510883Y-90224843D01*
X141425320Y-90182648D01*
X141421414Y-90181322D01*
X141142673Y-90086702D01*
X141142670Y-90086701D01*
X141138766Y-90085376D01*
X141134727Y-90084573D01*
X141134721Y-90084571D01*
X140846009Y-90027143D01*
X140846006Y-90027143D01*
X140841966Y-90026339D01*
X140837855Y-90026070D01*
X140837851Y-90026069D01*
X140544119Y-90006817D01*
X140540000Y-90006547D01*
X140535881Y-90006817D01*
X140242149Y-90026069D01*
X140242145Y-90026070D01*
X140238034Y-90026339D01*
X140233994Y-90027143D01*
X140233991Y-90027143D01*
X139945279Y-90084571D01*
X139945273Y-90084573D01*
X139941234Y-90085376D01*
X139937330Y-90086701D01*
X139937327Y-90086702D01*
X139658586Y-90181322D01*
X139654680Y-90182648D01*
X139579279Y-90219832D01*
X139386978Y-90314664D01*
X139386973Y-90314667D01*
X139383274Y-90316491D01*
X139131659Y-90484614D01*
X139128565Y-90487328D01*
X139128559Y-90487332D01*
X138930631Y-90660912D01*
X138904142Y-90684142D01*
X138901433Y-90687231D01*
X138707332Y-90908559D01*
X138707328Y-90908565D01*
X138704614Y-90911659D01*
X138536491Y-91163274D01*
X138534667Y-91166973D01*
X138534664Y-91166978D01*
X138485659Y-91266350D01*
X138402648Y-91434680D01*
X138305376Y-91721234D01*
X138304573Y-91725273D01*
X138304571Y-91725279D01*
X138254692Y-91976039D01*
X138246339Y-92018034D01*
X138246070Y-92022145D01*
X138246069Y-92022149D01*
X138239091Y-92128611D01*
X138226547Y-92320000D01*
X128575904Y-92320000D01*
X129892253Y-91003652D01*
X129900539Y-90996112D01*
X129907018Y-90992000D01*
X129953644Y-90942348D01*
X129956398Y-90939507D01*
X129976135Y-90919770D01*
X129978615Y-90916573D01*
X129986320Y-90907551D01*
X130011159Y-90881100D01*
X130016586Y-90875321D01*
X130020405Y-90868375D01*
X130020407Y-90868372D01*
X130026348Y-90857566D01*
X130037199Y-90841047D01*
X130038464Y-90839416D01*
X130049614Y-90825041D01*
X130052759Y-90817772D01*
X130052762Y-90817768D01*
X130067174Y-90784463D01*
X130072391Y-90773813D01*
X130093695Y-90735060D01*
X130095666Y-90727384D01*
X130098584Y-90720013D01*
X130099939Y-90720550D01*
X130131827Y-90666983D01*
X130164100Y-90645226D01*
X130167001Y-90643867D01*
X130173946Y-90641550D01*
X130181359Y-90636963D01*
X130318120Y-90552332D01*
X130324348Y-90548478D01*
X130449305Y-90423303D01*
X130515201Y-90316401D01*
X130538275Y-90278968D01*
X130538276Y-90278966D01*
X130542115Y-90272738D01*
X130593199Y-90118724D01*
X130595632Y-90111389D01*
X130595632Y-90111387D01*
X130597797Y-90104861D01*
X130599794Y-90085376D01*
X130605870Y-90026069D01*
X130608500Y-90000400D01*
X130608500Y-88999600D01*
X130607688Y-88991771D01*
X130598238Y-88900692D01*
X130598237Y-88900688D01*
X130597526Y-88893834D01*
X130581734Y-88846498D01*
X130543868Y-88733002D01*
X130541550Y-88726054D01*
X130448571Y-88575802D01*
X130429733Y-88507351D01*
X130450894Y-88439582D01*
X130505335Y-88394011D01*
X130555715Y-88383500D01*
X145225633Y-88383500D01*
X145245018Y-88385000D01*
G37*
G04 #@! TD.AperFunction*
G04 #@! TA.AperFunction,NonConductor*
G36*
X111432026Y-109475144D02*
G01*
X111459875Y-109506994D01*
X111519987Y-109605088D01*
X111666250Y-109773938D01*
X111719992Y-109818555D01*
X111759628Y-109877458D01*
X111761126Y-109948439D01*
X111724012Y-110008962D01*
X111660068Y-110039811D01*
X111639508Y-110041500D01*
X111063776Y-110041500D01*
X110995655Y-110021498D01*
X110949162Y-109967842D01*
X110939058Y-109897568D01*
X110968552Y-109832988D01*
X110974836Y-109826249D01*
X111025710Y-109775553D01*
X111118096Y-109683489D01*
X111156231Y-109630419D01*
X111248453Y-109502077D01*
X111249776Y-109503028D01*
X111296645Y-109459857D01*
X111366580Y-109447625D01*
X111432026Y-109475144D01*
G37*
G04 #@! TD.AperFunction*
G04 #@! TA.AperFunction,NonConductor*
G36*
X108892026Y-109475144D02*
G01*
X108919875Y-109506994D01*
X108979987Y-109605088D01*
X109126250Y-109773938D01*
X109179992Y-109818555D01*
X109219628Y-109877458D01*
X109221126Y-109948439D01*
X109184012Y-110008962D01*
X109120068Y-110039811D01*
X109099508Y-110041500D01*
X108523776Y-110041500D01*
X108455655Y-110021498D01*
X108409162Y-109967842D01*
X108399058Y-109897568D01*
X108428552Y-109832988D01*
X108434836Y-109826249D01*
X108485710Y-109775553D01*
X108578096Y-109683489D01*
X108616231Y-109630419D01*
X108708453Y-109502077D01*
X108709776Y-109503028D01*
X108756645Y-109459857D01*
X108826580Y-109447625D01*
X108892026Y-109475144D01*
G37*
G04 #@! TD.AperFunction*
G04 #@! TA.AperFunction,NonConductor*
G36*
X113972026Y-109475144D02*
G01*
X113999875Y-109506994D01*
X114059987Y-109605088D01*
X114206250Y-109773938D01*
X114259992Y-109818555D01*
X114299628Y-109877458D01*
X114301126Y-109948439D01*
X114264012Y-110008962D01*
X114200068Y-110039811D01*
X114179508Y-110041500D01*
X113603776Y-110041500D01*
X113535655Y-110021498D01*
X113489162Y-109967842D01*
X113479058Y-109897568D01*
X113508552Y-109832988D01*
X113514836Y-109826249D01*
X113565710Y-109775553D01*
X113658096Y-109683489D01*
X113696231Y-109630419D01*
X113788453Y-109502077D01*
X113789776Y-109503028D01*
X113836645Y-109459857D01*
X113906580Y-109447625D01*
X113972026Y-109475144D01*
G37*
G04 #@! TD.AperFunction*
G04 #@! TA.AperFunction,NonConductor*
G36*
X107438253Y-88523502D02*
G01*
X107484746Y-88577158D01*
X107494850Y-88647432D01*
X107477392Y-88695616D01*
X107457885Y-88727262D01*
X107402203Y-88895139D01*
X107391500Y-88999600D01*
X107391500Y-89660405D01*
X107371498Y-89728526D01*
X107354595Y-89749500D01*
X106579500Y-90524595D01*
X106517188Y-90558621D01*
X106490405Y-90561500D01*
X104083435Y-90561500D01*
X104015314Y-90541498D01*
X104000364Y-90530237D01*
X103948341Y-90484614D01*
X103696727Y-90316491D01*
X103693028Y-90314667D01*
X103693023Y-90314664D01*
X103510883Y-90224843D01*
X103425320Y-90182648D01*
X103421414Y-90181322D01*
X103142673Y-90086702D01*
X103142670Y-90086701D01*
X103138766Y-90085376D01*
X103134727Y-90084573D01*
X103134721Y-90084571D01*
X102846009Y-90027143D01*
X102846006Y-90027143D01*
X102841966Y-90026339D01*
X102837855Y-90026070D01*
X102837851Y-90026069D01*
X102544119Y-90006817D01*
X102540000Y-90006547D01*
X102535881Y-90006817D01*
X102242149Y-90026069D01*
X102242145Y-90026070D01*
X102238034Y-90026339D01*
X102233994Y-90027143D01*
X102233991Y-90027143D01*
X101945279Y-90084571D01*
X101945273Y-90084573D01*
X101941234Y-90085376D01*
X101937330Y-90086701D01*
X101937327Y-90086702D01*
X101658586Y-90181322D01*
X101654680Y-90182648D01*
X101579279Y-90219832D01*
X101386978Y-90314664D01*
X101386973Y-90314667D01*
X101383274Y-90316491D01*
X101131659Y-90484614D01*
X101128565Y-90487328D01*
X101128559Y-90487332D01*
X100930631Y-90660912D01*
X100904142Y-90684142D01*
X100901433Y-90687231D01*
X100707332Y-90908559D01*
X100707328Y-90908565D01*
X100704614Y-90911659D01*
X100536491Y-91163274D01*
X100534667Y-91166973D01*
X100534664Y-91166978D01*
X100485659Y-91266350D01*
X100402648Y-91434680D01*
X100305376Y-91721234D01*
X100304573Y-91725273D01*
X100304571Y-91725279D01*
X100254692Y-91976039D01*
X100246339Y-92018034D01*
X100246070Y-92022145D01*
X100246069Y-92022149D01*
X100239091Y-92128611D01*
X100226547Y-92320000D01*
X100226817Y-92324119D01*
X100244115Y-92588027D01*
X100246339Y-92621966D01*
X100247143Y-92626006D01*
X100247143Y-92626009D01*
X100292989Y-92856491D01*
X100305376Y-92918766D01*
X100306701Y-92922670D01*
X100306702Y-92922673D01*
X100397916Y-93191379D01*
X100402648Y-93205320D01*
X100465888Y-93333558D01*
X100532199Y-93468022D01*
X100536491Y-93476726D01*
X100704614Y-93728341D01*
X100707328Y-93731435D01*
X100707332Y-93731441D01*
X100853436Y-93898039D01*
X100904142Y-93955858D01*
X100907231Y-93958567D01*
X101128559Y-94152668D01*
X101128562Y-94152670D01*
X101131659Y-94155386D01*
X101135085Y-94157675D01*
X101135090Y-94157679D01*
X101323371Y-94283484D01*
X101383273Y-94323509D01*
X101386972Y-94325333D01*
X101386977Y-94325336D01*
X101526308Y-94394046D01*
X101654680Y-94457352D01*
X101658585Y-94458677D01*
X101658586Y-94458678D01*
X101937327Y-94553298D01*
X101937330Y-94553299D01*
X101941234Y-94554624D01*
X101945273Y-94555427D01*
X101945279Y-94555429D01*
X102233991Y-94612857D01*
X102233994Y-94612857D01*
X102238034Y-94613661D01*
X102242145Y-94613930D01*
X102242149Y-94613931D01*
X102535881Y-94633183D01*
X102540000Y-94633453D01*
X102544119Y-94633183D01*
X102837851Y-94613931D01*
X102837855Y-94613930D01*
X102841966Y-94613661D01*
X102846006Y-94612857D01*
X102846009Y-94612857D01*
X103134721Y-94555429D01*
X103134727Y-94555427D01*
X103138766Y-94554624D01*
X103142670Y-94553299D01*
X103142673Y-94553298D01*
X103421414Y-94458678D01*
X103421415Y-94458677D01*
X103425320Y-94457352D01*
X103553692Y-94394046D01*
X103693023Y-94325336D01*
X103693028Y-94325333D01*
X103696727Y-94323509D01*
X103948341Y-94155386D01*
X104000359Y-94109767D01*
X104064761Y-94079891D01*
X104083435Y-94078500D01*
X106130405Y-94078500D01*
X106198526Y-94098502D01*
X106219500Y-94115405D01*
X106329595Y-94225500D01*
X106363621Y-94287812D01*
X106366500Y-94314595D01*
X106366500Y-96434139D01*
X106346498Y-96502260D01*
X106292842Y-96548753D01*
X106222568Y-96558857D01*
X106157988Y-96529363D01*
X106145340Y-96516725D01*
X106048015Y-96404568D01*
X106037938Y-96396306D01*
X105870584Y-96259083D01*
X105870578Y-96259079D01*
X105866456Y-96255699D01*
X105861820Y-96253060D01*
X105861817Y-96253058D01*
X105667053Y-96142192D01*
X105662410Y-96139549D01*
X105441711Y-96059439D01*
X105436462Y-96058490D01*
X105436459Y-96058489D01*
X105355385Y-96043829D01*
X105210670Y-96017660D01*
X105206531Y-96017465D01*
X105206524Y-96017464D01*
X105187560Y-96016570D01*
X105187551Y-96016570D01*
X105186071Y-96016500D01*
X105021050Y-96016500D01*
X104947935Y-96022704D01*
X104851363Y-96030898D01*
X104851359Y-96030899D01*
X104846052Y-96031349D01*
X104840897Y-96032687D01*
X104840891Y-96032688D01*
X104663177Y-96078814D01*
X104618794Y-96090333D01*
X104613928Y-96092525D01*
X104613925Y-96092526D01*
X104409583Y-96184576D01*
X104409580Y-96184577D01*
X104404722Y-96186766D01*
X104209959Y-96317888D01*
X104206102Y-96321567D01*
X104206100Y-96321569D01*
X104192704Y-96334348D01*
X104040073Y-96479951D01*
X103899922Y-96668321D01*
X103897506Y-96673072D01*
X103897504Y-96673076D01*
X103800683Y-96863509D01*
X103793513Y-96877612D01*
X103723889Y-97101840D01*
X103723188Y-97107129D01*
X103696615Y-97307617D01*
X103693039Y-97334593D01*
X103693239Y-97339922D01*
X103693239Y-97339923D01*
X103693742Y-97353307D01*
X103701848Y-97569216D01*
X103702943Y-97574434D01*
X103727794Y-97692871D01*
X103750062Y-97799001D01*
X103836302Y-98017377D01*
X103958104Y-98218100D01*
X104111985Y-98395432D01*
X104116117Y-98398820D01*
X104289416Y-98540917D01*
X104289422Y-98540921D01*
X104293544Y-98544301D01*
X104298180Y-98546940D01*
X104298183Y-98546942D01*
X104406568Y-98608638D01*
X104497590Y-98660451D01*
X104718289Y-98740561D01*
X104723538Y-98741510D01*
X104723541Y-98741511D01*
X104770382Y-98749981D01*
X104949330Y-98782340D01*
X104953469Y-98782535D01*
X104953476Y-98782536D01*
X104972440Y-98783430D01*
X104972449Y-98783430D01*
X104973929Y-98783500D01*
X105138950Y-98783500D01*
X105220299Y-98776597D01*
X105308637Y-98769102D01*
X105308641Y-98769101D01*
X105313948Y-98768651D01*
X105319103Y-98767313D01*
X105319109Y-98767312D01*
X105496823Y-98721186D01*
X105541206Y-98709667D01*
X105546072Y-98707475D01*
X105546075Y-98707474D01*
X105750417Y-98615424D01*
X105750420Y-98615423D01*
X105755278Y-98613234D01*
X105950041Y-98482112D01*
X105966402Y-98466505D01*
X106068534Y-98369075D01*
X106119927Y-98320049D01*
X106139411Y-98293862D01*
X106196122Y-98251149D01*
X106266923Y-98245877D01*
X106329334Y-98279719D01*
X106363542Y-98341932D01*
X106366500Y-98369075D01*
X106366500Y-106928207D01*
X106364268Y-106951816D01*
X106362725Y-106959906D01*
X106366251Y-107015947D01*
X106366500Y-107023859D01*
X106366500Y-107039856D01*
X106368506Y-107055730D01*
X106369248Y-107063590D01*
X106372775Y-107119650D01*
X106375225Y-107127191D01*
X106375321Y-107127487D01*
X106380494Y-107150631D01*
X106380532Y-107150935D01*
X106380533Y-107150940D01*
X106381526Y-107158797D01*
X106384442Y-107166162D01*
X106384443Y-107166166D01*
X106402199Y-107211011D01*
X106404871Y-107218430D01*
X106422236Y-107271875D01*
X106426486Y-107278571D01*
X106426486Y-107278572D01*
X106426650Y-107278831D01*
X106437415Y-107299958D01*
X106437529Y-107300246D01*
X106437532Y-107300251D01*
X106440448Y-107307617D01*
X106445104Y-107314025D01*
X106445107Y-107314031D01*
X106473458Y-107353052D01*
X106477901Y-107359589D01*
X106508000Y-107407018D01*
X106513778Y-107412444D01*
X106513779Y-107412445D01*
X106514007Y-107412659D01*
X106529688Y-107430446D01*
X106534528Y-107437107D01*
X106540637Y-107442161D01*
X106540638Y-107442162D01*
X106577796Y-107472903D01*
X106583730Y-107478134D01*
X106618898Y-107511158D01*
X106618901Y-107511160D01*
X106624679Y-107516586D01*
X106631903Y-107520558D01*
X106651506Y-107533881D01*
X106651746Y-107534080D01*
X106651753Y-107534084D01*
X106657856Y-107539133D01*
X106665026Y-107542507D01*
X106666684Y-107543559D01*
X106713484Y-107596947D01*
X106723991Y-107667162D01*
X106694869Y-107731911D01*
X106674828Y-107750705D01*
X106634965Y-107780635D01*
X106578537Y-107839684D01*
X106554283Y-107865064D01*
X106492759Y-107900494D01*
X106421846Y-107897037D01*
X106364060Y-107855791D01*
X106345207Y-107822243D01*
X106303767Y-107711703D01*
X106300615Y-107703295D01*
X106213261Y-107586739D01*
X106096705Y-107499385D01*
X105960316Y-107448255D01*
X105898134Y-107441500D01*
X104101866Y-107441500D01*
X104039684Y-107448255D01*
X103903295Y-107499385D01*
X103786739Y-107586739D01*
X103699385Y-107703295D01*
X103648255Y-107839684D01*
X103641500Y-107901866D01*
X103641500Y-109698134D01*
X103648255Y-109760316D01*
X103653362Y-109773938D01*
X103689850Y-109871270D01*
X103695033Y-109942077D01*
X103661112Y-110004446D01*
X103598857Y-110038576D01*
X103571868Y-110041500D01*
X103249367Y-110041500D01*
X103229982Y-110040000D01*
X103215149Y-110037690D01*
X103215145Y-110037690D01*
X103206276Y-110036309D01*
X103187564Y-110038756D01*
X103164634Y-110039647D01*
X102888673Y-110025184D01*
X102875563Y-110023806D01*
X102574159Y-109976069D01*
X102561259Y-109973327D01*
X102266499Y-109894346D01*
X102253956Y-109890270D01*
X101969080Y-109780917D01*
X101957031Y-109775553D01*
X101685133Y-109637013D01*
X101673712Y-109630419D01*
X101417784Y-109464218D01*
X101407114Y-109456465D01*
X101169970Y-109264430D01*
X101160169Y-109255605D01*
X100944395Y-109039831D01*
X100935570Y-109030030D01*
X100743535Y-108792886D01*
X100735782Y-108782216D01*
X100569581Y-108526288D01*
X100562987Y-108514867D01*
X100424447Y-108242969D01*
X100419083Y-108230920D01*
X100309730Y-107946044D01*
X100305654Y-107933501D01*
X100295884Y-107897037D01*
X100226673Y-107638741D01*
X100223931Y-107625841D01*
X100207255Y-107520555D01*
X100176194Y-107324437D01*
X100174816Y-107311324D01*
X100174236Y-107300246D01*
X100160932Y-107046410D01*
X100162505Y-107018915D01*
X100163576Y-107012552D01*
X100163729Y-107000000D01*
X100159773Y-106972376D01*
X100158500Y-106954514D01*
X100158500Y-106933623D01*
X100158502Y-106932853D01*
X100158800Y-106884099D01*
X100158976Y-106855279D01*
X100150850Y-106826847D01*
X100147272Y-106810085D01*
X100143080Y-106780813D01*
X100132451Y-106757436D01*
X100126004Y-106739913D01*
X100121416Y-106723862D01*
X100118949Y-106715229D01*
X100110589Y-106701979D01*
X100103170Y-106690220D01*
X100095030Y-106675135D01*
X100082792Y-106648218D01*
X100066030Y-106628765D01*
X100054927Y-106613761D01*
X100041224Y-106592042D01*
X100034499Y-106586103D01*
X100034496Y-106586099D01*
X100019062Y-106572468D01*
X100007018Y-106560276D01*
X99993573Y-106544673D01*
X99993570Y-106544671D01*
X99987713Y-106537873D01*
X99966165Y-106523906D01*
X99951291Y-106512615D01*
X99938783Y-106501569D01*
X99938782Y-106501568D01*
X99932049Y-106495622D01*
X99905287Y-106483057D01*
X99890309Y-106474737D01*
X99873017Y-106463529D01*
X99873012Y-106463527D01*
X99865485Y-106458648D01*
X99856892Y-106456078D01*
X99856887Y-106456076D01*
X99840880Y-106451289D01*
X99823436Y-106444628D01*
X99808324Y-106437533D01*
X99808322Y-106437532D01*
X99800200Y-106433719D01*
X99791333Y-106432338D01*
X99791332Y-106432338D01*
X99779315Y-106430467D01*
X99770983Y-106429170D01*
X99754268Y-106425387D01*
X99734534Y-106419485D01*
X99734528Y-106419484D01*
X99725934Y-106416914D01*
X99716963Y-106416859D01*
X99716962Y-106416859D01*
X99706903Y-106416798D01*
X99691494Y-106416704D01*
X99690711Y-106416671D01*
X99689614Y-106416500D01*
X99658623Y-106416500D01*
X99657853Y-106416498D01*
X99584215Y-106416048D01*
X99584214Y-106416048D01*
X99580279Y-106416024D01*
X99578935Y-106416408D01*
X99577590Y-106416500D01*
X92774367Y-106416500D01*
X92754982Y-106415000D01*
X92740149Y-106412690D01*
X92740145Y-106412690D01*
X92731276Y-106411309D01*
X92716019Y-106413304D01*
X92690699Y-106414047D01*
X92512015Y-106401267D01*
X92486150Y-106399417D01*
X92468356Y-106396859D01*
X92386135Y-106378973D01*
X92243168Y-106347872D01*
X92225920Y-106342808D01*
X92009996Y-106262272D01*
X91993644Y-106254804D01*
X91791382Y-106144361D01*
X91776258Y-106134641D01*
X91591771Y-105996536D01*
X91578185Y-105984763D01*
X91415237Y-105821815D01*
X91403464Y-105808229D01*
X91265359Y-105623742D01*
X91255639Y-105608618D01*
X91145196Y-105406356D01*
X91137728Y-105390004D01*
X91057192Y-105174080D01*
X91052127Y-105156830D01*
X91003141Y-104931644D01*
X91000583Y-104913850D01*
X90987501Y-104730949D01*
X90986719Y-104720010D01*
X90987806Y-104697245D01*
X90987334Y-104697203D01*
X90987770Y-104692345D01*
X90988576Y-104687552D01*
X90988729Y-104675000D01*
X90984773Y-104647376D01*
X90983500Y-104629514D01*
X90983500Y-96279650D01*
X91003502Y-96211529D01*
X91057158Y-96165036D01*
X91127432Y-96154932D01*
X91192012Y-96184426D01*
X91216644Y-96213347D01*
X91291522Y-96334348D01*
X91416697Y-96459305D01*
X91422927Y-96463145D01*
X91422928Y-96463146D01*
X91530352Y-96529363D01*
X91567262Y-96552115D01*
X91587589Y-96558857D01*
X91728611Y-96605632D01*
X91728613Y-96605632D01*
X91735139Y-96607797D01*
X91741975Y-96608497D01*
X91741978Y-96608498D01*
X91785031Y-96612909D01*
X91839600Y-96618500D01*
X93559840Y-96618500D01*
X93627961Y-96638502D01*
X93674454Y-96692158D01*
X93684558Y-96762432D01*
X93672157Y-96801605D01*
X93633513Y-96877612D01*
X93563889Y-97101840D01*
X93563188Y-97107129D01*
X93536615Y-97307617D01*
X93533039Y-97334593D01*
X93533239Y-97339922D01*
X93533239Y-97339923D01*
X93533742Y-97353307D01*
X93541848Y-97569216D01*
X93542943Y-97574434D01*
X93567794Y-97692871D01*
X93590062Y-97799001D01*
X93676302Y-98017377D01*
X93798104Y-98218100D01*
X93951985Y-98395432D01*
X93956117Y-98398820D01*
X94129416Y-98540917D01*
X94129422Y-98540921D01*
X94133544Y-98544301D01*
X94138180Y-98546940D01*
X94138183Y-98546942D01*
X94246568Y-98608638D01*
X94337590Y-98660451D01*
X94558289Y-98740561D01*
X94563538Y-98741510D01*
X94563541Y-98741511D01*
X94610382Y-98749981D01*
X94789330Y-98782340D01*
X94793469Y-98782535D01*
X94793476Y-98782536D01*
X94812440Y-98783430D01*
X94812449Y-98783430D01*
X94813929Y-98783500D01*
X94978950Y-98783500D01*
X95060299Y-98776597D01*
X95148637Y-98769102D01*
X95148641Y-98769101D01*
X95153948Y-98768651D01*
X95159103Y-98767313D01*
X95159109Y-98767312D01*
X95336823Y-98721186D01*
X95381206Y-98709667D01*
X95386072Y-98707475D01*
X95386075Y-98707474D01*
X95590417Y-98615424D01*
X95590420Y-98615423D01*
X95595278Y-98613234D01*
X95790041Y-98482112D01*
X95806402Y-98466505D01*
X95908534Y-98369075D01*
X95959927Y-98320049D01*
X96100078Y-98131679D01*
X96160719Y-98012408D01*
X96204069Y-97927144D01*
X96204069Y-97927143D01*
X96206487Y-97922388D01*
X96276111Y-97698160D01*
X96293202Y-97569216D01*
X96306261Y-97470690D01*
X96306261Y-97470687D01*
X96306961Y-97465407D01*
X96300336Y-97288965D01*
X96317768Y-97220143D01*
X96369641Y-97171670D01*
X96418006Y-97158509D01*
X96487851Y-97153931D01*
X96487855Y-97153930D01*
X96491966Y-97153661D01*
X96496006Y-97152857D01*
X96496009Y-97152857D01*
X96784721Y-97095429D01*
X96784727Y-97095427D01*
X96788766Y-97094624D01*
X96792670Y-97093299D01*
X96792673Y-97093298D01*
X97071414Y-96998678D01*
X97071415Y-96998677D01*
X97075320Y-96997352D01*
X97191803Y-96939909D01*
X97342040Y-96865821D01*
X97411982Y-96853631D01*
X97477412Y-96881190D01*
X97517555Y-96939749D01*
X97522774Y-96994617D01*
X97491500Y-97242179D01*
X97491500Y-97557821D01*
X97531060Y-97870975D01*
X97609557Y-98176702D01*
X97611010Y-98180371D01*
X97611010Y-98180372D01*
X97696159Y-98395432D01*
X97725753Y-98470179D01*
X97727659Y-98473647D01*
X97727660Y-98473648D01*
X97874398Y-98740561D01*
X97877816Y-98746779D01*
X98063346Y-99002140D01*
X98279418Y-99232233D01*
X98282469Y-99234757D01*
X98282470Y-99234758D01*
X98346601Y-99287812D01*
X98522625Y-99433432D01*
X98789131Y-99602562D01*
X98792710Y-99604246D01*
X98792717Y-99604250D01*
X99071144Y-99735267D01*
X99071148Y-99735269D01*
X99074734Y-99736956D01*
X99374928Y-99834495D01*
X99684980Y-99893641D01*
X99921162Y-99908500D01*
X100078838Y-99908500D01*
X100315020Y-99893641D01*
X100625072Y-99834495D01*
X100925266Y-99736956D01*
X100928852Y-99735269D01*
X100928856Y-99735267D01*
X101207283Y-99604250D01*
X101207290Y-99604246D01*
X101210869Y-99602562D01*
X101477375Y-99433432D01*
X101653399Y-99287812D01*
X101717530Y-99234758D01*
X101717531Y-99234757D01*
X101720582Y-99232233D01*
X101936654Y-99002140D01*
X102122184Y-98746779D01*
X102125603Y-98740561D01*
X102272340Y-98473648D01*
X102272341Y-98473647D01*
X102274247Y-98470179D01*
X102303842Y-98395432D01*
X102388990Y-98180372D01*
X102388990Y-98180371D01*
X102390443Y-98176702D01*
X102468940Y-97870975D01*
X102508500Y-97557821D01*
X102508500Y-97242179D01*
X102468940Y-96929025D01*
X102390443Y-96623298D01*
X102388543Y-96618500D01*
X102275702Y-96333495D01*
X102275700Y-96333490D01*
X102274247Y-96329821D01*
X102272340Y-96326352D01*
X102124093Y-96056693D01*
X102124091Y-96056690D01*
X102122184Y-96053221D01*
X101936654Y-95797860D01*
X101720582Y-95567767D01*
X101477375Y-95366568D01*
X101210869Y-95197438D01*
X101207290Y-95195754D01*
X101207283Y-95195750D01*
X100928856Y-95064733D01*
X100928852Y-95064731D01*
X100925266Y-95063044D01*
X100625072Y-94965505D01*
X100315020Y-94906359D01*
X100078838Y-94891500D01*
X99921162Y-94891500D01*
X99684980Y-94906359D01*
X99374928Y-94965505D01*
X99074734Y-95063044D01*
X99071148Y-95064731D01*
X99071144Y-95064733D01*
X98792717Y-95195750D01*
X98792710Y-95195754D01*
X98789131Y-95197438D01*
X98677445Y-95268316D01*
X98609215Y-95287928D01*
X98541209Y-95267537D01*
X98495024Y-95213617D01*
X98484204Y-95153689D01*
X98503183Y-94864119D01*
X98503453Y-94860000D01*
X98487307Y-94613661D01*
X98483931Y-94562149D01*
X98483930Y-94562145D01*
X98483661Y-94558034D01*
X98463634Y-94457352D01*
X98425429Y-94265279D01*
X98425427Y-94265273D01*
X98424624Y-94261234D01*
X98419614Y-94246473D01*
X98328678Y-93978586D01*
X98328677Y-93978585D01*
X98327352Y-93974680D01*
X98242820Y-93803266D01*
X98195336Y-93706978D01*
X98195333Y-93706973D01*
X98193509Y-93703274D01*
X98025386Y-93451659D01*
X98022672Y-93448565D01*
X98022668Y-93448559D01*
X97828567Y-93227231D01*
X97825858Y-93224142D01*
X97822769Y-93221433D01*
X97601441Y-93027332D01*
X97601435Y-93027328D01*
X97598341Y-93024614D01*
X97594915Y-93022325D01*
X97594910Y-93022321D01*
X97350160Y-92858785D01*
X97346727Y-92856491D01*
X97343028Y-92854667D01*
X97343023Y-92854664D01*
X97203692Y-92785954D01*
X97075320Y-92722648D01*
X97071414Y-92721322D01*
X96799042Y-92628864D01*
X96740965Y-92588027D01*
X96714187Y-92522274D01*
X96727208Y-92452482D01*
X96750448Y-92420456D01*
X98626771Y-90544134D01*
X100630500Y-88540405D01*
X100692812Y-88506379D01*
X100719595Y-88503500D01*
X107370132Y-88503500D01*
X107438253Y-88523502D01*
G37*
G04 #@! TD.AperFunction*
G04 #@! TA.AperFunction,NonConductor*
G36*
X116512026Y-109475144D02*
G01*
X116539875Y-109506994D01*
X116599987Y-109605088D01*
X116746250Y-109773938D01*
X116799992Y-109818555D01*
X116839628Y-109877458D01*
X116841126Y-109948439D01*
X116804012Y-110008962D01*
X116740068Y-110039811D01*
X116719508Y-110041500D01*
X116143776Y-110041500D01*
X116075655Y-110021498D01*
X116029162Y-109967842D01*
X116019058Y-109897568D01*
X116048552Y-109832988D01*
X116054836Y-109826249D01*
X116105710Y-109775553D01*
X116198096Y-109683489D01*
X116236231Y-109630419D01*
X116328453Y-109502077D01*
X116329776Y-109503028D01*
X116376645Y-109459857D01*
X116446580Y-109447625D01*
X116512026Y-109475144D01*
G37*
G04 #@! TD.AperFunction*
M02*
